<mxfile host="Electron" agent="Mozilla/5.0 (Windows NT 10.0; Win64; x64) AppleWebKit/537.36 (KHTML, like Gecko) draw.io/26.2.15 Chrome/134.0.6998.205 Electron/35.2.1 Safari/537.36" version="26.2.15">
  <diagram name="第 1 页" id="_XuSsrF2TFEvqg6Xg3BP">
    <mxGraphModel dx="3930" dy="2810" grid="1" gridSize="10" guides="1" tooltips="1" connect="1" arrows="1" fold="1" page="1" pageScale="1" pageWidth="827" pageHeight="1169" math="1" shadow="0">
      <root>
        <mxCell id="0" />
        <mxCell id="1" parent="0" />
        <mxCell id="WYTIspNSHNain-M4p9hz-1" value="" style="shape=image;verticalLabelPosition=bottom;labelBackgroundColor=default;verticalAlign=top;aspect=fixed;imageAspect=0;image=data:image/png,iVBORw0KGgoAAAANSUhEUgAACKAAAATgCAYAAADKG6gXAAAgAElEQVR4nOzdC5Ac93kg9gYWIsDHAliQWAgU+JAIPShSD1OWLOlsk4HOdl3sy/n9OOnEGLbPEVUun+VLpXJSEQUWr1J5mErKJ9qlc+ADUoytyLFdSSyfZRM2TMl6WZRFChJlgaZIwoQAUARBkAQgcoHgG7AXM709O4/umenu+f2qtnZndqbx3118M/3/9/f/vhUrX/WOswkAAAAAAAAAAAxp5aQHAAAAAAAAAABAvUlAAQAAAAAAAACgEAkoAAAAAAAAAAAUIgEFAAAAAAAAAIBCJKAAAAAAAAAAAFCIBBQAAAAAAAAAAAqRgAIAAAAAAAAAQCESUAAAAAAAAAAAKEQCCgAAAAAAAAAAhUhAAQAAAAAAAACgEAkoAAAAAAAAAAAUIgEFAAAAAAAAAIBCJKAAAAAAAAAAAFCIBBQAAAAAAAAAAAqRgAIAAAAAAAAAQCESUAAAAAAAAAAAKEQCCgAAAAAAAAAAhUhAAQAAAAAAAACgEAkoAAAAAAAAAAAUIgEFAAAAAAAAAIBCJKAAAAAAAAAAAFCIBBQAAAAAAAAAAAqRgAIAAAAAAAAAQCESUAAAAAAAAAAAKEQCCgAAAAAAAAAAhUhAAQAAAAAAAACgEAkoAAAAAAAAAAAUIgEFAAAAAAAAAIBCJKAAAAAAAAAAAFCIBBQAAAAAAAAAAAqRgAIAAAAAAAAAQCESUAAAAAAAAAAAKEQCCgAAAAAAAAAAhUhAAQAAAAAAAACgEAkoAAAAAAAAAAAUIgEFAAAAAAAAAIBCJKAAAAAAAAAAAFCIBBQAAAAAAAAAAAqRgAIAAAAAAAAAQCESUAAAAAAAAAAAKEQCCgAAAAAAAAAAhUhAAQAAAAAAAACgEAkoAAAAAAAAAAAUIgEFAAAAAAAAAIBCJKDU3DVbrky++803JitWrJj0UAAAAAAAAACAKbVq0gNgeLOXXZr8wrt/Krns0kuSLz34tWRhYWHSQwIAAAAAAAAAppAKKDV1ycVrkl96z0+3kk8AAAAAAAAAACZJBZQaWr9ubfKv3/PTycs3bZz0UAAAAAAAAAAAJKDUzfe85U3Jj/7QP01Wr7lo0kMBAAAAAAAAAGiRgFITK1euTP7t+7YvVj05+MS3ks9/6YHkx3/4Byc8MgAAAAAAAABg2klAqYkVK1a0kk9On/5O8ud//enkLz/1ueSG1766lGNvWL+ulOMAAAAAAAAAQBU89fTxSQ9h6khAqYmzZ88mf/aXn0ru++wXkudPnirtuJF88qEP3Fba8QDqYu3RI63PW772YDL75JHF+9Y+eXjxe2tfuj/rmSvmL3y9cf6l+za1vj5x7nvxOb0NAAAAALCc9nXJWKtMb6ffa33uc60y1iXTr9O1yoPXv2HEPwFANd15192SUMZMAkpNnDlzJvmzv7xv0sMAqKWYpF1/372tryPhZMvXvlLseG2TvQtfLz1mOvmLCd4/Xn+jyR4AAAAATLE0seQVX/vK4tflr1XmH++Zto1z1ioBGBUJKAA0TppwUkaySaFxvDT5e/25sbz+pQSYbFLKV7//XRMbHwAAAAAwOu0JJ1VYq0wTVNrXKtNElFirlJACQFESUOjwkV33JMcqWoaovVWQcRZnnOUyznINOs5rXjyd3HriaHLzqePJGw89PurhFZJNSvmeP/y91u3ds/PJvovXJvvWrC3936zL3z3UZazGWS7jLJdxlss4y1WXcYa6jNU4y2Wc5TLOchlnueoyzlCXsRpnuYyzXMZZLuNcXt3WKuMjTYyJhJRvvmx1suey85+za5X+9uUyznIZZ7nqPM72+xg/CSh0iKCsYh+sDevXddw2zmKMs1zGWa5+x3ntuYnce08caU3m4utBfXPV6tbnSPpIv3501ZoLX5+bYKVf5/3b4UO/dttiL9bP/F9/mMye+zq+d+0Lp89NMJ/paxxpQsqvnPv8Ky+NK8a0+7LzCSlF1eXvHuoyVuMsl3GWyzjLZZzlqss4Q13GapzlMs5yGWe5jLNcdRlnqMtYjbNcxlku4yyXceZL1yp3HDs41PPTSiT3Hjx8Yd1yzfmfIdYpQ6+1ynDNC6cXb0cCTOv7A65VvvHc5/8leXzx39w9uzHZMzu/WNk55W9fjHGWyzjLVedxMnkSUACojWGTTmKi9Oi5j79qVRhZVzixI44XJzatnqkbz0+8ds/elzy1cNGS8aaTvpjw9TPZayWwnPv54mdMJ3hljBkAAAAAKM+wSSfpml+Idb9/8T//D4vfu/Ouuwe+yNuemNLa3PbS1+m/0T7em0+eX5uMtcpYf+wlnhM/X3w88/x88rm/vldLcQCWJQEFgMobdDLXPom7Y+6qUQ6t5zjSSV86njQpJSZ5t5yb8C2XkJJO8JLkYOs48bNkJ44AAAAAwPjcfuzxgTbILbfJLDa5/YtRDLLLOL750tpijGf7xq2LSSn9bJ6L6ig/8NH/rdVS/OD1b0juO3Uy+aMxjR2A+pCAAkAlrT16JLn+vnuTLzzwl31N5trLQXYrR1kFi0kp5yabd8wlHZO85XYdxON2HT3QmuDW4ecEAAAAgKYYZINcuvaXbiirsjQppX3zXKxV3nruZ+2WjBKJKK+/797kD5ILa7JV/zkBGB8JKABUyjXnJjmRRf/2cx+9NGGC0z7Ji5+jVzJKWhUlvh8T2d2XzWvPAwAAAAAjEGtxacWTXnbObUkeXbWm1hWM29cq+0lGaV+rtGkOgCABBYBKWNxF8A8Hk+SB7o9rQtJJN3nJKN0mePH7uvbcxC4md/G8KJkpEQUAAAAAimtVIz5yYNmWNGFa1irTtdtfePn6ZMvXvrLksRJRAEhJQAFgovotX5mWrKzzDoJB5E3wuv2O4vt7D+2XiAIAAAAABcSGsGiDvVxL8Lq0Ai9T/Jz/4ZU3Jus/cFurdXpUsI42PFnZ6s2xnjstvyMAzpOAAsBE9JN48swV88mHFy5q5A6CQaTJNzGp7VUVRSIKAAAAAAymn4onTa52MohnNs4nf/7Lv5q89/iZ5J8//o1Wskk2YSet3hxrmRJRAKaLBBQAxi76pvZKPPnq978r+dyP/1zyH+66O0mePj7G0VVXtipKt0lxmogSj/vNy26cwEgBAAAAoPpiHS3WKiOJohubvfI9mtk0F7/H5RJRJO8ATIcVK1/1jrOTHgSTs2H9uuRDH7ht8fadd92dPFXBC70xznZVHGMwznLVaZziqD+9Ek/SXQRRzjFVxd9lqMLvM/SaJEcyz+5zk8A75ra0blf19xnEUrmMs1x1Gqc4Ko9xlqsu4wxiqVzGWa46jVMclcc4y1WXcQaxVC7jLFedximOytOUcfZTnXnfmrXJ9vmtI63cUZffZ+gVS/E77ZaIkhpHFZm6/E6Ns1x1Gqf3pPLkjbMuv+MmUwGFWqjLC4Nxlqsu46yLSf4+Y8Jx7xP7l514xKQjJh8tNfjbV+X/Z7oDI35/eYkoa588kvzKuY8oh2mXQTmq8rfvxTjLVZdx1kVdfp/GWa66jLNO6vI7Nc5y1WWcdVGX36dxlqsu46yTuvxOjbNcdRlnXdTl99mEcfbaJDeOxJNUXX6f/UirN0elmOUqosTvPtYwR1VVpi6/U+MsV13GWRd1+X3WZZzTZuWkBwBAc6XVOR5+7P7c5JOYlOyc25Jcd/VNF5JPGEqaiBK/y5gkZ6WTu/hbxAQQAAAAAKZJq231E/u7Jp/E+tq2zTck2668YSzJJ02VVjl517nfY6z95v0u0xbiy1VLAaCeJKAAMBKR5BDJDt0mdGniiYoc5WpNlM9N7iIZpdvkbtfRA63JHQAAAAA0XfsmuZtPLd2Y1bGxawQVOaZVWvU6TUTJE2vHUTnbWiVAc0hAAaBU6U6CyGDPE5ONmVe9Q+LJiLXvMshqr4aSbdkDAAAAAE3R7yY51ZlHJ01Eid/zcmuVe5dp4Q5AfUhAAaA0vXYSRAlLiSfj08/kTjUUAAAAAJomrXrSbZNctLC2SW682tcq8yo3x5qyaigA9ScBBYDCevVPTXcSKGE5Gb0md2k1FJM7AAAAAOpuuaon6Sa5aGHNZMTfoJ/KzaqhANSTBBQACkkndHlVT2InQSQ92ElQDf1M7iShAAAAAFBXy1U9sUmuOto3zMUaclasVaqGAlBPElAAGFq3CV1MIGJCFzsJ8ipuMDn9VkOxwwAAAACAuliuQrPW4NXV+tvYMAfQKBJQABhYnPx3K2Op6kk99KqGYocBAAAAAHUQa1jdKjSrelIP6Ya53bMbl3wv3TAXlbgBqL5Vkx4AQBP8zj0fX/z6+IlnJziS0YsJXV7iSYgJncST+kiroeyZnW8lnLRXPUl3GNxybmK3fX7r2CrZTFMswaiIIyiHWILixBGUQyxBceKomWL9ateRA7mJJ7GWtX3jVoknJRtlLKV/s/icXX9u/a2PHmglqFh/pu68J9F0ElAACooThEsuuXjSwxiLKGNpQtc8aTWU9544smRyF3/vSE551xjaKU1TLMGoiCMoh1iC4sQRlEMsQXHiqJnSCr55baQjSSHWKinXuGKp14a59DFQR96TmAZa8ADQU9pDVRnL5kqroWjJAwAAAECVRSuWaMmSTT6J9a1tm2+QfNIAy7UPT1vy5CUfATB5ElAAWFY6ocsmn6QTOtnmzZL2W923pjOhKN1hIAkFAAAAgEmJtam9h/YvuT9NWLBJrjnSDXOxBp1lwxxAdWnBQ4e59et6Puapp4+PYSRAFcQJfLYlS0gndKNuycJktFoqzW/NbckTt289cdTfHwAAAICx6lahWcudZoukotgwpyUPEDb0uJbdz7VuRksCCh3ev/3dPR9z5113S0KBKWBCN93SHQYhm4SS7jCQhAIAAADAqMVa1K4jB3LXKmOdMtYrabZ0Q2S3DXO3nHwm2Xbl0kopQLNE8smHPnDbpIdBD1rwANAhJnTdkk+i56bkk+mStuTJJpoocwkAAADAqPVqDy75ZHqkG+ZijTor/n/E/5P2CikATIYEFAAWxQn6chM6pQynU7rDIDuhj/8v0Y5HEgoAAAAAZYt1p72H9i+5P12ritYsTJ9eG+YkoQBMlhY8dPjIrnuSYz3a62i/A80Uuwm6TejihJ7plu4wiM/tZS71WgUAAACgbLHhKdtqJexbs1arFRaTkLIJJ2kSSmyks1YJzXTnXXf3fIw2PZMlAYUOkXwiwQQGt7CwMOkhFBK7CXYdPbDkfhM62qVJKCGv12pM8Iq2aKp7LEEViCMoh1iC4sQRlEMsQXHiqF6Waw8uqWCyqhRLaRLKe08cWbJhLta7g/8vVFGV4qhu+rmGvWH9ujGMhOVIQAEoKE4WDh0+OulhDK3bbgITOrqJ/xd7Zudb7ZraxcQuKunExC9bArMfdY8lqAJxBOUQS1CcOIJyiCUoThzVS7fkk2gPruXOZFUxlmINMtYpg6rN1EEV4wjKtnLSAwBgcqLqSV7ySVSxcGLOctLWTHqtAgAAAFBUrCXlJZ/E2pPkE5aTVm2ODZVZsfYdGzABGB8JKAAlmJmZWfyoi0g+SUsRtosJXfTIhF7SMpdlJqHUMZagasQRlEMsQXHiCMohlqA4cVRtsYa068iBJckn0R48NkBJPqmOKsdSJKHE/5csSShUTZXjCMqgBQ9AQXGSsHnThYSNKJ9W9R5+SllSluV6rUYSSlTT6ff/VB1jCapGHEE5xBIUJ46gHGIJihNH1bZc8sm2K2+Y0KjIU4dYSqs2ZzfHxbpl3I61SpikOsQRFKUCCsCUUcqSsqW9VrNlLlsLCEcPJDefXJrsBAAAAMB0i7Wjhx+7X/IJpepWtTmqgcdaJQCjJQEFYIp0Sz4ZpEoF5OnWazVNQlHmEgAAAIBUmnySJfmEMiyXhJL3/w6A8khAAZgS3ZJP4kRc8gll6ZaEEpM7SSgAAAAARLVcySeMWrcklG7JTwCUQwIKQMPFCXW35JPoh5k9AYeiJKEAAAAAkCeST/Ye2r/k/t2zGyWfUDpJKADjJwEFoAQLCwuLH1XSan9y5EBuH9VIPoFRGTYJpaqxBHUijqAcYgmKE0dQDrEExYmjalgu+SRahFN9dYylXkko8RnGqY5xBINYNekBANRdnCQcOnx00sNYYrnkE7sJGIdIQnl01Zpk19EDi/elSSjp99tVNZagTsQRlEMsQXHiCMohlqA4cVQNkk/qr86xlCahZNfLY63y3if25yaowCjUOY6gXyqgADRQmr0t+YRJy1tESJNQYuEBAAAAgGbrlnwSa0aSTxiXSDDZPr+1tUbeLk1CUQkFoBwSUABKMDMzs/gxaWnlkyzJJ0xKtySUqIySTUKpUixBXYkjKIdYguLEEZRDLEFx4mhylks+iTUj6qXusZQmoeS1DpeEwrjUPY6gFy14AAqKk4TNmy5MlqJ82iR792m7QxWlCwrZdjxxOxYc9l28tnKxBHUkjqAcYgmKE0dQDrEExYmjyZF80ixNiaVIQtkzO9/6esexg4v3a8fDODQljmA5KqAANMjecyfIkk+oqlhYyNtdkFcJBQAAAID66pZ8sm3zDZJPmLg0CaVbJRQAhicBBaAhJJ9QB3fMXdU1CUWJSwAAAID6izWebsknUQUXqmC5JJS9klAAhiYBBaABJJ9QJ92SUOL/8ZZTz09oVAAAAAAU1a2CRNqCGaokTUKJtfR2sdbe3kocgP5JQAGouVb7kkzySZw4Sz6hyvKSULacfj752IP3SUIBAAAAqKldR5ZWuY01IG13qKpYS98+v3VJEsqtJ44mtx97fEKjAqgvCSgANRYnwHEi3C5OmK+7+qYJjQj6JwkFAAAAoDnyqjRH4kmsAUGVpUko8bndjmMHJaEADEgCCkBNReJJnAC3ixPkd6l8Qo0sl4QCAAAAQD10axEerXegDtK1dUkoAMVIQAGooZtP5vegjAld9gQZqq5bEsrfP/KFCY0IAAAAgH51Sz7RIpy66bbBUzsegP5JQAGomUg+2Xto/5L7t22+Idl38dqcZ0D17ZmdX5KEEv2C8xKtAAAAAKiGWLuRfEKT5LW4j3XKSEKJtXkAlicBBaBGJJ/QVDGxiySUz667ouN+uwsAAAAAqinWbGLtpl2s8Ug+oe7i/3G2fVS6WU4SCsDyVk16AFTL3Pp1PR/z1NPHxzASICtOcCWf0GSPr74k+fVXvyX52IP3tVrwpKLPaohWPQAAAABMXlyET9dsUnkX7aGuds9ubH1ur9CcJqFEm574/w6M34Ye17L7udbNaElAocP7t7+752PuvOtuSSiQsbCwMNLjx4ntvU8sTT6JCZ3kE5rk0ZetTn7yhncmH9//N8lVbUkosZtm35p1/r9DH0b9ngTTQixBceIIyiGWoDhxVK5uVZqtVTbftMVSJKFc8+KpjmSrdK1eEgrDmrY4KlMkn3zoA7dNehj0IAEFoKA4WTh0+GjvBxaw68iB1oltu5jQpVnY0ARpLB069/Utm16XPPzY/Yvfs7sA+jOO9ySYBmIJihNHUA6xBMWJo3JpET69pjWW0qrMeUko111906SGRU1NaxwxXVZOegAALG/vuRPZm0919pWMxBPJJzRZtz6rMbHLJmMBAAAAMHpahDOtIgll59yWjvvSDXMAdFIBhQ4f2XVPcqxHex3td2CpmZmZxa/LLJ92+7HHlySf7FuzVi9VGqs9lpYrcWl3AXQ3qvckmDZiCYoTR1AOsQTFiaNyRJXmLMkn02WaY2nP7HxrbTJahafi69hIl1ZJgX5McxyV4c677u75GG16JksCCh0i+USCCQwmThY2b7pQjSTKp5Vx0hDlLNsvvIc4md125Q2Fjw1VlBdL3Upcxu4CiViw1Kjek2DaiCUoThxBOcQSFCeOypFXpTkqQkg+mR7THktposm1L5zuiIVYt3x01RoVy+nLtMdRUf1cw96wft0YRsJytOABqKBu5SxdcGcaxe6CqPzTLnYXRIUgAAAAAEarW5VmVR+YNq224fNbW5/btWLk5DNdngUwXSSgAFSQcpZwQTqxyyahxO4CSSgAAAAAo6NKM3SK///vyvz/Tys2x2eAaScBBaBi8spZRuUTySdMs267C6ISit0FAAAAAOVTpRnytdYqM3EQ8XLvE0vjBWDaSEABqJC85JOo+qB/JNhdAAAAADBOqjRDd7Fmv3NuS8d96VolwDSTgAJQgoWFhcWPYbUqOeQknyhnyTTpFUvddhfkLYjAtCrjPQkQS1AGcQTlEEtQnDganCrN5BFLnfbMzi9pGx7r/NqGsxxxRNOtmvQAAOouThIOHT5a6BjRQiSbGa2XKtOm31iK3QXXvHiqo/9wLIjExO6OuatGOUSovDLekwCxBGUQR1AOsQTFiaPBxRqLKs1kiaWl0rbh0XqnvUJzJKHsW7NOwhZLiCOmgQooABOmlyoMrtvugkjmAgAAAGA4sbbSvuknqNIM3WkbDtBJAgpACWZmZhY/BqWXKlzQbyyluwvic8rEDs4r8p4EXCCWoDhxBOUQS1CcOOpPJJ9kN8qp0kw7sZSvW9vwqIwCWeKIptOCB6CgOEnYvOlC+ckon9Zv7768Xqo757ZIPmEqDRpL6cSufWGklYRy5ICFEaZWkfck4AKxBMWJIyiHWILixFF/0o09Wao0kxJLy8trG57GlTgiJY6YBiqgAExIt16qd8xdNaERQf1EslYkbbWLuIr4AgAAAKA/saEnW1VWlWYYTKztRyJKu2gbbq0SmCYSUAAmQC9VKM+e2flW/LSLiV3EGQAAAADLU6UZyhNJKNm1yrgWEOuVANNAAgrABOSVs5R8AsNpteKZ39r6nErLW2Z37gAAAABwQWzgUaUZypO3VhmiCoq1SmAaSEABGLPYUZBXzhIYXmtil+mlGnF277l4AwAAAGCpSD7Ze6hz7STWWGyUg2Iijt6ViaPWhrkjSzemAjSNBBSAMcrbURA9IZWzhOIijqI8bLuY2OmxCgAAALDUjpw1k+wGH2A4kYSSXauMawPWKoGmk4ACMCZxITxvR4FJHZSnW4/VSP4CAAAA4Lyo0pzdKBdVmm2Ug/LsmZ1fslZ564mj1iqBRpOAAjAmeeX1JJ9A+fJ6rO46ekCPVQAAAIBElWYYl9YG1PmlbcNjrRKgqSSgAIxBlNXLTuoi+cSkDsrXrcfqvU/s7/IMAAAAgOmgSjOMV158SUIBmkwCCsCIxY6CaAHSLsruxa4CYDTyeqya2AEAAADTTpVmGL+4FpBdq9SKB2gqCSgAI5a94B0XxrdlqjMA5btj7qoliV4xsYsPAAAAgGmTV6V52+YbVGmGMdgzO69tODAVJKAAlGBhYWHxo93eJ/YvOYG0owC66xZLw4oklOzELhZbTOxosrLjCKaVWILixBGUQyxBceKoe5VmyScMQiwNr1vb8LyqRDSbOKLpVk16AAB1FycJhw4vragQk7rsjoIos2dSB/m6xVIR6cTu4cfuX7wvJnb3PrE/ue7qm0r9t6AKRhFHMI3EEhQnjqAcYgmKE0fn10L2HtrfcZ8qzQxKLBWXtg1vTwaLawixYS420tF84ohpoAIKwAjkTepiR4GTSBi/mNhlKw+1dhcctbsAAAAAaL68CguqNMNkRCueuFbQLlqGx4ZWgCZQAYUOc+vX9XzMU08fH8NIoF5mZmYWv44M1rxJ3U7JJ9BTNpbKsnt2Y3LzqeOtyVwqvt63Zl3re9Ako4ojmDZiCYoTR1AOsQTFTXMcRWUFVZopyzTHUllam+Xmty6p2Byb5VRsng7iqJgNPa5l93Otm9GSgEKH929/d8/H3HnX3ZJQoE2cLGzedOEC9r9+6P4lk7ptm28wqYMesrEUpQjLPAGPCkSxkyAmdKlYhIlJn/ikKUYdRzAtxBIUJ46gHGIJipvmOIp1kPZWH0GVZoY1zbFUtrRic3uF5jQJRXWiZhNHxUTyyYc+cNukh0EPWvAAlOjtx59MPvjkox33xaTOxW2YvJjYvSvT21grHgAAAKCp8tY8tmXWRoDJiKrM2crMWvEATSABBaBEv/H3X+y4HRe8TeqgOtLdBe0koQAAAABNs/eJ/R1VYENUaQaqI6oRxXplu1inzMYuQJ1owUOHj+y6JznWo72O9juQ72MP3pdsOf18x33K5UH1xM6Ca1481VGCNnYXxGRPCVoAAACg7lpVFDItwnfObVGlGSomrdj88GP3L97X2ix35ICNrdDFnXfd3fMx2vRMlgQUOkTyiQQTGNxPHn6s1X6nnUkdVNee2fnklpPPdCzGxOLMvjXrxC0AAABQW9G+I1vpNVqE23QD1RRJKHEtoX2zXKxZ3n7scXELGf1cw96wft0YRsJytOABKOjaF08lv/GNztY7JnUwnIWFhcWPUWq14pnXiodmGlccQdOJJShOHEE5xBIUN01xtOPY40vuy66BwLCmKZbGKTbLxTWFdq1KRief6fIM6kwc0XQqoAAU9B8P/f2S+3ZKPoGBxQn3ocNHx/bvtZJQNm7tSDqJJBS7C6izcccRNJVYguLEEZRDLEFx0xRHsaaRbb2zbfMNrTUQKGqaYmnc0s1yS1rxHD2QXHf1TRMcGWUTR0wDFVAACug2qdPCA+ph9+zG1kc7uwsAAACAuomL1e0tPEKseVinhHpIN8u1U7EZqCMJKABDigvU2UndvovXmdRBATMzM4sf4xLVTtp3ApnYUXeTiCNoIrEExYkjKIdYguKmIY52HVm6lpG9mA1FTUMsTZLNctNBHNF0ElAAhrT30P6O2wdXX5K89y3bnDTAkCJ2Nm/auPgxrliK5JNsy520FQ/UzaTiCJpGLEFx4gjKIZaguGmIo9YF6pwqzVCmaYilKshulguxWS7WK6k/ccQ0kIACMIS9T+xfct+vv+YtExgJUIZuuwtM7AAAAIAqy6vkum/NWlWaoaYi+eRdV3YmkNksB9SJBBSAAeXtKPjw1a9LPrvuigmNCChDXhWUvPK1AAAAAFWR23pnXusdqLNIQj8afcMAACAASURBVNk5t6XjvrguIQkFqAMJKAADiF6LeTsK/terr5/QiICyxMQu2xs5ks1icgcAAABQNd1a72TbdwD1s2d2vnXtoV0r5k8+0+UZANUgAQVgADtyMox/afNrJzASYBSiDU92Yhc7C7TiAQAAAKpE6x1ottZmuUw1o7y4B6gaCSgAfYoTOzsKoPlyJ3Za8QAAAAAVovUONF9exWZJKEDVSUAB6EOUtcu24bCjAJpJKx4AAACgymKtMrtRLtYybJSD5omKzfHRrvUaoBUPUFESUAD6sPfQ/o7bMZnbduUNExoNMGpa8QAAAABVlV2rjDWM7AVqoDnumLuqI8FMFRSgyiSgAPSw94n9S+7LVkcAmievFU8koQAAAABMSt5a5c65qyYwEmBctOIB6kQCCsAy8spZ7pzbovUOTIG8iV204VHeEgAAAJgEa5UwvSLOI97bWasEqkgCCsAyshnEUc7yDjsKYGrExC7bisfOAgAAAGASrFXCdNszO2+tEqg8CSgjsm52Nrnxda9JvusNr299XrN6de8n9WHD+nUdx5297NJSjgssFa02ooxdu27lLBcWFhY/gOFVLZZaVVByWvGY2FFlVYsjqCuxBMWJIyiHWILimhBHsRbR71oljEoTYqnOrFU2gzii6VZNegBNE4kmP/EjP5i85U03dty/sHAm2fc3n0/+5C/+Kjl79uzAx12/bm3ycz/+I8mrX3lNx/1nzpxNvvTg/uSPPvHnyfMnTxUaO3BBnLTtOHaw477dsxtzy1nGScKhw0fHNTRorKrGUkzsorxl+2tClLfcfdm8ErdUTlXjCOpGLEFx4gjKIZaguCbEUbTYiLWIdlrvMG5NiKUmyFurbLXnOvfhNaH6xBHTQAWUEs3MzCTvu/VnW8knkRjy4Ne+nnzu/i8njzx68Nz3Vibbvu/tya0/82MDHzeqnPzaL//XreSTOO6X9z/UOu7X/v7hZOXKFa1/730//+5k9UUvG8FPBdNp15GlGcPbN27NeSQwDZS3BAAAACZlx7HHO27HBWitd2B6xVplvA6kVEEBqkQFlBL9wM3vTK7acmVy+vR3kt/e/XvJowefWPze277rjcnP/tgPJ298/Wtb7XO+9OBX+z7uf/VD21pJKCdPnkru/k//Z/KPhw4vfu91W1+Z/OJ7fiZ5xcvnk3d9/zuTT/zFvlJ/JphGsZvg5lPPdNy3bfMNyz4nEtBSyqbB8KoaS2l5y4cfu3/xvnRiJzmNqqlqHEHdiCUoThxBOcQSFFfnOIo24dm1SmsRTEqdY6lJWmuV514H9h7av3hfrFW2qjbPbpzgyOiHOKLpVEApycqVK5Ob3/G21tef3PepjuST8PkvPdCqWhK2fd87+j7uihUrkjff+PrW13s//dmO5JPw0IFHki/83QOtryPJBSgumykcVQ+WK10XJwubN21c/Gg/eQD6V/VYSstbtkvLW0JVVD2OoC7EEhQnjqAcYgmKq3McxZpDv23CYdTqHEtNFK8D2YrNkbAWiShUlzhiGkhAKcnrX7M1Wb36otbXn//iA7mP+cwXvtT6HNVKNm28vK/jXvSyVa32PeFbh5/Mfcw/fPN8+b21s5cNNGZgqbwydVH1ACAobwkAAACMS17rHdVPgFT22kWsVd6eed0AGDcJKCXZ+qprWp+fevp48tzJk7mPefyJbyULC2daX1/9iiv7Ou53XngxOXPmbOvrDRvW5T5m4xUbWp+j9Q8wvNhRECXq2kW1g/aLzcB0y1voMbEDAAAAyqb1DtBL3lplXONQsRmYpFWTHkBTzK2bbX3+x0Pf6vqYs2fPJk89/XSy8fINyauuvSr5wt892PO48Zwvf+Wh5LveeH1yyzu/J/nSA19Nnn3u+cXvb1i/Lvknb72p9XW0+Slqbn1+ksswjp94tuN2ex+zQUtK9fNcx3f8osfP7ig4uPqS5N9fcW0yyL8WFYtW5fwbTfj9OL7jj/r4ETtp1a/0dhXH/6nL5lrlbtsT1uLrT1+2IfmrTNnLKo7f8Zt9/Lw4KvP4g3B8x6/z8bOxs1wsDTu2Ov9+HH88x1/ueXUY/3LvScMeP9sfvW5/37qPv2rHL3Lsfo5f9N8oa/xpLJ09myRnzpxZ9vj9/ozdjPL3389zp3n8g/7/rPv4Bz1++3OHeX/sNU+q2vjjMVedfn5J651Yj4iP7BHq+vo2yPGn+fUh+/xqjP98PPUzT5q217dJjD9eF/adWNuRsBYVm1/zyrdW4vWtrNeebs8vK776fX0e5tjtY8u+J61YkSx5zDD/xrjG3+txReJrQ0nXqMu81s1wJKCU5GUve1nr86lTy/dWe/Lbx1oJKC9b1f+v/o/+9JPJ/PzlrdY9//a2X0g++8W/S46cO84rNm1M3v6WNycXX7wmeeTRg8mf3vvXhX6G8P7t7y58jNTv3PPx5JmXklDiReTQ4fMX6uLFJ/qa9auf5zq+4xc9/i89dP+SHQW//pq3JJvXXdHz+EeefOr88VeuTK7YMPfS/Wc6HlP334/jO/44jh8n3mkMpc89+MThSo7/o+suTd714H3JltPnk0JbrXiOHEj+yVt/qJTjj3r8jt/c42fj6PzjzvT13CqMfxqPf9G5ecR8TnvOIsf/zndeOHd+8u2xjH8Ux6/C+JPk7OJXcY738k1X5MbSsMev8u+/asdfs2b1kte1osc/eepU8u2nnh7L+Iscf/262eTiNWtGdvxRj3/2sktz35OKHP/Y088kzz3//FjGP4rj1338VTv+pZdcPFA76nhe++J72eOPNbB0HazM8afndxE/Tz51bNnj9zOGbkb9++/nuc8993xy7PgzYxn/mtWrk7n1a5c8pp/jd3tu+/jn1q1NLr30kr6P38/P3j6G+Ss2DHyBp9f4+4mRssZf5O/bbfzLHb/XPKmfc4Oyxv+yl63KPbfJPuaeI48tecy733xLsjnn+OMcfz/H7/YzFjl+kfO3eO0c5PW/SHzF3CFvftfPHKev4/fz9+0yhtLGvzK7frf8PGng+V2B8Xf72xX5/Y9z/MP+/4mrkv/u8g3Jp//2zxbvi7XK//H0k8l/t/qKkZ7/tD839Dp+t8f0c/w6jr/9vfX8ut3MUGvgVRj/KH7/7ce/4tz/4X/3q7/c93OpNi14SrJl88tbn8+cPbvs4158aafCqgESUKLiyW/+xz3Jw998vDU5+8Fbvjd5z0/88+S/+N63t5JPHnzoG8lHfvee5NTp5ZNfgHxbcnYU/MH81clneySftIs3yYUzC60T7h4vA0AXETvnL0qc/0hGHEu9kkaXc3DNJcmHr76+4754Lfk3j32t6LD6VmT8NE8s4odsHBV5T3ru+fy2kpQrLq6Xre7zgkqM/+xL53cvneM5v5uci17a7FGmF154sfRjjkJdxtlNOj8q4z0p1b5TsI7qPn4mIz2/i+on6QJ9Uy2c6S/ZswxF4rHbc9vHP+jPUpefvZtxjn8YveZJZ/pMNC7DzMreiQ3vfeZI8vbjT3bc9zNv+L6ujx/n+PvRz884qKr9jN2s7Pr6ML7X725jKPLc9vG3n+P1c3436M9eZPxljaGs545TrFXGNY12P3X4seSaF06NbQyRQJOnPUmp22O66WcjSL+bRXrpZ2yDjr9dOs7se1JZ44cqMfMtyYpsjaRuzp556fH9H3vrK69OPvhr70uuu/aq5OTJU8kXv/yV5HP3fzn58v6HkhdfWEje8LpXJ//t+3+xVVkFGNyHD3xpyX1R/aRfaYbnocNPtjLqz1R80g1VFbETMZR+jHoBq+iE9g82XZ07sdty6vkuzyjXKCbk1Fc6Wc3GUZH3pCKTaqi7eA86f353/hzP+d3kjOK1qC4LfN954YVJD6GQk6dOl/aelIod1XVW9/FXTdUSsgcdT7+PT8/vjn77qY5donmiMsS4FElW7vbcNKl6HEY9/kF/lrr87N2Mc/zDJCv3mieNIim8m17jj6oFv3Xwqx33xSa55TbKjXP8/RhFQnmRn3GcSb3d/q1RJFUPOoYiz03Hf34d/MmBzu8G/dlH8fcq8vsf9LlF1jO7PbffxMHYLHdw9YXqW7FZ7ncOf2Po8Qyqn/EP+vvp52cvK7Gyn7EV+fum48y+J0ETrVj5qnfYy1WC2//t+5P1a9e2EkM+9sef6Pq4n/+XP9lKGHngq19P/tPv/2HP414+t77Vdmf16ouSbzzyaLL73HOeP3khY3Hd7Gzyi//qp1vteaLM4f/0mx9NTn+n/0Wq6Kf1oQ/ctnj7I7vuSY49fbzv5y/n+EslP1PtE+RBStj1+1zHd/xhjn/LqWeSTz7+QMd9v/Ty1ya7Zwcrc9ZrbHX9/Ti+4zf5+NmF22GOHz2ZH37s/o77ou/qts039D22SY5/kH/D8at9/EGP3c/x+/0/Nuzx+31M04+/3POm9fWh7uN3/HKP7/XN8R3f8cs6/qjfX7x/OX77Y0bx/jXq43t/rMbx9z6xf0mb8Ne88q3JN1ctn4BRlfFX8fiDvj6POn6H+Tccv7/jj2J+3e9zq3L89zz9rWTX0QMd923fuHXxekfVx9+04/f7vDqMf9THj+vVZWq/9n3nXXcnT5V07Zv+2HpRkm8debKVgNIr027VS99/oc+dTLe8822t5JPITM8mn4TjJ04k//s9H08++G/e1+ot+s633ZT85ac+N9wPkSSt5JNxBGH2Ravs5zq+4/f73I8e+nrH7X1r1ia7LtkQDxzouO1vqr3GV6ffj+M7/riPv1wsVXH8sQAUk7j2id33PnusNdnLJrJVcfyO35zjd5vo9ftvTnr803z8Mv9GRZ7r+EsNE0uDHH/Qx0zr8Yscu9/n1/n3U/Xj93OcKo/f8R2/KsdP35Pic/qcOo1/Go8/6vcv74+DH7/stbtRjP/WE0eXJJ/EmsPDK1YNtFZZxd9/nY4vvoZfuyvj+MMed5Dn1fn33+sxsR5564kjHa8ltx97fHGdsurjb/Lx+127q+r4R338Mq9Nl53MwuDU1S7Jd16qOrL6oouWfdymjedL5T13sr++a9dec1Xr80PfeHhJ8knq6ePPJF8/9/3W46++qq/jAudPvKKsZbudc4PHUJwsbN60cfFjmCx5oL6xFBO4SF5rl/f6AuNQ1ziCqhFLUJw4gnKIJSiuLnGUrVoQaw2DVGmGUatLLE277fNbO27HGmX29YXJEUdMAwkoJTny5LdbnzdefnnXx6xYsaJVJSU8+vg/9nXcK9avb33u1Rf2uZPne3euGWMvQaizm08+k+w4drDjvp1zW5J9F6/t8gyA7nIndkdM7AAAAIDeovVO1jAb5QCiYnNc62gX10PiA2AcJKCU5JHHzl/Inr/i8uTSiy/Ofcy1V29JVq5c0fr6iW8d7uu4R558svX5kosvWfZx6b956jt2W0M/dhx7vON2nJTdYVIHDCltxdMuSl1G+VwAAACAbloXhjOtd2yUA4rYMzvfWq9MqYICjJMElJI89I1/SJ57/mQrweTtb31z7mPe+d3n7//HJw4nh49+u6/jfv0fvtn6/MYbXpusm53NfUz0snrtq69rff3NPiurwDTr1k8VoAiteAAAAIBB5bXesVEOKCJvs1ysUdosB4yDBJSSnD17NrnvM19off3Ptt2c3Pi613R8//vf8dbkLW+6sfX1n/3Vp5Y8/x3f/ebk53/ux1sfqy+60EbnU5/72+TkyVPJzMzK5Bf/1U8nl8+t73he3P7F9/x06/vPPvd88pkv/F3ZPxo0Tt6kzo4CoAx5rXhuz1RcAgAAAAixTpnduKL1DlCGuOZhsxwwCasmPYAm+fO//pvk1de9Mrnu2quS7f/yJ5KHv/l4cuz408nmTZuSV7x8vvWYz93/5eQrD/39kudeuWk+ecP1r219vWrmT5PTyQutr5858Vzyf3z8j5Of/7mfbB3jv//V/yb5+sNRbeX55NJLLklee92rWlVXTp/+TvK7v/+HyanT3jhgOXll5rIXjAGGle4uaH+tiZ0Fuy+bl+gGAAAALIrWO9lqBFrvAGWKax8PP3b/4u10s5yK8MAoqYBSoqiC8tE9v5/89Wf/NllYONNKRPnuN72hlTgSCSKfuHdf8rE//sTAx33owCPJh3/7d899/odWssn1r76uddzrX2q78+BD30h+47d2JY88aoc1LKfbpK69FyJAUXm7C/RYBQAAANpl1wpijVLrHaBMea144hpJXCsBGBUVUEr2wosvJn/8iT9vfQzi//6TT7Y+uvnW0SeTj+75WNHhwVTbkWmDoZ8qMAqtiV2X3QVecwAAAIC8NhgqEgCjkG6Wu/nUhaSTSIC77uqbJjgqoMlUQAGmQkzq2k+wgn6qwKhEEsru2Y0d98XuAj1WAQAAgB3HDnbcjjUErXeAUUg3y7VLN8sBjIIEFKDx4mTKpA4Yt2y1ExM7AAAAIK9Nr+onwCjZLAeMkwQUoPF2HTGpA8Yvr8dq9FfVYxUAAACmU6wJxEXfdtYpgXGIzXKxXpmK5JO8aycARUlAARqtdbE303pnFJO6hYWFxQ9geE2LpbTHaup8RSZVUBitpsURTIpYguLEEZRDLEFxVYmj7JpArBlkqxJAlVUllhhcJJ9kKzbHtZNsUhyjJ45oulWTHgDAKGVLWo5iUhcnCYcOO0mDopoYSzGx23luYrf30P7F+2JiF8lx2oAxCk2MI5gEsQTFiSMoh1iC4qoSR3GRN7tRbmfmYjBUWVViieHFtZFbTxzpeC2KluES4cZHHDENVEABGiuST7I9DE3qgHHLVkEJef2eAQAAgOa6Paf6ic0pwLhtn++sEN9qxWOtEiiRBBSgkfL6qe6c2zKySd3MzMziBzC8psZS3sQuu/AEZWlqHMG4iSUoThxBOcQSFDfpOIo1ABvlaIJJxxLFna/YvKXjvrieEh+Mhzii6bTgARop2081r79hWeIkYfOmCyXqonya3n0wuCbHUrwGnS9xeSExLr7eMzvf+h6UpclxBOMklqA4cQTlEEtQXBXiaMexgx23Y41A9RPqpgqxRDliTTLWJtPEuLQKynVX3zThkTWfOGIaqIACNE5eP9XtG7d2eTTAeGST4FRBAQAAgObLa21hrRKYpNgQl30dirXKbFV5gGFIQAEaJzup008VqIK8iZ3ylgAAANBceW3CJZ8AVRDXTKIaU7u8dmEAg5KAAjTK3if2L7lv+7xJHVANMbGLpLhUTOiyLcMAAACAZshrE5694AswKSo2A6MgAQVojFYlgZzWOzGxA6iCeD3amZnYxeuWKigAAADQLN3WKgGqIq9ic1RtslYJFCEBBWiM7I6CqDIwrh0FCwsLix/A8KYhlrJVUEJeP2gY1jTEEYyDWILixBGUQyxBcZOII23CaSLvSc1jrXL8xBFNt2rSA6Ba5tav6/mYp54+PoaRwGBaWbmZHQXZKgOjEicJhw4f7f1AYFnTFEvRGuzhx+5fvJ2Wt8yWvYRBTVMcwSiJJShOHEE5xBIUN4k4irXKmOu3G9daJYyK96RmalVByVmrjCookubKJ46K29DjWnY/17oZLQkodHj/9nf3fMydd90tCYXKufXEkY7bUfnEyRFQVWnP51iQSsXXe2bntQ0DAACAmstWD7BWCVRZ3lplvI5dd/VNExwVLBXJJx/6wG2THgY9aMED1F5e9ZNxVxGYmZlZ/ACGN02xlH2dSqugQFHTFEcwSmIJihNHUA6xBMWNM47yWleoeEpTeE9qrry1yvaEFMojjmg6FVCA2stesI1M3XFWEIiThM2bNi7ejvJpevfB4KYtllrlLTdu7ViYitKWyltSxLTFEYyKWILixBGUQyxBceOMo7wLtjvntqh2SiN4T2q2vCooce0l7qM84ohpIAGFDh/ZdU9yrEd7He13qJK8fqp2FAB1EYkm+9asXaziFK9nO85N7LZdfMOERwYAAAAMateRzuoncUHXWiVQF/F61Z6AklZs9jpGldx51909H6NNz2RJQKFDJJ9IMKFOJl39BKCIeL3aeW4Ct/fQ/sX7IhlFFRQAAACol1ZV00yb8Kh8ClAX59cqtyQ7jh1cvC8SUiSgUBX9XMPesH7dGEbCclZOegAAw1L9BGiCtApKu7x+0QAAAEB17chslIu5vs0lQN3smZ3vuB3XYKxVAoOQgALUluonQFNsn+/cEZXXMxoAAACoppjDZ6uf7LRRDqihuMaSrd4UFZ6ym4EBupGAAtRSJJ9kT3iUtATqKiZ2kUTXLptkBwAAAFRT3kY51U+AuorXr/bNvnEtxlol0C8JKEAttfcgDNGXEKDOsi3ElLcEAACA6svbKKdNOFBnkXySfR2LKijxAdCLBBSgdvIybU3qgLrrVt7SxA4AAACqKRJP8jbKaRMO1F1UQdm35kIlp1bL8GePTHBEQF1IQAFqJzup03oHaIq8id0O5S0BAACgknYd6axcmlc1AKCOzrcMn++479YTR22WA3qSgALUSl47iuipCtAEMbHbmS1veUoVFAAAAKiaVtXSU53zdRvlgCaJay/tm+WCzXJALxJQgNpolXg7cbTjPpM6oGmyVVBCXvIdAAAAMDnZi7Axl485PUCT2CwHDEoCClAbt2cmdedLwFWj+snCwsLiBzA8sXTe9vnO5Lq8BDzoRhxBOcQSFCeOoBxiCYorO45abSgy1U+yF2mhibwnTZ+8zXKqoBQjjmi6VZMeAEA/8i6+VqWfapwkHDrswjAUJZYuSBPs2l/3IgmvKkl3VJc4gnKIJShOHEE5xBIUN4o4ym6Ua7WpUP2EhvOeNL1is9zDj92/eDutguJ1b3DiiGmgAgpQC7uOdLafqFL1E4BRyCbZRSKeVjwAAAAwWZF8EnP0dlXZKAcwCnE9RstwoF8SUIDKi0zabEnL7Ru3dnn0ZMzMzCx+AMMTSxfExC77Wtd6PdRjlR7EEZRDLEFx4gjKIZaguLLiKBJPdhw72HHfzrktrTk8TAPvSdNLy/DyiCOaTgseoPKy/QQj07ZKpd3iJGHzpgvVWKJ8mt59MDixtFTaYzVNwju/0PV4su3iGyY8MqpKHEE5xBIUJ46gHGIJiiszjrJVmoPqJ0wL70nTTcvwcogjpoEKKECl5VU/2WlSB0yJmNhlX/PSHqsAAADA+NShSjPAKOW1DFcFBciSgAJUWtWrnwCMWloFpZ0eqwAAADBeeeuUdv4D0yStgtLu9sxrI4AEFKCyVD8BOE+PVQAAAJicmINbpwTIr4JisxzQTgIKUFmqnwCcZ3cBAAAATE52Dh5zdOuUwDSKdcps+7HYTByJKABBAgpQSXXbVbCwsLD4AQxPLHVndwH9EkdQDrEExYkjKIdYguKKxFEkn2QvrGbn6DAtvCcRIgEvElFS8Rpps1z/xBFNt2rSAwDIc+uJIx23q7yrIE4SDh3WCgOKEkvLS3cXtCedxO4CaCeOoBxiCYoTR1AOsQTFFY2jHccOdtyOdcr2C68wLbwnkYrXwEjEy65TRiKK18fliSOmgQooQOXkVT/Zfdn8hEYDUB15uwtUQQEAAIDRyJtzZ1tPAEwjVVCAbiSgAJVTx56qMzMzix/A8MTS8tLdBe1UQSFLHEE5xBIUJ46gHGIJihsmjuJiamyUayf5hGnnPYlUt3VKa5W9iSOaTgseoFJiUle3nqpxkrB508bF21E+Te8+GJxY6k82IS/dXVD110rGQxxBOcQSFCeOoBxiCYobNo6ym+T2rVnb2igH08p7ElmxThmvjWlF+1in3HHutXPbxTdMeGTVJY6YBhJQ6DC3fl3Pxzz19PExjIRplVf9RM9AgAviNTF2XLWXAY7kPQkoAAAAUJ5s9ZPds1qEA7SLdcqdc1clew/tX7wvklGiCkrVq9pTXxt6XMvu51o3oyUBhQ7v3/7uno+58667JaEwEnWsfgIwCXlVUOI11E4sAAAAKK5900eIi6zm3ABLZaugBFVQGJVIPvnQB26b9DDoYeWkBwCQUv0EoD9pFZR22ddQAAAAYDjZ6ic2yQF0tzPzGplWQQGmkwQUoBLiwqnqJwD961YFBQAAABie6icAg0mroLTLvpYC00MLHjp8ZNc9ybEe7XW032EUdhw72HF759wW1U8AlpEugLUnnUQyn0UxAAAAGJ7qJwCD2z6/NXn4sfsXb2sZzqjcedfdPR+jTc9kSUChQySfSDBh3PLaRpjYAfQWr5XtC2MmdgAAADC8vB375tgAvdksxzj0cw17w/p1YxgJy9GCB5i4vOonAPSWVwY4L6kPAAAA6C1b/WT7xq0TGglA/WQ3FmsZDtNJAgowUXm7ClQ/AeifiR0AAAAUl7ehw859gP7ZLAcECSjARNlVAFCMiR0AAAAUl63SbJ0SYHB5m+WsVcJ0kYACTEy2+kneRVQAelMFBQAAAIan+glAOeI6z865LR33WaeE6SIBBZiIvIujdW69s7CwsPgBDE8sDUcVFNqJIyiHWILixBGUQyxBcb3iKFv9JHvxFDjPexL92DM733E7rgdlNyRPM3FE062a9ACA6ZS9MFrn6idxknDosAxeKEosFRNJfO2JfTGxu/nkM8m+i9dOcFSMmziCcoglKE4cQTnEEhTXK47ydubXeaMcjIr3JPoV13uijVl70kmsU8Z6ZXxvmokjpoEKKMDYxYlGdmKnpypAMXmJfHYWAAAAwPKyG+VUPwEoLjbFtSebRPKJis0wHSSgAGO3I3OSsW/N2trv0J+ZmVn8AIYnlorJ7tBKq6AwXcQRlEMsQXHiCMohlqC4bnEUm+Ri7txO9RPoznsS/Yrkk+zraaxTWqsURzSfFjzAWLVOME51nmDsrPmkLk4SNm+6UHUgyqfp3QeDE0vFpVVQ2qtMRRWU666+aYKjYpzEEZRDLEFx4gjKIZaguOXiSPUT6J/3JAYVG49jA3J6TSgS/m599kjtNyQXIY6YBiqgAGPVxOonAFWiCgoAAAD0llf9ZM/s/IRGA9A8sVkuuwE5XnutQRkTfwAAIABJREFUVUKzSUABxqaJ1U8AqiYmdpHc1y6qoAAAAAAXZKufREXRmFMDUJ60Ckq77EZloFkkoABjo/oJwHhsn9/acVsVFAAAALggr/pJtqIoAOXIbkSOjcrWKqG5JKAAY6H6CcD45FVBsbMAAAAAzlP9BGB88qqgqNgMzSUBBRiL7IXPmNQ1qfrJwsLC4gcwPLFUnmwVFDsLpoc4gnKIJShOHEE5xBIU1x5Ht544ovoJDMl7EsNSsfkCcUTTrZr0AIDmi5KW2eonuy+bn9BoyhcnCYcOH530MKD2xFK50ioo7a+/kQy47eIbJjgqRk0cQTnEEhQnjqAcYgmKy8bRB598tOP7qp9Af7wnUUTeWmVUQbnu6psmOKrxE0dMAxVQgJHLK2nZpOonAFWlvyoAAABcEBvlVD8BmIy8Kijxugw0iwQUYKSmZVI3MzOz+AEMTyyVK6+/arYlGs0jjqAcYgmKE0dQDrEExaUxdOuznRc6VT+BwXhPooh4vY3X3XbZDczTQBzRdFrwACOVV/2kaZO6OEnYvOnCSVOUT9O7DwYnlkYjqqDsPbR/8XZaBUUlqmYSR1AOsQTFiSMoh1iC4tI4+snDj52bDx/v+F4TN8rBqHhPogzxutte9SStgpJNTGkqccQ0UAEFGJlpqX4CUGWqoAAAAECS/NSRRztuN3GjHEDVqYICzScBBRiZaah+AlAHOzPJf2kVFAAAAJgGUf3k7cef7Lhv92XzExoNwHTLblSOjcy7jh6Y0GiAsklAAUZC9ROA6lAFBQAAgGmWV/1Ea1qAyYiNyts3bu24LzbLZa8pAfUkAQUYiWy26s65LaqfAEyQKigAAABMo1vOzX9VPwGolkgCbL9mFMknWvFAM6ya9AColrn163o+5qmnj49hJNRZ3kmC6icAk5VWQYnEk1RUQdl28Q0THBUAAACM1gePfrPjtuonAJMXySdx3ah9M3NslosPr9EsZ0OPa9n9XOtmtCSg0OH929/d8zF33nW3JBSWtePYwY7bUf0EgMmLKih7D+1fvH3Ni6dN6gAAAGis1sXMU53VP1U/AaiG7Ia5qIJy67NHrFXSVSSffOgDt016GPSgBQ9QqmzrnaD6CUA1pJO6VDqpAwAAgCbakanU/AfzVyefumxuQqMBoF1UQdk925kUmFZBAepLAgpQqltPHO24vX3j1gmNBIA8OzNJgSZ1AAAANFFe9ZOPb7pmQqMBIE/ehrls8iBQL1rw0OEju+5JjvVor6P9Dt3kVT+JnqoAVIfSlgAAAEyD7AXMz667ovWRnDra5RkAjFtUQcm2DY91S23D6ebOu+7u+RhteiZLAgodIvlEggnDaF3AVP0EoBaitGX7LrC0CopJHQAAAE2QV/3kw1dfP6HRALCc7Ia5EEmE2y6+YYKjoor6uYa9Yf26MYyE5WjBA5Ti9syOgvO9+6an+snCwsLiBzA8sTQeeaUtowoKzSCOoBxiCYoTR1AOsQSDy1Y/+czay5NPXzYnjqAg70mMypK24aea2zZcHNF0KqAAheVVP7kjc7LQZHGScOiw0p1QlFgan/NJgkuroMTreXyP+hJHUA6xBMWJIyiHWILB5VU/+eClLxdLUJD3JEZpWqqgiCOmgQooQGG7jhzouB0nCdNU/QSgjvKqoGSrWQEAAEDdZCt8xtxXy1mA6ts+v7XjdpOroECTSUABCsnbUZAtlTYNZmZmFj+A4Yml8UmroLRLq6BQb+IIyiGWoDhxBOUQS9C/3ErNG64SR1ASscQoxXpl+4a5kG2p1gTiiKbTggcoJPvmP407CuIkYfOmCxVfonya3n0wOLE0ftnSlmkVlO0bt/Z4JlUljqAcYgmKE0dQDrEEg8lW9ow5732XzokjKIH3JMYhNjjvPbR/8fY1L55ubZprynUnccQ0UAEFGJrqJwD1pgoKAAAATZFX/cRaJUC95LUNz7ZWA6pNAgowNNVPAOovXrcjESWVVkEBAACAOsnOZVutHKxVAtRO3oY5oD4koABDUf0EoBliQe6OzOu3SR0AAAB1k61+kp3rAlAPNsxBvUlAAYai+glAc+RN6nYdPTDBEQEAAED/snPY8y1nN05oNAAUkbdhLptkCFSXBBRgYPFGr/pJp4WFhcUPYHhiaTJUQWkWcQTlEEtQnDiCcogl6K1X9RNxBOUQS4xLdsNzbJhrShKKOKLpVk16AED93HriSMft2E0wzdVP4iTh0OFmnPjAJImlycqb1MUOsu0bt05oRAxDHEE5xBIUJ46gHGIJeutV/UQcQTnEEuOUvpa3J51EG566V7cSR0wDFVCAgeRVP9l92fyERgNAWWJSl002UQUFAACAqutV/QSAesq+nseGOeuVUH0SUICBRIZpu2mvfpKamZlZ/ACGJ5Ymq8mlLaeJOIJyiCUoThxBOcQSdJetfhLydseLIyiHWGKcYsPcvjWd65U7Mteo6kgc0XRa8AB9i4uQcTGynR0F508WNm+6MLGN8ml698HgxNLkpVVQ2hfwmlDacpqIIyiHWILixBGUQyzB8rKbJvLayIojKIdYYhJ2zl2V7D20f/F2VOiPKih13RgtjpgGKqAAfcurfhIXKwFoDlVQAAAAqIPsWmWwgQKgWWKtMlsF5dZnj0xoNEA/JKCMyLrZ2eTG170m+a43vL71ec3qci7Sr1ixInnNdde2jvumG1+XXLPlylKOC72ofgIwHdIqKO3yFvUAAABgknYcO9hxO6/6CQD1tzNzLSoqoGSvVwHVoQVPySLR5Cd+5AeTt7zpxo77FxbOJPv+5vPJn/zFXyVnz54d6tjf/463Jj90y/cmF1+8puP+o99+Kvn4//OfkwOPPDr0uKEX1U8Apke3Kih2kgEAAFAFqp8ATI9HX7a6VQUl2u+EWKuM9wGJh1BNKqCUKPp2ve/Wn20ln5w5czZ58GtfTz53/5eTRx49eO57K5Nt3/f25Naf+bGhjv0zP/pfJj/6z/5pK/nk4BPfSj5//wPJF7/8leTkyVPJxss3JL/83p9Ntr7ympJ/Ijgv3siz2aTe2AGaKxIMswt3qqAAAABQFdlWsTvntkxoJACM2vm1yvmO+6IKClBNKqCU6Adufmdy1ZYrk9Onv5P89u7fSx49+MTi9972XW9MfvbHfjh54+tf22qf86UHv9r3cb/nLW9KvuemN7W+/sM/+WTyqc99cfF7l116SXLbz787efn8Fa0klX//4d8q7weCl2TLWZrQATRftFlrX9BTBQUAAIAq0CocYPqo2Az1oQJKSVauXJnc/I63tb7+5L5PdSSfhM9/6YFWNZSw7fve0fdxV6xYkfzgLd/b+vrTn/tiR/JJePa555OP/7//ufX15XPrk62vvHronwHy5O14N6EDaD5VUAAAAKii7NzUZjmA5ou1yuzrvbVKqCYJKCV5/Wu2JqtXX9T6+vNffCD3MZ/5wpdan1/x8vlk08bL+zruq191TTK3bm2ysHAm+eS+T+c+5pFHH0/+5vP3t6qjPHXs+BCjh+6y5Sy13gGYHtmEw3RnAQAAAEyC6icA02tPpg1PvB9oxQPVIwGlJFtfdU3r81NPH0+eO3ky9zGPP/GtViJJuPoVV/Z13Ndtva71+RuPfDM58exzXR/3B//fn7Wqo8S/D2XJm9ApZwYwPVRBAQAAoEqyc1JrlQDTI2+t8v9n796D5LrOw8BfYPAkMQAGBAYEBRCUCD2pl2VJEbWWESOyYq2fsqRElhTNChWX19KmstEm+SOrJQpcprYqVUvXVq1YLjvhZrBmWY5kW85GcqxXBEuWLMmWrPfDlEUSJEEAJN4gByAHWJwe9LD7TPf07b6nu+/t/v2qpgY9uPfMmQG+vvec+53vHDBXCaWzatgdGBVTmyZrnx85+ljbY65cuZKdPH0623bDlux5t+zKvvo33+rY7vQNU7XPTzxxqvY5bMnzwlufm938nB3ZxKqJ7OGjx7Lv/uD+bH5+PsFPcfXn2LwpSTvBmXPnm1439nFiYqKrtvKcq/307S8d0E1Xqv+Dar/RxMTKbFWL88vcf+1rvyzth9gJMdT4ukr9H9X2w0qyxqonITFx/5MnFwd7Ze//uLXfKo5Stt8N7Wu/yu3HsbNcLPXatyr/frQ/mPaXO68K/V/umtRr+/HcR9X+fave/7K1X6TtPO0X/R6p+l+PpStXsuzy5cvLtp/3Z2ynn7//POeOc/+7/f9Z9f5323793FaL5f7t1lsW22rXfqdx0iDfH/Jc38fl/a2b9sf5/SE+vxz9X4inPOOkcXt/q3r/u22/8dx+v/fUzw/v+41zlXvnztaqoBxev7HQ9xjU+3N8TVqxIltyTC/fo4rXl7j9LYmeUad81k1vJKAksnr16trnubmLyx73+BOnagkoq1fl+9Xv2LG99vmhR45me557c/aOt/zCkgA8f+HJ7MMf+3gtEaWo9+9/V+E26v79fR/Jzl5LQglvIkePLVwQwpvPju35M9PznKv99O2/7dhDSwZ0d91wc2X6P8j2jz9+cuHclSuzrVumrn39ctMxZe6/9rVflvbDjXc9hurnPvzoscr0f1TbDysLDm2czt5z9vji34WVBZ/c85JK9H/c2o/jaOG4y7nOLUP/x7H9NVfHEdMttucs0v6lS09fvT95YiD970f7Zeh/ll1Z/FO4x7tx+9aWsdRr+2X+/Zet/XXr1i55Xyva/lNzc9kTJ08PpP9F2t+8aTJbv25d39rvd/8nN1zf8ppUpP1Tp89mF558ciD970f7Ve9/2dq//rr12cbJDbnbD+c1Tr6n7n+YA6vPg6Xsf/3+LsTP4ydPLdt+nj600+/ff55zL1x4Mjt15uxA+r9u7dpsavPGntpvd25j/8OW6tdff13u9vP87I19mN66pesHPJ36nydGUvW/13/feLHcR6dvzi4+Z2e2o0P7ncZJee4NUr2/rV69quW9TZ5j2hlk//O0323/+33/Ft47u3n/LxJfYezQanyXZ4yTq/08/75t+pCs/yvj+bvlx0ldj+8K9L/dv12R3/8g+9+P/z/9vv9pPDfo1H67Y/K0X+9beGr1lyd/nL3uzOOLx4W5yn3rbytd/xt//wvzdhM9zYGXof/9+P/T2P7WG7Zk/+af/0bucyk3W/AksnPHjbXPl69cWfa4Z66tVFiVMwFlw3ULA5WdN92Y/fq7/3G2eePG7Lvf/9vsy1/7RvaN73w/e/rpZ7INVwcz//Rdb89e8dIXFfgJoNnbjz/Y9DqsdH9w9dLJTxaEi+T85fnaDXeHtwGgjRA7Cw8lFj6yPsdSp6TRshtk///3LTc3vd558cmmQR7DFybxgziOilyTLjzZeltJ0goP11Obu1jx97cy9P/Ktfu7a/d47u+GZ821xR4phXF0FVSln+3Ux0cprkl1jSsFq6jq/Wc46vd3ofpJfYJ+VM1fzpfsmUKReGx3bmP/u/1ZqvKztzOI/reqfvJbN78417mdxkmXcyYapzCxsnNiQ55jGg2y/3l02/88yvYztrOy7fvD4N6/2/WhyLmN/W+8x8tzf9ftz16k/6n6kOrccRMSaFppTFJqd0w77RKc4vf/3VevD6EKShF5+tZt/xvVf5b4mpR3sQtUiQooiayIayS1c+XyteNztpstHPiG1726Vunkt2d/P3v0sWdXIG+anMx+Y+Yd2Y3TW7N3/PLPZ/f/6MHswlMeFlBMeKgYP1ic3TA9pN6UXz3DcyG7OmdwA0uECdX6ir6g3xNY/RjQDtIg+x8SEMPKsrcdf2jxa//nD/86e92r3jiwPrC8+mA1jqMiigyqoerCNajXFTyk1Y/3oqpM8F16+ulhd6GQp+YuJrsm1YUV1VVW9f6XTUjI7qYCR791myCet//1+7t4dWkrobLF2WhL7H4Jycq9/v7bnRuSqkel//UE8byq8rO3M4j+t6p+8vC6fFVmOo2TaknhZwp1L7c8ydbdJmQPsv959COhvMjPOMik3nbfqx9J1d32oci59f4vXIvCc4P8c+Dd/uz9+Pcq8vvv9twi85ntzq1KEnOe/nf7+2n3s//lpq21j/pzrJCgOHP+ePaFDfmrL8Xy9K3Iv2/9Z0k5dwdltWLl8263liuBO/7l+2vVSUJlkj/42CfaHvfed74te9mLnp9987s/yP7jh/+oY7v/7n/719mq1QuDyt859OHs+/f/eMkxN27bmv3rf/brtT//8Z9+Kvv8l/4qd7/Ddj4f/MD7Fl9/6N77slOn09ytnokGHY2rNLopYZf3XO2na/93H/tB0x56h9dtzPbddFuy9ns5V/va1772U7cfrx7U/+XPDQO5Hz30taa//9mdL8s+u+bZicsy/X7Grf1u287Tft7/Y722n/eYUW9/ufOq8v5Q9fc37Ze7fe9v2te+9lO13+/ri+uX9huP6cf1q9/tl/n6+O7Tj2X3nmjefv4Fz31NbcvYFO3nPVf71Wy/2/fnfsdvL99D+/na78f4Ou+5ZW1/lO9P4mtDuCbcevOrStX/vOeV9fc/yPvn8Lw6pcZn33fdfU92MtGzb/Kx9CKRx44/XktA6ZSJuOra3z+dcyXT5VrFlIlaBnmr5JPa9z7xeHbk4UezXTtvym55zs7s81n+BJRYSD4ZRBDGb1qpz9V+sWMak0+Cg1O7krZf9Nwytt94Ue10fhn7r33tl6X95WKpCv0f5fbDIC5sx9Z4jfjdx35YG9ilaL/qv59ht99uoJf3ew67/+Pcfsp/oyLnan+pXmKpm/a7PWZc2y/Sdt7zq/z7KXv7edopc/+1r/2ytF+/JoXP9XOq1P9xbL/f169xuz7G1U/C2PRHK1aFRnK3n3rurky/H+2nbX/c4qvbc4uOk4yvtZ+q/cPrN9bmK+vbs9WqoJw7UbtGpGi/yDGdzis6B57nexQ5Zhjtp3w2nTqZhe5Vo25TBVy6tJBQsnbNmmWP275ta+3zhafmcrV74loZpkeOHlv2uJNnFvY2W7du+e8PncQDunABDxdy2gs3C6Ese/2jlyx5QCxVwZ0NCYnBLQn2VyUtcQRpiCUoThxBGmKJcRceJtYfLtbFY9NOxBGkIZYok/DsKr4exM+3ykgcMQ4koCRy/PEnap+33XBD22NWrFhRq5ISPHjkkVztPv7Eydrn69avy3X8M/OD28+Q0RRXP+l2QAfA6KolJa5rTko8UIGBHQAAANU0c+540+uwsj3eegeA8RQvnrZYDspBAkoiP37o4drn6a03ZNevX9/ymFtu3pmtXLmi9udHH1u+okndjx54qPZ55007srVrVrc9LmTJBSdP2cOK3rVaUVCkXBkAo2f/9J6m13vnzhrYAQAAkFyYqwxjzkYWywFQV98yvNG9J+4fUm+AOgkoiXz/b/8uu/DkU7UEk9e95pUtj3n9qxe+/sijx7JjJ57I1e43vvP97PLlK9nExMrsDbe/puUxe557cy3xJfjm937YQ+9hQasVBQDQSBUUAAAABkH1EwA6sWU4lI8ElESuXLmSff5LX639+c379mYvfdELmv7+p29/TfaTr3hp7c9/9rkvLDn/9le/Mnvvr/1q7aOx0sm58xeyP7/W7s/9zE9nr7rWRt1NN05n/+Ttv1L7848eOJL9+EEPgOiNFQUA5KUKCgAAAP3Uaq5ydsP0kHoDQFlZLAfls2rYHRgln/rzL2bPv/W52a237Mr2v/OttYSQU2dOZzu2b8+ec+PCzfGXv/aN7NvfX1ql5Kbt09nLXvzC2p9XTfxpdjF7evHv/sun/lu2ffqG7MXPvzV791t/MXvjT70ue+SxY9l1163PXnjr82pVV86eO5/93kf+ZDA/KCPJioJi5ufnh90FGAliqRrqA7vGycAwsNu3/rYh9oo6cQRpiCUoThxBGmKJcdRqrvLw+o1tju5MHEEaYokyOji1K/vs0e8svq4vlity3egnccSok4CSUKiC8juHPpz9/Jt+JvvvXvOqWiJKli1UkLh48VL2mS98Kfv04S923e7ly5ez3/1//1P2xr2vz/be/trsxu3bah8Lf3cl+/o3v5d97L9+qlYtBXpRK0lmRUHPws3C0WMnht0NqDyxVC1VG9iNC3EEaYglKE4cQRpiiXEUxpYp5yrFEaQhliirMB8ZL5abOX+8lPOU4ohxIAElsaefeSb72Cc+Vfvoxh9+/JO1j+WE5JVeEligkzuicmThQl3GCzMA5dFqYKcKCgAAAEXFWycUrX4CwOhbsljOduEwNCuH3QFg+MKeqo1mJ1U/6dbExMTiB9A7sVQtYWDXqF4FheESR5CGWILixBGkIZYYJ6mrn9SJI0hDLFFWD65e2DK8LlT+jxdfl4U4YtSpgAJjrtUFOKwqIL9wk7Bj+7O/s1A+zR5+0D2xVD2qoJSPOII0xBIUJ44gDbHEuImrn6So1CyOIA2xRJk9sGptbXF10zY8505kd0YL6IZNHDEOVECBMRdXP9m/bc+QegJAFamCAgAAQAqtqp/EY04AaCdOWAxVUOJnYED/SUCBMRYuvOEC3Ej1EwC6Ua+C0ihesQYAAACd9KP6CQDjY6EKSvMzrrJuwwOjTAIKjLGZc8ebXks+AaAXqqAAAABQhOonAKQQb7kTFmGbp4TBkoACY6rVoK5se+EBUA2tqqDMnD/e5mgAAABopvoJACmEKiiqNcNwSUCBMRVfcEP1k3BhBoBeLKmC8pQqKAAAAHSm+gkAKe2f3tP0WrVmGCwJKDCGaiXHokHd7IbpIfUGgFEQV0EJ1xpVUAAAAOgkHjuqfgJAEa2qoJinhMGRgAJj6A4lLQHoA1VQAAAA6EZt8cK5E01fU/0EgKJazVOGaw7QfxJQYAzFg7rZSdVPAChOFRQAAAC6YaEcAP3Qap4yvuYA/SEBBcZMnHwSzE5uG0JPABhFcVKjKigAAAC0ovoJAP3Uap4S6D8JKDBm4gzP/dv2DKknAIwiVVAAAADII56nfGDVWtVPAEgmvqa0SnwE0pOAAmMkXFjjPe5UP0ljfn5+8QPonViqvjBh2Gp1gT1WB0ccQRpiCYoTR5CGWGJUxQ8B7+xj9RNxBGmIJaokzFMenNrZ9LUybMMjjhh1q4bdAcplavOmjsecPH1mAD2hH2bONa9Al3ySRrhJOHpM1iwUJZZGR70Kyt65hbKW9T1WVd3qP3EEaYglKE4cQRpiiVF174n7m14vLGboz1ylOII0xBJVdGhyOjtw6uHF12GeMiyWG1bFLXFU3JYOz7LzPOumvySg0OT9+9/V8Zi77r5HEkoFhQtq/UFgXT9XFQAwvupVUBqvO/UqKOHvAAAAGG+DrH4CwPiqJzg2XncOnDqS7Vt/2xB7Ra9C8skHP/C+YXeDDmzBA2PiQFRWLFxwPQRMZ2JiYvED6J1YGh1hFUHjdaZeBYX+E0eQhliC4sQRpCGWGDVx9ZOg35WaxRGkIZaoojjJMSyaC4vlhkUcMepUQIExUCspFlU/md0wPaTejJ5wk7Bj+7OD5FA+zd590D2xNFpC8kkY3DVOLA5zYDcuxBGkIZagOHEEaYglRlFc/aTf27WKI0hDLFFVYZ6ycbvwYFhVUMQR40ACCk0+dO992akO2+vYfqd64hXn4UI7rP3tABgf9SooIREyCJ9DQkq/JxcBAAAop1aVMftd/QQADk7tyj579DuLr3eHhdtPnfWsrILuuvuejsfYpme4JKDQJCSfSDAZPfGqgtlJ1U8A6D9VUAAAAGh04NTDTa8tUABgEEKiSWMVlLBQbub8cQkoFZPnGfaWzZsG0BOWs3LYHQD6K04+CawqAGBQ6lVQ6upVUAAAABgvqp8AMEzx4mwL5aA/JKDAiIsHdlYVADBI9SoojQzuAAAAxo/qJwAMU6uFcq2SI4FiJKDACAvVT8IFtJFVBf0xPz+/+AH0TiyNpriUZa3EZYsKXaQhjiANsQTFiSNIQywxCoZdpVkcQRpiiSprtVBuGHOU4ohRt2rYHQD6Z+bc8abXkk/6I9wkHD3mQSoUJZZGVxjcHZza2bTaLawucF1KTxxBGmIJihNHkIZYYlTEK8wHnXwijqA4scQoaLdQblDXJXHEOFABBUZU2N5g71zzFgdxZicADMqhaI/VMLizFQ8AAMDoa1Wl2TwlAMMQFsrFySa24YG0JKDAiJo5v7T6SePedqQ1MTGx+AH0TiyNrnANOryueYXBAYO7vhBHkIZYguLEEaQhlqi6vXNnml4PY55SHEEaYolRECdBDnqhnDhi1NmCB0ZUvG/d7IbpNkdSVLhJ2LH92YzZUD7N3n3QPbE0+g5eHdx99uh3Fl/vvja4i0tf0jtxBGmIJShOHEEaYolRMOx5SnEEaYglRkV9oVzjLgJhody+9bf1/XuLI8aBCigwgu49cX/T63Ah9XAPgGEL16LGKii1PVajil0AAACMDvOUAJTRwagKSkhGsV04pCEBBUbQklUFk6qfAFAO8TXJwA4AAGB0xWM+85QAlEG8UC6wUA7SkIACIyZOPgnCvqoAUAbxSrdaFZQW1y4AAACqLYz1wpivkXlKAMpiSRWUp84uuW4B3ZOAAiPmjlNHml4fnNo5pJ4AwFJhj9X42hRfuwAAAKi+mXPNK8klnwBQJg+uXrtku3DzlFCcBBQYIa1WFRxS1hKAkomvTeHaZSseAACA0RHGeHvnmsd5d0YrzQFgmMJCOduFQ3oSUGCEtFpVEC6gAFAm4doU77F6wOoCAACAkTFz3jwlAOVnu3BITwIKjAirCgCokniP1d1XB3f2WAUAABgN8cO72Q2qNANQPrYLh/QkoMCIsKoAgCoJqwvssQoAADB64rFdrQpmtMIcAMrCduGQlgQUGBFWFQBQNfZYBQAAGD3xPKUqzQCUWUiUDIu6G9kuHHonAQVGwL0n7m96HVaUW1UAQNm12mNVEgoAAEB1heSTeHvV+KEeAJRNnCy5d+6seUrokQQUGAFLqp9Mqn4yaPPz84sfQO/E0nixuqA/xBGkIZYpTSk8AAAgAElEQVSgOHEEaYglqmTm3NJtwstAHEEaYolRVdsubl3zYrl+zVOKI0bdqmF3ACgmTj4JyjKwGxfhJuHosaX/DkB3xNJ4CqsLGq9l9dUFKnn1RhxBGmIJihNHkIZYokrCWC6M6RqVYfsdcQRpiCVG3cGr16zPHv3O4uvd16o1p5ynFEeMAxVQoOLuiDIwD07tHFJPAKB7rVYXzJw/3uZoAAAAyioey4VFcmHMBwBVEBJNGucpw5Zy5imhexJQoMJa7al6yPY7QzExMbH4AfROLI2ng/Eeq0+dXXJ9Iz9xBGmIJShOHEEaYomqWLJN+IbyzFOKI0hDLDHqZqNnbGGeMjVxxKizBQ9UWKs9Va0qGLxwk7Bj+7PbHoXyafbug+6JpfFVX11QL9Uckk/ec/UaV4ZSzVUjjiANsQTFiSNIQyxRFa22CS/L1qriCNIQS4yDcO0Kz9nqi+NqVVCuXuPC87cUxBHjQAIKTaY2b+p4zMnTZwbQEzpptadqmVYVAEA3wuqCxutaGNhJQAEAAKiGeJvw/dv2DKknANC7kHwS5iTvPXH/4tfCNS5VAgrFbenwLDvPs276SwIKTd6//10dj7nr7nskoZRAqz1Vy7KqAAC6FV/DwuqCkGzp2gYAAFBurbYJ96AOgKoyT1leIfnkgx9437C7QQcrh90BoDdl3lMVALoVVhfEE5QHohV0AAAAlE+rbcIBoKpazVM2VkQBlicBBSoovtCFi6HMSwCqLt5yJ2zJE1YXAAAAUE6ttgm3nSoAVRdfy+pVUIDObMFDkw/de192qsP2OrbfGb64+olB3fDNz88PuwswEsTSeKslVK7b2DR5Gback2TZHXEEaYglKE4cQRpiiTJrtU14GNuVjTiCNMQS46LVPGWo1rxv/W2F2xZHxdx19z0dj7FNz3BJQKFJSD6RYFJucfJJoKzlcIWbhaPHlv67AN0RSwQHp3Zlnz36ncXXVhZ0RxxBGmIJihNHkIZYouziucrD6zYNqSftiSNIQywxbpbMU16r1lxksZw4KibPM+wtm8t3LzJubMEDFXPHqSNNrw9O7RxSTwAgvQdXL6wuqAvlLeNrHwAAAMNnoRwAoywkmjTOUwZx5S9gKQkoUCFhUBcexDU6NDk9pN7QaGJiYvED6J1YIpS3nI2uba0mNWlPHEEaYgmKE0eQhliirOLFAvu37RlSTzoTR5CGWGLchCoojVJUaxZHjDpb8ECFzJyrxp6q4ybcJOzY/uzqjlA+zR5+0D2xRF1cxjIkXxYtbzkuxBGkIZagOHEEaYglyqrVQrmyjtnEEaQhlhhH9WrNYfudIFz77j1xf89Jl+KIcaACClREePBWv8DVzW5Q/QSA0bNQBaW5bPMB2/AAAACUhoVyAIyDVtWaU1RBgVEmAQUqIt5XLmRclnVVAQAUdWdc3nLurMEdAABACdSqVFooB8CYaFWt2Zbh0J4EFKiI+GIW7zsHAKMkrC4IyZaN4mRMAAAABu+OqEKlhXIAjLIwT3lwamfT1+JrIfAsCShQAfGFrPZQzqAOgBEXJ1uqgAIAADB88UK5eGsCABg1h6JrXa0amLlKaEkCClRAPKiLtyUAgFH04OrmKijKWwIAAAxXqzHZ7OS2IfQEAAanVbXmA6qgQEsSUKDkwqAuPHBrZFAHwDgIA7t4JZ3ylgAAAMMTj8niLQkAYFTtn97T9Hrv3FlVUKAFCShQcvGgTvIJAOMk3nJOeUsAAIDhaLVQLt6SAABGVasqKDPnjw+pN1BeElCgxFoN6my/A8A4WaiC0px8qbwlAADA4M2ca37IFsZqYcwGAOPiYPSMLiyUi5/jwbiTgAIlZlAHAEuTL5W3BAAAGLwwFms0u0H1EwDGS6jW3FgFJSSf2DIcmklAgZIKD9YM6gBAeUsAAIBhu/fE/U2vwxgt3jIVAMbBbLT9nIVy0EwCCpRU/GDNoK7c5ufnFz+A3okl2mlV3pLWxBGkIZagOHEEaYglyiBsFd4ofvhWduII0hBLkC15VheqoMTXyeWII0bdqmF3AGgtvljFD94oj3CTcPRY/psLoDWxxHIeXL22VgmlvqdqfWAXtqfjWeII0hBLUJw4gjTEEmXQ6qFalcZi4gjSEEuwIMxR7t+2p6k6WNiGJ8+1URwxDlRAgRKK94urbT2g+gkAYyxcC+NBnP1VAQAA+m/mXHOl5iolnwBAP7SqgqJiMyyQgAIlFK8quFP1k9KbmJhY/AB6J5ZYzqGoxLOBXWviCNIQS1CcOII0xBLDFMZce+eax11VnKsUR5CGWIIFrRbLHci5WE4cMepswQMlE5JP6tsL1FlVUG7hJmHH9mf/jUL5NHv3QffEEp3UKoKt29g0+RkGdvvW3zbEXpWLOII0xBIUJ44gDbHEsM2cX1r9JIzNqkQcQRpiCZqFhMzGBeVhzjIkbi63o4E4YhyogAIlE28nIPkEAJ51MFppt1sVFAAAgL6JKzXPbphucyQAjJf6YrlGeaugwCiTgAIl0qr6SRVLWgJAv4QVBI0Du3DdjFfkAQAAUFy8UC6MxZZb1Q0A48ZiOVhKAgqUyMy56pe0BIB+m51sXnFnUAcAAJDekuonk6qfAEAji+VgKQkoUBLhohT2h2ukpCUALBWvuKsN7KKJUQAAAHrXqlKzrcIBYCmL5aDZqmF3gHKZ2ryp4zEnT58ZQE/Gj5KW1TY/Pz/sLsBIEEvkEaqDHZzamR049fDi18J11GToAnEEaYglKE4cQRpiiWFoVam5ysQRpCGWYKnwLC/MV9YTN8PnMFd5Z7Q9T504KmZLh2fZeZ51018rVj7v9ivD7gTDE4L0gx94X1fn3HX3PZJQ+mD+777U9Hr/tj2VH9gBQL+EgdyPHvpa09f27bhN8iYAAEBBYeX2Z49+p+lrt978KluFA0AboXLYvSfuX3wdrpnh2klanmtXgy14oATi6ieB5BMAaC8M4hr3Vw0OtLieAgAA0J2Z80urn0g+AYD2bBkOz5KAAiUQX4RC9ROqZWJiYvED6J1YohsHozKWu68O7OyxKo4gFbEExYkjSEMsMWjxXOXshukh9SQdcQRpiCVoLSRqxgvLWy0+D8QRo27VsDtAuXzo3vuyUx3KEClTlFYY0NX3hatT/aRawk3Cju3P/psdPXbCHn7QA7FEt8LKglAFZe/cQtJJbWXB+eNjvQ2POII0xBIUJ44gDbHEoMUPy2rVJys+xhJHkIZYguXdObWrKYnzlmuL5Rqvo+KouLClTifdbtNDWhJQaBKSTySYDNbMuaUlLQGAfGYnpxcTUAIVUAAAAHoXVz+5M6o8CQC0Vt8yvHGuMmwZvm/9bUPs1WjJ8wx7y+ZNA+gJy7EFDwxRGNA1XogCgzoAyM/+qgAAAGmo1AwAxcRbhodngBbMMW4koMAQtap+EjIkAYB8wnXz4NTOpq+1218VAACA9lRqBoBi6luGNwpbhsM4kYACQ1Lb+y2qfjK7YXpIvQGA6jo02Xz9rO+vCgAAQD5hDKVSMwAUt6QKytVrbFxhDEaZBBQYknh1dsiIjLcRAAA6q++v2uiAKigAAAC5xauzVWoGgN48uLp5rjIkn6jYzDiRgAJDEvZUbTQ7qfoJAPQqXlmw++rAzsoCAACAfJbMVarUDAA9CQmc8TM/1ZoZJxJQYAjiAV1gT1UA6F28v2pIPnnPOfurAgAAdNJqrlKlZgDoXXwdDXOVra63MIokoMAQxKW29m/bM6SeAMDoiFcWGNQBAAB0Zq4SANIKVVAOTu1s+ppteBgXElBgwMLDsHhLANVPAKC4VisLlLcEAABoz1wlAPTHoWixXLje/v05c5WMPgkoMGAz0XYABnQAkMbC/qrN19UDVhYAAAC0Za4SAPqj1VylKiiMAwkoMEBhFfbeKLvxzqldQ+oNKc3Pzy9+AL0TSxQVX1fDdXfcqqCII0hDLEFx4gjSEEv0S61qZDRXObthus3R1SaOIA2xBN2J5yp/6vyp7LWnjokjRtqqYXcAxkm8CjtkPoYMSKot3CQcPXZi2N2AyhNLpBCuq4fXbWyaRJ05f3zJ9jyjShxBGmIJihNHkIZYop/iVdhhLDWKYydxBGmIJeheq7nK/+lH387+6Kbbhtgr6C8VUGBAxmlFAQAM08G4CsqYVUABAADIY+Zc84Pk2UlzlQCQWjxXuTs8LzRfyQiTgAIDMi4rCsbVxMTE4gfQO7FECuH6Gq6zdSEJdJz2VxVHkIZYguLEEaQhluiHOPkkCNWaR5U4gjTEEnSv1Vzl/3DhhDhiZNmCBwbEioLRFW4Sdmx/doAeyhDauw+6J5ZIKVxnm7bhuXodjvdcHUXiCNIQS1CcOII0xBL9EifpH5zaOaSe9J84gjTEEvQunqvcd/F8LZ7EEaNIBRQYgHFbUQAAwxZXGbtFaUsAAICaMFcZxkiNDlksBwB9E+YqH1i1dvH1zotPZv/zQ98bYo+gfySg9MmmycnspS96QfYTL3tJ7fO6tWs7n9SD2174/Fr7K1as6Ev7pBGvKNi/bc+QegIA4yEM6OJkzwNjtA0PAABAOzPnjje9DmOnxodiAEBa4TobV2d++7GHhtQb6C9b8CQWEk3e+gtvyn7yFS9t+vr8/OXs8Be/kn3805/Lrly5kuR73f7qV2Zv/6U31/78rw7+OyWaSqrVigLVTwCg/8KgrrEKWShzGaqgxNVRAAAAxkWtOuRcc3XI2Q2qnwBAv8VzkqEKyk+dP2WukpGjAkpCYf+735x5Ry355PLlK9m3vveD7Mtf+0b24wcfvvp3K7N9b3hdNvOP35Lke23dMpX98s+9MUlb9NfeuTNNryWfAMBghJUFh9c1D+Bmzh9vczQAAMDoiys1hzGTB18A0H8qNjMuVEBJ6Gf3vj7btfOm7OLFS9lvz/5+9uDDjy7+3Wt/4uXZO97y89nLX/LC2rY8X//Wd3v+PmG7nX/ytl/K1qxZnaLb9FnjyuvAioLRpAIRpCGWSO3g1K7ss0e/s/g6VEAZdeII0hBLUJw4gjTEEiktmaucHI+5SnEEaYglKCY8I2y8Fu9+5mKtOpmt8BglElASWblyZbb39tfW/vzJw19oSj4JvvL1b2bP3b0z+3uvekW27w23F0pA+Yc/81O1RJdz5y9kkxuuL9Rv+ise0FlRMJrCTffRYyc6HwgsSyzRDw+uXqiCUi8xHQZ0YcVfvOfqqBBHkIZYguLEEaQhlkgpnqsMxqFasziCNMQSFBeeEcZzle85d3xk5yoZT7bgSeQlL9iTrV27pvbnr/z1N1se86Wvfr32+Tk3Tmfbt93Q0/fZvfOm7E1//6ey8xeezD7+qc/11AaDE5e0HJcVBQBQFgulLZuvv60mXQEAAEZdPFd5cGrnkHoCAOPLXCWjTgJKInuet7v2+eTpM9mFp55qecyRRx/L5ucv1/5883Nu6vp7rF2zOnv323+59uf/9Cd/mp27cKHH3jII4YIRMhcbjcOKgnE1MTGx+AH0TizRD3H1sXB9HuWteMQRpCGWoDhxBGmIJVJoNVd5aIwWy4kjSEMsQXGfv35z0+tRn6tk/NiCJ5GpTZO1z48cfaztMVeuXMlOnj6dbbthS/a8W3ZlX/2bb3X1Pd7y378pu2Fqc/aVr30z+/b3f5i9+AW3FupzK1ObNyVr68y5802vG/cG7PbmJM+5ZWt/79yZptf15JOq9F/73dmxvf7vuzJ77Njj2TPRXphl7r/2tV+W9ldd/bsbt29dfB1i6eKlS8na7/Vc7Ve//YUqKNuaVhMcOHUk+9kNL69E/7tpv1UcxdekIu13Q/var3L7IZa2bd2y+PrE4yfbxlKvfavy70f7g2l/ufOq0P+1a9a0vSb12v58FIdV+/etev/L1n6RtvO0X/R7pOp//f7uypUsu3z5cm3rg9BGq/Pz/ozt9PP3n+fcce5/t/8/e+n/zLnjTa/v23xjdmTtdVm9pUH2v9v2G8/t5frYaZxUtv6Py/tbN+2P8/tDfP4w+x/+PsyDhznwYLk5h/jcuqr9/set/92233huv9972p2fKr4G9f4crknz22/KPvrk8extxx9a/LswV7lv/W2l73+n44r8/9yS6Bl1ymfd9EYCSiKrV6+ufZ6bu7jscY8/caqWgLJ6VXe/+pe95IXZa1/18lqFlT/+xCd77mcn79//rmRt/fv7PpKdvZaEEt5E6nsD1m9S8spzbhnbn/nbLzS9nt0wXan+az9/+8cfP7lw7sqV2dYtU9e+frky/de+9svSfhi81mOofu7Djx6rTP+1X+72f+eFr8pm/urPFv8+7LP6y2suZ390rXBd2fuft/04jhaOu5zr3DL0fxzbX3N1HDHdYnvOIu1fuvT01fuTJwbS/360X4b+Z9mVxT+Fe7zwwKJVLPXafpl//2Vrf926tUve14q2/9TcXPbEydMD6X+R9jdvmszWr1vXt/b73f/JDde3vCYVaf/U6bPZhSefHEj/+9F+1ftftvavv259tnFyQ+7264kb/ep/mAOrz4Ol7H/9/i7Ez+MnTy3bfp4+tNPv33+ecy9ceDI7debsQPq/bu3abGrzxiXH5Gm/3bmN/Z/atDG7/vrrcref52dv7MP01i1dP+DZ+7fNK6v/867nZzs2PZuUkSdGUvW/yL9vu9//cu13GifluTdI1f/Vq1e1vLfJc0w7g+x/nva77X+/79/Ce2c37/+9xNdi/6+OHVqN7/KMcXK1n+fft00fkvV/ZTx/t/w4qevxXYH+t/u3K/L7H2T/+/H/p9/3P43nBp3ab3dMnvar2P/G3//CvN3E4jXp0y98WVMCyu5nLmbPu/x0dummG0vZ/378/hvb33rDluzf/PPfyH0u5WYLnkR27lh4Q7h85cqyxz1zeeFivKqLBJQwafOPfunNtT//3kf/JLt49WJDub3t2ENNrw+v27ik/D8Aw9UpabTsqt7/QXt43XXZXzZMrgZvP35kSL1JL0zip3bhydbbSpJWeLie2tzFar8/VL3/pLXm2mKPlJ5++pnkbfZDVfrZzvzlfElb3aivtq2qqvcf+q0f7xvtFInHduc29r/bn6XfP/vd93+96XUYG8XjoyIG+W/XD5dzJhqnMLGyc2JDnmMaDbL/eXTb/zzK9jO2s7Lt+0P+aor96kORc4v0v9tzi/Q/VR9SnTtuQgJNK41JSu2OaSfPQpC8i0U6ydO3bvvfKO7n17buyP766kdd2IbnPWePx6dBJRn5JrJixYp8B165fO34/G2/+62/VHuo8NnP/2X2wEOP9NA7Bu1fPPS9ptezY7SfKkBV9GNAO0hV7/8w/NbNL256ffvZJ4bUk/RSDbYbFRlUA6TSj/eifrxn9sOlp6u9+KQf/Q8rqqus6v0vm7IlZHfbn370P1SGGJQiycrtzu1HUnW3fShybmP/u/1Z+v2zx2Ofj0zvTtr+IP/t+pGs3I+k8Hby9L/bn3GQ/c+jbP9Gg0zqbfe9+pFU3W0fipxbpP/dntuPf69B9r9IQl67c6uSxJyn/93+fvL87Kl+P3n6VuTft1U/P777+U2v33PuWM/tQ5msWPm825cv2UEud/zL92ebN27Mvvy1b2R/8LFPtD3uve98W/ayFz0/++Z3f5D9xw//Ucd2f/r212S/8uY3Zo88djz7rd/+f2p7vda9+AW3Zr/+7n9U+/O/OvjvFssUdSPsp/XBD7xv8fWH7r0vO3X6TNfttHLmWsnPusb+dVPCLu+5ZWn/3acfy+49cX/T1269+VXZA6vWJmm/13O137/2g3pZsXAT0WrvyzL3X/vaL0v7IX4aS/SFWLp46VKy9pc7rx/t5z13XPs/jPZ3XXwyu/f4/bXtd+r2b9uTzU5uWzymSPu9HpOi/frft4qjdvsxd2o/7/+xdsr0+ylz+8udN67vD2Xof1z6+MTjJzvubd5t38r6+y9b+73cm3t/K0f7YW/z59y0ffHrjdekKvRf+6PXfr+vL/1qv35/F4ouh3nBeqnyqv3+x639fly/em2/1Vzlmuf/1LLfv9vvEZ8/7N9/fEyecVKZ+6/9Yu13+/7c7/jt5XuUpf3wd/Xtf4Pl5hx6ab/TMZ3a78f4Ou+5ZW2/DOPrcW6/1XmN16QdF85nf9GwZXjwpl0vzz63rrttAjv1raz/fxrPC8+rU2p89n3X3fdkJxM9+yYfSy8Seez447UElE6Zdquu/f3TOVYC3bhta/YLb/yZ7Jmn57P7PvInTckn/RKSTwYRhPGbVupzh9n+3rnm3194qFVPPknRfopztZ+2/cYLalhNGW66l2ujbP3XvvbL1H7jiuTlJoOK9KHIudqvdvvhehyqkjUmoNxx6shiAkrZ+5/37+M4StW3Kv9+ytx+3vPK2v9xaT9vLPXaftV/P4N6f+tH+0W/h/bbu5LluyaVtf/a136Z2m9VualK/R/H9vt9/eqm/ZlzzeX8w/hn2L+fYbTfzTipjP3X/uDad/+Zp/2FeOplnGR8rf1xbb/V3F3YMvy+zTdm7zr92OLf/a8nHsg+c9Nthb9HkWOG0X7KZ9Opk1nongSURC5dWkgoWbtmzbLHbd+2sLfmhafmOrb5xr2vz1atnsjOnjuf/eI/3Lfk7zc0lDbc/8631mZ3fnzk4ezTh7/YTddJbObciabXsxtsvwMAZXF4ffMKgrC/6t6nzi75OgAAQNWFsU5jAn5w59SuIfUGAIiFxXKNCSi7n7lYm69sXNgOVSMBJZHjjy/so7nthhvaHrNixYpalZTgwSOPdGxzRbZQLWXj5Ibax3Je/Pxba5+fmR/cfoYsFSefhAuEB1oAUB4LVVC2NV2zD5w6ku1b39vKAgAAgLKaOb+0+okHWgBQHmG7ncNXP+oJoyH55D3njksYpdIkoCTy44cern2e3npDdv369dmFp55acswtN+/MVq5cUfvzo48d69jm57/y1exb3/9h27/fuWN7tu8Nr6v9+ff+8P/LLs9fzs6cPdv2ePovlPFv5AIBAOUTrs+NCShhgKcKCgAAMGpUagaA8ou3DA/Xb88XqTIJKIl8/2//Lrvw5FPZ9detz173mldmn/nzLy055vWvfmXt8yOPHsuOnXiiY5sPPBSqpLSvlHLx0sXFBJRvfPt7hfcmpJhwQQiZiY08yAKA8qlVKGtYWRCElYGu2wAAwKiIF8qp1AwA5WTLcEbNymF3YFRcuXIl+/yXvlr785v37c1e+qIXNP39T9/+muwnX/HS2p//7HNfWHL+7a9+ZfbeX/vV2sfaNav732GS2zt3pum1kpYAUF4Ho1UEYVAHAAAwKuLqJ1ZSA0A51bcMb3QgSiSFKlEBJaFP/fkXs+ff+tzs1lt2Zfvf+dbsRw8cyU6dOZ3t2L49e86NC+UNv/y1b2TfbrGtzk3bp7OXvfiFtT+vmvjT7GL29ED7TnFKWo43FYggDbHEoDy4em1tcFevXhY+h2t5PNirInEEaYglKE4cQRpiiW61qtQ8CmOdIsQRpCGWoLhWcRSeKTY+Z9x99ToeruUWulNFElASClVQfufQh7Off9PPZP/da15VS0TJsoXM8osXL2Wf+cKXsk8f/uJwO0lfxMknSlqOl3CzcPTYic4HAssSSwxSfWXBgVMPL34tlKiu+qSsOII0xBIUJ44gDbFEL2bOHW96XfVxTlHiCNIQS1BcuzgKzxQbtwwPySfvuXo9V8GMKpKAktjTzzyTfewTn6p9dOMPP/7J2kc3vvfDH2UfuOP/6Ooc+iPeU9UFAQDK79DkdFMCiv1VAQCAqgtjmvrDqzpzlQBQfrOT003X8LD43TWcKlo57A5A1bUqaenB1fiZmJhY/AB6J5YYpFrFsnXN1+xR2F9VHEEaYgmKE0eQhliiGzPnl1Y/Ub5fHEEqYgmKaxdH8bPF+mI5qBoVUKCgvXNnml4b1I2fcJOwY/uzpUxD+TR7YUL3xBLDcHBqV/bZo99ZfL274lVQxBGkIZagOHEEaYgluhVvFT67YXpIPSkPcQRpiCUobrk4qm8Z3ngtD4vl9q2/beD9hCJUQIGCDOoAoLrq+6vWhZUF8YpBAACAKojnKWtVHyuaXA8A4yh+xrhbFRQqSAIKFGBQBwDVF/ZXbWRQBwAAVNEd0Zaid07tGlJPAIBetFosF+/EAGUnAQUKMKgDgOprtb9qnGQKAABQZmEME8YyjUIZfwCgWuLFcuYpqRoJKNCjVoM61U8AoHpCBbODUzubvhYnmQIAAJTZzLnmrUQlnwBANbVaLKdiM1UiAQV6FJe8CoO68ACL8TQ/P7/4AfROLDEsh6KVBVUe2IkjSEMsQXHiCNIQS3QSxi5755rHLyo1NxNHkIZYguI6xVF41hgnkh6wWI4KWTXsDkBVxSWvZjdMtzmSURduEo4eUwINihJLDFMY2IX9VRsnbcPAbt/624bYq+6JI0hDLEFx4gjSEEvkMXN+afUTC+WeJY4gDbEExeWNo/DMsfE55O5ri+XsxEAVqIACPYiTT2oPrbzpA0ClHYxWCO6ucBUUAABgfFgoBwCjJTxzDIvl6mrVmqOdGaCsJKBAD+6ISl0pacnExMTiB9A7scQwtRrYxSsJq0AcQRpiCYoTR5CGWGI5cfJJYKHcUuII0hBLUFzeOJqNtgxvdc2HMrIFD3QpvMGHB1KNDOrGW7hJ2LH92f34Qvk0e2BC98QSZRAGdo3b8FStAoo4gjTEEhQnjiANsUQn8UK5/dv2DKkn5SWOIA2xBMV1E0fxs8dbbMNDRaiAAl2KS1zZUxUARkergZ3VBQAAQBlZKAcAoys8ewzPIBsdiBJPoYwkoECX7KkKAKMrDOwOTu1s+trMueptwwMAAIy+eKxioRwAjJb4GeTua1VQoMwkoEAX4uSTMKCzqgAARsuhaH/VsCWPgR0AAFAmtTL8c83jFAvlAGC0hGeQh9c9+xxy4fp/ZpkzYPhWDbsDlMvU5k0djzl5enzf2OI9Ve+c2jWkngAA/VJLMAEFUgoAACAASURBVL06sGuczJ05f1zSKQAAUBrxPGUYwxizAMDomZ2cbp6nPHdirJ9PbunwLDvPs276SwIKTd6//10dj7nr7nvGMgnFnqoAMD7igZ0KKAAAQJks2SZ8UvUTABhF8bPIW65twzOOzyhD8skHP/C+YXeDDmzBAznFJa3sqQoAo6vdwA4AAGDY4uSTIMxVAgCjJzyLjK/zB6JKaFAmElAgpyWrCuypCgAjy8AOAAAoq5lzx5teSz4BgNEWP5PcbbEcJWYLHpp86N77slMdttcZ1+13YuNY2goAxknYS7XxHiBsyTOu5S0BAIByqFVnnGt+4BTGLgDA6ArzkYfXbVy8B1i4HzgzlvOUd919T8djbNMzXBJQaBKST8YxwaSTO6IVz/u37RlSTwCAQQlVUBoHdsG4DuwAAIByiOcpbRMOAONhdnK6aZ4yLJwbtyTUPM+wt2zeNICesBxb8EAH4Q08ZBI28uAJAMZDGNg1alUVDQAAYFDicvuH13nIAgDjIH42eYtteCgpCSjQQVjp3MiqAlqZn59f/AB6J5YomyoO7MQRpCGWoDhxBGmIJepaLZQLc5V0Jo4gDbEExfUaR+HZZHzdPxBVRoMysAUPdBCvdJ7dMN3mSMZVuEk4esyKeChKLFFG9YFd4/1AGNjtW3/bEHvVnjiCNMQSFCeOIA2xRKOZc8ebXks+yUccQRpiCYorGkfhGWXjPOXua4vl7NxAmaiAAstoVWbfmzgAjJc4+TQM7OJVhwAAAP22d665GuOdU7uG1BMAYBjCM8rD6559Tlmr1hzt5ADDJgEFlnFHVLpq/7Y9Q+oJZTcxMbH4AfROLFFGrQZ274lWHpaJOII0xBIUJ44gDbFEEM9ThjGKbcLzE0eQhliC4orG0exk82K5VovpYZhswQNthJJV8epm1U9oJdwk7Nj+bMnTUD7NHpjQPbFEmYWBXeNqwzCwK+NqQ3EEaYglKE4cQRpiibol24RP2iY8L3EEaYglKC5FHMXPKm+xDQ8lowIKtDFzfumeqlYVAMB4ajewAwAA6LeQfBIvlAtzlQDA+AnPKuP7gANRpTQYJgko0MaSVQUbrCoAgHEVBnaN2/AEBnYAAMAg7J070/Ra8gkAjLe4MvNui+UoEQko0EKr/dKUrgKA8XawxcAOAACg3yyUAwAaxYvlatWao4RVGBYJKNDCHdGK5v3b9gypJwBAWYRk1Hhg1yppFQAAIJV4zBHGJBbKAQCzk80JqeYpKQsJKBAJJariPVUN6uhkfn5+8QPonVii7OKBXZy0WgbiCNIQS1CcOII0xNJ4i8cc8ZiEfMQRpCGWoLhUcRQ/u7zFNjyUxKphdwDKZub88abXYU/VUMoK2gk3CUePySyFosQSVdBuYFeWZFVxBGmIJShOHEEaYmm8hZXMFsoVJ44gDbEExaWMo/DsMjzDbKx8cuDUkWzf+tuStA+9UgEFIvZUBQDaifdXDeLkVQAAgBT2zp1pem2hHADQ6M6pXU2vd6uCQglIQIEGrfZHs6qAPCYmJhY/gN6JJargYDSwK9ugThxBGmIJihNHkIZYGl8WyqUjjiANsQTFpYyjeLFcrVpzlMAKg2YLHmgQ76m6f9ueIfWEKgk3CTu2b1t8Hcqn2QMTuieWqIoHVy8M7PbOLSSehIFdmBgOqxGHTRxBGmIJihNHkIZYGl8WyqUjjiANsQTF9SOOZienF+cpg3APEVdGgUFSAQWuCauX7akKAHQSVhZ8LrpHmDlnGx4AACAdC+UAgDziZ5m32IaHIZOAAtfMnG9+cGRPVQCgnUOTzaWvwyoDAzsAACAFC+UAgLzCs8y4MvOBKJEVBkkCClxjT1UAIK94f9UgTmYFAADohYVyAEA34i13dquCwhBJQIHMnqoAQPcORgM7gzoAACAFC+UAgG7Ei+Vq2/DMnRlijxhnElAgs6cqANC9B1c3r0C0vyoAAFCUhXIAQC9moy3DW91TwCBIQGHs2VMVAOhFWFlwcGpn09fsrwoAABQxc27p9jsAAJ3EzzYtlmNYVg27A5TL1OZNHY85eXq0SjbZUxUA6NWhyenswKmHF1/vnTtbG9hJZgUAALoVxhJhTNHozmjrTwCAVsKzzfCMs7HySVgst2/9bUPsVXpbOjzLzvOsm/6SgEKT9+9/V8dj7rr7npFKQrGnKgDQq/r+qo2TxCG5VQIKAADQLQvlAIAiQuJq43PP3deqoIzKXGVIPvngB9437G7QgS14GGv2VAUAior3V1XaEgAA6EU8lji8zgpeACC/+mK5uto2PHOjU1SAapCAwli749SRptf7t+0ZUk8AgKqyvyoAAFBUWCgXxhKNQgUUAIBuxIvlWi3Gh36yBQ9NPnTvfdmpDtvrjMr2O+HBUDyoU/2EXs3Pzw+7CzASxBJVVLb9VcURpCGWoDhxBGmIpfEwc27p9jukI44gDbEExfU7jtotlhuVZ6B33X1Px2Ns0zNcElBoEpJPRiXBpBN7qpJKuFk4ekwGKRQllqiysuyvKo4gDbEExYkjSEMsjY+9c81VFMMYgzTEEaQhlqC4QcRR2RbLpZTnGfaWzbYwHDZb8DC24pJTsxum2xwJALA8+6sCAAC9uvfE/U2vw9jCQjkAoFdxIutuW4YzQBJQGEut9jsbldJTDMfExMTiB9A7sUSVlWV/VXEEaYglKE4cQRpiafTFD4TisQXFiSNIQyxBcYOII4vlGCZb8DCW7jh1pOn1wamdQ+oJoyDcJOzY/uy+vKF8mr0woXtiiaorw/6q4gjSEEtQnDiCNMTS6AuJ62Hs0CiUzScdcQRpiCUobpBxFBJaG7f4C/cctvhjEFRAYeyEB0HxoO6QVQUAQEH1/VUbHYiSXgEAABrNnDve9FryCQCQQrvFctBvElAYOzPnlw7q7KkKAKQwu6E5qXV3lPQKAADQqHFlchCPKQAAemGxHMMiAYWxE0pMNTKoAwBSCSsL4v1V463/AAAAgnieMowlBrmFJwAw2uItd3argsIASEBhrMSDusCgDgBIaTba2q/V/QcAAECcrB6PJQAAighVUOLFcnvnzgyxR4wDCSiMlXhP1YNTO4fUE0bN/Pz84gfQO7HEKBj2/qriCNIQS1CcOII0xNJoConqt0RbdsZl8klHHEEaYgmKG3QcWSzHoK0adgdgUMKDn3hP1UNWFZBAuEk4eswFG4oSS4yK+sqCxvuOmfPHB1J1TRxBGmIJihNHkIZYGl3x6mPJJ/0jjiANsQTFDSOO2i2Ws0ME/aICCmMjPPhpFAZ14QERAEBqB6P9Ve2tCgAANIpXH89usFAOAEgvPAuNE10PRNsAQkoSUBgbBnX008TExOIH0DuxxKgIKwji/VUHVd5SHEEaYgmKE0eQhlgaPfHYoFZF0SrkvhJHkIZYguKGEUd3Rovldg94y3DGiy14GAutHvgY1JFKuEnYsf3Z7NFQPs0emNA9scSo+dz65m147jh1pO9ltcURpCGWoDhxBGmIpdF0R7TqOH4oRFriCNIQS1DcsOIo3jK8tg3P3BnPSukLFVAYCzPnmrffOTi1c0g9AQDGxaHJ5mprt1hZAAAAYy+MCcLYoJGHPwBAv81Gc5WDqtbM+JGAwsgLg7rG1cdB/EAIACC1+sqCRjPnj7c5GgAAGAfxmCBUSQxjBwCAfooTXi2Wo18koDDyDOoAgGE5GJXSNqgDAIDxFq82nt1goRwA0H/h2Wi8PfiBaFtASEECCiPPoA4AGJYHV69tSnwNKwuUtwQAgPHUaixg+x0AYFDujBbL7VYFhT6QgMJIM6gDAIap1cqCmXO24QEAgHEUjwUOTu0cUk8AgHEUbxleWyxny3ASk4DCSDOoAwCG7dBkc/W1vXNnrSwAAIAxE8YAYSzQKB4rAAD022w8V2meksQkoDCyDOoAgDKIVxYEVhYAAMB4iccAoVJi43adAACDEO8UcYtteEhMAgojy6AOACiLg9H+qgZ1AAAwXuKtwg+v2zSkngAA46zVluEHTh0ZUm8YRRJQGFnxoG52g+onAMBwPLi6OQnWygIAABgf8TxlED/4AQAYlDvjxXK2DCchCSiMpFaDurikFADAoFhZAAAA42vm3NJKzQAAw2LLcPpp1bA7QLlMbe5c+vHk6TMD6Ekx8aDu4NTOIfWEcTE/Pz/sLsBIEEuMsrCyoDFJtr6yIHWSrDiCNMQSFCeOIA2xVG216odzzSuK41XH9J84gjTEEhRXljianZxuukepSgWULR2eZed51k1/SUChyfv3v6vjMXfdfU+pk1DCG2Q8qDs0afsd+ifcLBw9trTqDtAdscSoq68saBrYzZ1JmoAijiANsQTFiSNIQyxV3x1R5cNQ/SSMDRgccQRpiCUorkxxFM9J1rcML/OOEiH55IMfeN+wu0EHtuBh5MQlogzqAICymI2SYlttGwgAAIyOeDXx4XVW5QIAw2fLcPpFAgojJ36QM7tB9RP6b2JiYvED6J1YYtS1W1mQkjiCNMQSFCeOIA2xVF1hnjLc8zeKH/QwGOII0hBLUFyZ4ijeFrC+ZTgUYQsemnzo3vuyUx221ynz9jutVhGXuVQUoyHcJOzY/uzkQSifVpY9/KBKxBLjoL6yoPGeJaws2Lf+tiTtiyNIQyxBceII0hBL1TZzbmmlZgZPHEEaYgmKK1sctdoyPOw0UeZnq3fdfU/HY2zTM1wSUGgSkk/KnGDSiUEdAFB2oTpbYwLK7mcu1lZF2jIQAABGS+PDnEClZgCgbMKW4Y33LGWugJLnGfaWzbY7HDZb8DAywhtiPKiLS0cBAAxbWEEQVhbUheST90RJtAAAQLXdcepI0+swBijzamIAYDwNYstwxosEFEZGKAnVKFQ/sZIYACijsLKgUattBAEAgOqK7/HjMQAAQBnUtwxvdCBKpIVuSEBhZMSDusPrlFgCAMrJygIAABhdYZ4y3OM3slU4AFBW8Y4SYccJc5X0SgIKI6HVqmGDOgZpfn5+8QPonVhiXISVBY3b8ASpVhaII0hDLEFx4gjSEEvVs3fuTNNr85TDJ44gDbEExZUxjlrNVcY7T0Beq4bdAUhh5tzS7XdgUMJNwtFjtk6AosQS4+bg1K7ss0e/s/h6d7RCshfiCNIQS1CcOII0xFI1Ldl+Z4Ptd4ZJHEEaYgmKK3Mche0CQ+WTOhVQ6JUKKFReeANsfEMM4lJRAABlE7bhaVxZEEp0t6rqBgAAVEd8T19bURxtwQkAUDa2DCcVCShUXlwCKlQ/CQM7GKSJiYnFD6B3YolxE1YWNLojwTY84gjSEEtQnDiCNMRStcT39BbKlYM4gjTEEhRX1jgKz1bjHSZSbRnOeLEFD5UXryo4vG7TkHrCuAo3CTu2P3tRDuXTyrR3H1SFWGIctVtZ0OsKSXEEaYglKE4cQRpiqVrCPOUt0daaqp8MnziCNMQSFFf2OAqJs43PXcMOFEXmKhlPKqBQaa3K1MfZeQAAZVUrx72ueQAXV3cDAACqYe/cmabXKjUDAFVirpIUJKBQaTPnlm6/AwBQJQejktz2VgUAgGqKF8vNbphucyQAQDnFW4abq6RbElCorPCGF0o/NbKnKgBQNQ+ubl5ZEEp2t6ryBgAAlFere3jl6gGAqmm3ZTjkJQGFyopLPilpCQBUUbh/+Vw0sIurvAEAAOUW38MfnNo5pJ4AAPQuzFXGO04cOHVkSL2hiiSgUFnxqoLD6zYNqScAAMUciktbzp21sgAAACqiVaXm+B4fAKAq4h0nzFXSDQkoVFKrkpZxNh4AQFWElQWN2/AEcbU3AACgnFRqBgBGiblKipCAQiXFJS0lnwAAVXcwXllgVQEAAFSCSs0AwKiZjSs2m6skp1XD7sCo2jQ5me16zo5s9epV2dNPP5Pd/+MHs7mLFwu3u+2GLdn2bVtr7V6+cjl77NiJ7NiJJxL0uDpalbSMS0EBAFTNg6ubV0je8szF2n3P4fUb25wBAAAMm0rNAMAoiuckzVWSlwSUxNatXZu99RfelP3kK17a9PX5+cvZ4S9+Jfv4pz+XXblypet2n3vzzuxXf+EfZs+5ceneoY88djz7w//yX7MHHnqk535XiZKWAMAoCvczB6d2ZgdOPbz4tQOnjmT71t82xF4BAADLUakZABhFYa4y3Nc0JtuaqyQPW/AkNDExkf3mzDtqySeXL1/JvvW9H2Rf/to3sh8/+PDVv1uZ7XvD67KZf/yWrtt98Qtuzd6//9215JNLl57OvvGd79faDZ9DdZXw9fe/993Zi/Y8tw8/VfkoaQkAjKpDcWnLubPKWwIAQEnVVgKr1AwAjKjZDc1zlbuv3vuE+x9YjgooCf3s3tdnu3belF28eCn77dnfzx58+NHFv3vtT7w8e8dbfj57+UtemP3Ey16Sff1b383V5prVq7N3/uovZitXrqhVOPkP930ku/DUU4t/v3Hy+ux/nHlnduP01uzXrh531933ZE8/80zyn60slLSkrObn54fdBRgJYolxF1YWHF63sWkSO1R/66a0pTiCNMQSFCeOIA2xVF53nDrS9Fql5vISR5CGWILiqhRHYU6yca4yJJ+859xxCbcsSwJKIitXrsz23v7a2p8/efgLTcknwVe+/s3subt3Zn/vVa/I9r3h9twJKK+47UXZ9detr1VUmf2DP25KPgnOnruQHbr69X/9z349m9xwfXbbi16Q/c2387VdRUpaUkbhZuHosaXJUUB3xBIsmJ2cbkpA6aYCijiCNMQSFCeOIA2xVG7xvbpKzeUkjiANsQTFVTGO4rnKUCxAAgrLsQVPIi95wZ5s7do1tT9/5a+/2fKYL33167XPYcuc7dtuyNXuC69tq/Pjhx7Ozpw71/KYx048Xqu6EuzeuaOrfldJGNApaQkAjLq42kmtrLdteAAAoFTCw5e4BL3FcgDAqDFXSbckoCSy53m7a59Pnj6zpEpJ3ZFHH8vm5y/X/nzzc27K1e5/+4svZ//hvo9mn/jM4WWPW7FiRe1zvf1RFMrPN1LSkjKZmJhY/AB6J5ZgYRueeOL6QFTaezniCNIQS1CcOII0xFI5qdRcLeII0hBLUFzV4qi+ZXij+JktNLIFTyJTmyZrnx85+ljbY65cuZKdPH0623bDlux5t+zKvvo33+rY7iNHj9U+lvPcm3dma9asrv35gSOPdNHrpaY2pysTeebc+abXjXuadfumGs4NqwoafeH6LU3tFG2/07na1/5ydmzfdu3cldljxx7Pnon28Ctz/7Wv/bK0v+rq3924fevi6xBLFy9dStZ+r+dqX/vDaP/fbt3ddO+z+5mL2T94+kL2uWiwF7ffKo7ia9Ig+q997Ve9/RBL27ZuWXx94vGTbWOp175V+fej/cG0v9x5Vej/2jVr2l6Tem0/3iu9av++Ve9/2dov0nae9ot+j1T9r9/fXbmSZZcvX66VbA9ttDo/78/YTj9//3nOrVr/O1Vq7uf7Q9l+/4OMr16uj53GSWXr/7i8v3XTftXeH5b7/r18j7L0P/x9mAcPc+DBcnMO8bl1Vfv9j1v/u22/8dx+v/e0Oz9VfA3q/Tm+JoVnwM88U/7ry51bdmWfefQ7i69DBZR6e6nGR1sSPaNO+ayb3khASWT16oUEkLm5i8se9/gTp2oJKKtXpfvV/8rP/YPa53PnL2Tf/eH9hdp6//53pehSzb+/7yPZ2WtJKOFNpL6nWf0mJa9w7pvu/+6Sr39yz0uyHQ3HFGm/07na1/5y7R9//OTCuStXZlu3TF37+uWmY8rcf+1rvyzth8FrPYbq5z786LHK9F/72k/Z/pNXzz18dOPipHYobfnmFZeyHzS00ar9OI4WjltaIa/qv59Ran/N1XHEdIvtOYu0f+nS01fvT54YSP/70X4Z+p9lVxb/FO7xwuRQ3mqTo/T/swztr1u3dsn7WtH2n5qby544eXog/S/S/uZNk9n6dev61n6/+z+54fqW16Qi7Z86fTa78OSTA+l/P9qvev/L1v71163PNk5uyN1+PXGjX/0Pc2D1ebCU/a/f34X4efzkqWXbz9OHdvr9+89z7oULT2anzpwdSP/XrV2bTW3euOSYPO2Hcw+ebV4E+JebtmZnbrj6Pa/1f2rTxuz666/L3X6en72xD9Nbmxfmddv/Vj97nhhJ1f8i/77t+r9c+53GSXnuDVL1f/XqVS3vbfIc084g+5+n/W773+/7t/De2c37f5H4CmOHVuO7PGOcXO3n+fdt04dk/V8Zz98tP07qenxXoP/t/u2K/P4H2f9+/P/p9/1P47lBp/bbHZOn/Sr2v/H3vzBvN9HTHHgZ+v/QmvXZw2uvy3ZeXBjPhLnKt6xbkf3Fhqmef/+N7W+9YUv2b/75b+Q+l3KzBU8iO3fcWPt8+cqVZY975vLCxXhVogSUt//im7NdOxe28/njT3y6thJiFMUlLT86ffOQegLAqOiUNFp2Ve8/nc1OTje9fvuxh9oeGybxU7vwZOttJUkrPFxPbe5itd8fqt5/0lpzbbFHSk8//UzyNvuhKv1sZ74P8xP11bZVVfX+Q7/1432jnSLxGM6N780/Mr27qf/d/ixV+dnbGWT/++HyALe1n1jZObEhzzGNBtn/PLrtfx5l+xnbWdkmvuYv56+m2K8+FDm3SP+7PbdI/1P1IdW54yYk0LTSmKTU7ph28iwEybtYpJM8feu2/43a9TNV//vtwdXrso9sb342+y8e+t6QekPZGfkmsmLFinwHXrl87fji3/MX3/Qz2e2veWXtz3/+l3+V/c23l1YJGQW3n318SUnL37r5xUPqDQCjoh8D2kGqev/p7PD65lV9YYXB68483vLYfgxWiwyqAVLpx3tRVSb4Lj399LC7UEg/+h9WVFdZ1ftfNmVLyO62P/3of6gMMShFkpXbnduPpOpu+5DHWx97YHH1b91Ht9/c1P9uf5aq/OztDLL//UhW7kdSeDt5+t/tzzjI/udRtn+jQSb1tvte/Uiq7rYPRc4t0v9uz+3Hv9cg+18kIa/duVVJYs7T/25/P3l+9lS/nzx9K/Lv266fVfn3DT46vbvpdZinDM9wIbZi5fNuX75kB7nc8S/fn23euDH78te+kf3Bxz7R9rj3vvNt2cte9Pzsm9/9QfYfP/xHPX+/d/zKz2evfdXLa3/+6te/mf3+H3+8p3bCflof/MD7Fl9/6N77slOnz/Tcr0ZnrpX8rKuXUQq6KWH3u4/9IJs592x5qPs235i9d9ueJcf12n7ec7Wv/eXUy4qFm4VWe1+Wuf/a135Z2g/x01iiL8TSxUuXkrW/3Hn9aD/vuePaf+3na//eE/c33Qd9YcNUtm/HbUvar7fdKo7a7cfcqW95/48t1/9O55b99z+I9pc7b1zfH8rQ/7j08YnHT3bc27zbvpX191+29nu5N/f+Vo72w97mz7lp++LXG69JVei/9kev/X5fX/rVfv3+LhRdDpWP66XKq/b7H6X243v0xrnKfl6/+t3+KF8f84yTytx/7Rdrv9v3537Hby/foyzth7+rb/8bLDfn0Ev7nY7p1H4/xtd5zy1r+2UYX49z+63O63UOvJvv0csxnc6rn/upI99sKhrwb7fuzu7YeFPh9sPz6pQan33fdfc92clEz77Jx9KLRB47/ngtAaVTptqqa3//dI8rgcJKhve+41ez5996S+315/7iK9l//rPP9NRWKyH5ZBBBGL9pLWfvU83VTz6zekPH87tpv5dzta/9RuGCWj8nfA433cu1Ubb+a1/7ZWo/7Glat9xkUJE+FDlX+9ofdPuzG6abJrd3zj3Zsp3Gr8VxlKpvZfz9jEL7ec8ra/9Huf3Gr+eNpW7a7/aYcW2/SNt5z6/y76fM7YfVTnmuSWXtv/a1X6b2G2OpH+33eu64tt94fx78h/U3LGmr39cv18fu2+9mnFTG/mt/cO2Lr86/n/oxvYyTjK+1P67tLzd3l6L9vOcWbT9sGd6YgPKu0481JaD02n7KZ9Opk1nongSUROpvFmvXrFn2uO3bttY+X3hqruvvsWlyMvvN9/5aNr11YSXeH//pp7LPf+mvum6nSsKA7pZnmkv2zU5ua3M0DEe4oIYVSEAxYgmWCtvwHF63cXFgF+6L7jh1JLtzalfL48URpCGWoDhxBGmIpXKJk0/CvXq8dSblI44gDbEExVU9juL7njBXGQoJuB+iUXU2liq5448/Ufu87YYb2h6zYsWKWpWU4MEjj3TV/o7pbdn/8r79teSTixcvZb9z6MMjn3wSzJw73vRa8gkAMG7CyoJG8aQ3AAAwGCEZvFF8rw4AMMoeWLV2ybPaA9H9EUhASeTHDz1c+xwSRK5fv77lMbfcvDNbuXJF7c+PPnYsd9tbt0xlv/ned2Ybrr8uO3f+QvZ/3/t72ffv/3HxTldAYxmnoN1qXxi2sA1P/QPonViCpdqtLGhHHEEaYgmKE0eQhlgqh1aVmq32rQ5xBGmIJSiu6nEUtgxvtDu6PwJb8CTy/b/9u+zCk09l11+3Pnvda16ZfebPv7TkmNe/+pW1z488eiw7duKJXO2GN59/+u6315JPzl94Mvu/fmc26T5YZdaqpGXIrIOyCXG6Y/uzGZ+hfFrRvUJhHIklaC3c/zRuwxPMnD/ecrJbHEEaYgmKE0eQhlgqj71zzXOyYfWvucpqEEeQhliC4kYhjlptGR6e6drFgjoJKIlcuXIl+/yXvpr93D/46ezN+/Zmx44/kX37+z9c/Pv/n717D47rOg8Ef0WQImgRpEDxIVqESb8f8iOJ7URK2cGMXMlONnHVxEl2HNsVVLS7k41dU0lcu7WzExdZ5Khm9o8tTc0fVqVcs5oCdzSOy2PHldkokzjWCo6T+JGxx3YUOYlsi4ZkiiBFkAQlgiJBrk5TDfQ9QAPdfW/3ffTvV4UiGuw+PAT54Z7b5zvf91N3vzN5+9ve3Pj8jx/90qrX3/2OH0ne8NpXNT7/j5/5R6xFvgAAIABJREFUz8nlF640Pn/Pu+5qVFUJvvr1byX79u5ufLRz7tyF5ORcPcqyK2kJAHDD0fGJ5JGTjy0/Xq8CCgAAkL/4sFx8+hcAYFg8ui19WC7s6UpAoUkCSo4+/8W/SF776lcmrz40kdz7gV9MvvvkbDJ//lyyf9++5I7bb9yQfOXr30wlpjS9fN/e5C1vfH3j880jf5RcTm4koLzrrncsP+eed9/V+FhPGP9Tn3s4r79SYZS0BABY4WQBAAAUJ04+CbxXCQAMq+Nje5Mj808tP262DLc+IthU9ATqJFRB+cTx30u++OW/SpaWrjUSUd7xtrc0kk8uX34hefgLM10lh+zeNd5ovTOMlLQEAEh7NLqBi6vFAQAA/RGvve/d85qCZgIAULxmy/BWoWU4BCqg5OzK1avJ5x7+fOOjG5/5wz9pfLQ6c3Y++ejhf53n9CpDSUsAgDQnCwAAYPDCmlulZgCANC3DaUcFFEpHSUsAgNWcLAAAgMGL19wqNQMAJMmJLen1UPOwHEhAoXSmFlbf1AEAcONkQSs3dQAA0F8qNQMArBYScuM93CNahpNIQKGEJhfTGynHoo0WAIBhFU4WtJ62DCcL1qoeBwAAZKdSMwBAe/Ee7kFVUEgkoFAyD55+IvVYSUsAgBVrnSyIq8cBAAD5UKkZAKC9uGV4ow3P4vkCZ0QZSEChVOKsuJnRnQXNBACgnI6PpUt+h+pxThYAAEC+whpbpWYAgPVNR+9VqtaMBBRKI/xACplxrZwqAABIi08WBFMXVUEBAIA8xWtslZoBAFaL2xMe0oZn6ElAoTTikkyST6iSpaWl5Q+gd2IJOnM0OnnZelMnjiAfYgmyE0eQD7FUDJWa60UcQT7EEmRXtzhyWI7Y5qInAE1xSabp7XvbPBPKJSwSTp5SUgyyEkvQuRNb0icvmycLwokDcQTZuSZBduII8iGWiqFSc72II8iHWILs6hpH4bDcIycfW36sAspwUwGFUoiTTxrZclHJJgAAbghrpaPjB1JfOzI/W9BsAACgXqYWVrffAQBgbeGwXGsVlJDIG+/9MjwkoFAKh6MNk2NRWXkou5GRkeUPoHdiCTp3fCxdLW5y8ULyD178EEeQD7EE2YkjyIdYGrywtm7lvcrqE0eQD7EE2dUxjsJhuUejwgJxQi/DQwseChfKMMUlLVU/oUrCImH/vpWTMKF8Wl1698EgiSXoTrO/auub4/c+/2zyxKtet/xYHEFvXJMgO3EE+RBLg/fg6SdSj8OaO6y9qS5xBPkQS5BdneMoHJY7Mv/U8uPwnmWzZTjDRQUUCjd1cXVJSzd1AAAbm46roOivCgAAmcRr6njNDQDAas3Dcq3iPWCGgwQUChff1M2M7ixoJgAA1RKfIDhw+fnkrvNnCpoNAABU29TC6VWVmsNhOQAANuawHIEEFArlpg4AoHfhZEG8dvrtHzxe0GwAAKDaphZWV2oGAKAz8WG5sAcsCWX4bC56ApTL+K0bVx85e+58bn+emzoAgGyOjU80knqbDizeqILy5Z27C5wVAABUz+Ri1H5nu/Y7AACdah6Wa32v8sj8bHLPtjtz+zN2bbCX3cleN/0lAYWUj9z7wQ2fc9/9D+SWhBLf1IUNFKiipaWloqcAtSCWoHvN/qrNdVVow/MT83PJn28fL3hmUG2uSZCdOIJ8iKXBaN0oCcIaOz7FS3WJI8iHWILs6h5HIYG3dV11MOqEkUVIPvnYRz+c23j0hwQUCrPWTV3YQIGqCYuFk6dOb/xEYF1iCXoX+qu2Jva+75knk//t5l0FzgiqzTUJshNHkA+xNDiH52dTj8Mam3oQR5APsQTZDUMchQTe1sNyoQ1PWGcpQjA8NhU9AYaXmzoAgHzorwoAAL0LB+UORadztQoHAOhNvOcbFyWg3lRAIeXjDz6UzG/QXieP9jtu6qibkZGR5c/rXj4N+kksQW/iNjzBkXNPJfdse1OBs4Jqc02C7MQR5EMs9d/kYvr9Tu9T1o84gnyIJchuGOKo3WG5PNob3nf/Axs+R5ueYklAISUkn+SRYLIRN3XUSVgs7N+38n84lE+r66IB+kksQTZHxyeSR04+tvz41deuNOJKHEH3XJMgO3EE+RBLgxGfyp3erlJznYgjyIdYguyGJY7WOiw3dXEucwJKJ3vYu27dmenPIDsteCiEmzoAgHw1+6s2Hbj8fPI7Z54sbkIAAFAB8fuUjQ2THE7nAgAMs3BYrpV24cNDAgoDt1afLzd1AADZ6a8KAADdOTw/m3p8LNosAQCgeye2bE09brbhof4koDBwUwtzqcdHxw8UNBMAgHpp118VAABYLayVw5q5lYNyAADZhapy8R7wkSjxl3qSgMJANTZBFtObIMfHtN8BAMjD7NaXJV/euTv1tdBfFQAAWC1eK0+P7WlslgAAkF28Bxz2iB2Wqz8JKAxUXNLSTR0AQL7+zSvemHrspg4AANYWr5VnRncWNBMAgPoJe8Azo+nqcpOL5wuaDYMiAYWBclMHANBfT219WeqxNjwAALDa1MLpVe13wmE5AADyMx1VQQlrMOpNAgoD46YOAKD/nhp9WfJvXvGG1Nf0VwUAgLSphdXtdwAAyNfMtnQFFIfl6k8CCgMTl1RyUwcA0B//ae/B1OODbuwAACBlcjG9Pj42PlHQTAAA6mutNjwOy9WbBBQGJi6pNL19b5tnAgCQRaiC8uWdu5cfN04W6K8KAAAN8fuUYVMkbI4AAJC/o1Gi78GoYwb1IgGFgYhv6hrZblHJJQAA8vPpqAqK/qoAAHDD4ejU7fSYg3IAAP0S9oRbq6CEw3Leq6wvCSgMRHxTp6QldbO0tLT8AfROLEF2zRj687Hx1Nf1V4XuuCZBduII8iGW8hU2Ow5Fp24dlKs/cQT5EEuQ3bDG0aPRemtqYa6gmdBvm4ueAPUXNjrc1FFnYZFw8pRMTchKLEF2rXF0MrlRSry1t/3UxTnrMOiAaxJkJ44gH2Ipf3FryumxPdrv1Jw4gnyIJchumOPo+Nje5Mj8U8uPw3uWYQ/Ze5X1owIKfRc2Olq5qQMAGIy4v6oKKAAADLu43Pv0du13AAD6LewNt7bhCeI9ZOpBAgp9F9/UzYzuLGgm0D8jIyPLH0DvxBJk1xpHJ7Zs1V8VeuSaBNmJI8iHWMrPWmthp26HgziCfIglyG6Y48hhueGgBQ99tdZNXaiAAnUSFgn79638vw7l04atdx/kQSxBdnEczb4YR6G/aqoNz8Kc9RhswDUJshNHkA+xlK+wFm5lXTwcxBHkQyxBdsMeR+GwXKtwWE4bnvpRAYW+clMHAFCs0F+1VbO/KgAADJvWxOzgWHQKFwCA/glteOK94iPzswXNhn6RgEJfuakDACjWWv1VJxfPFzQbAAAoxoOnn0g9DpsfYa0MAMDgxHvFB69eblRCoT4koNA3h6OMtbDx4aYOAGDwpqMqKGu1SQQAgDqLqwDOjO4saCYAAMMrPiwXkk9+NeqoQbVJQKFv4o2NeOMDAIDBiPuoNvurAgDAMAjvU8Yna7UKBwAohsNy9SYBhb5wU8ewWVpaWv4AeieWILu14kh/VeieaxJkJ44gH2Ipu7gFpfcph484gnyIJchOHDksV3ebi54A9eSmjmESFgknT8nOhKzEEmS3XhxNb9+bOk1wUG9VaMs1CbITR5APsZSPVZWat6vUPEzEEeRDLEF24uiGZhueycWVpJOpi3OrElOoJgkopIzfunHv07Pnzm/4HDd1AADlEm7gWm/swsmCsGaTKAwAQJ2tVdLd5gYAQLGOjk8kj5x8bPlxpxVQdm2wl93JXjf9JQGFlI/c+8ENn3Pf/Q+sm4Tipo5hNDIysvz5MJdNg6zEEmS3Xhw9ui19suDw/KwEFGjDNQmyE0eQD7GUzdTCXOrxvXteU9BMKJI4gnyIJchOHN1wYsvWrg/LheSTj330w4OaIj2SgELu4pu6o+MHCpoJDEZYLOzft3JBDOXThnnRAL0SS5DdRnF0fGxvcmT+qeXHzf6qkoUhzTUJshNHkA+xlE1Y67YmYAfWvsNHHEE+xBJkJ45WhDY88WG5sMfssFz1bSp6AtRLYxMjuqkLGx0AABSv2V+1VeivCgAAdRSvdcOGRlgTAwBQvHgPOewxd9qKh/JSAYWUjz/4UDK/TnudYL32O6GMeys3dQAA5dJrf1UAAKiaeK07M7qzoJkAABBrHpZrLW4wuXh+3Yp1993/wIbjatNTLAkopITkk/USTDbipg4AoNxCf9VW2vAAAFBHUwunG2vdVkq6AwCUy/TY3qgNz+nk2PjEms/tZA971632poumBQ+5cVMHAFB+4WRBvEY7ElWxAwCAqgunZ1t5nxIAoHziQ3HNw3JUlwQUcuOmDgCgGuJTBAdfvLGLE4kBAKDKwmG5VtPb9xY0EwAA2nFYrn4koJAbN3UAANXQ7K/aFJJPfnVhrsAZAQBAfuL3KcPaV8tJAIByiveUDzooV2kSUMiFmzoAgGoJ/VVbxes5AACoqsPRqdl47QsAQHmEPeX4sJz3KqtLAgq5cFMHAFAt+qsCAFBHYU0bt5d0UA4AoNziveV475nqkIBCZm7qAACqJ27DE0xd1IYHAIBqi9e002N7GmtfAADKy2G5+pCAQmZu6gAAquno+ETqsZs6AACqbnWr8J0FzQQAgE45LFcfElDILL6pm96u/Q7DZ2lpafkD6J1Yguy6iaMTW7amEoedLIAVrkmQnTiCfIilzsXvUwbhsByII8iHWILsxFF7DsvVw+aiJ0C1rXVTp/0OwyYsEk6eWh0LQHfEEmTXbRyF5JPwhvyR+aeWv3Zkfja5Z9ud/ZgeVIZrEmQnjiAfYqk7UwurKzWDOIJ8iCXIThytLxyWa9U8LGfvuVpUQCETN3UAANV2fCxdvW5y8YLTBQAAVFJYy7Y6Fp2iBQCgvMJhuaPjB1JfC4flqBYJKGTipg5uGBkZWf4AeieWILtu42it/qqTi+f7MTWoFNckyE4cQT7EUmfiSs1hjdvabpLhJo4gH2IJshNH64sPyx3UMrxytOChZ4ejjDM3dQyrsEjYv2+l+k8on6Z3H3RPLEF2vcbR9Is3dq2JxeHNe4nFDDPXJMhOHEE+xFLn4vcqp6PNC4aXOIJ8iCXIThxtrHlYrvleZaMNz+J5bXgqRAUUehafKnBTBwBQTfEN3CEnCwAAqJDwPmVYw7bSKhwAoJriPed4T5pyk4BCT9zUAQDUx1pteKYuzhU0GwAA6E7cQtL7lAAA1eWwXLVJQKEnbuoAAOrlaNRyx00dAABVsapS83aVmgEAqsphuWqTgEJP3NQBANRLOFnQemMXThYobwkAQNmttWaNT80CAFAtDstVlwQUuuamDlZbWlpa/gB6J5Yguyxx9Gi0pptacLKA4eWaBNmJI8iHWFpfvGZVqZm1iCPIh1iC7MRRZxyWq67NRU+A6olv6u7d85qCZgLlEBYJJ0+56EFWYgmyyxpHx8f2Jkfmn1p+PLl4oXG6QLIxw8Y1CbITR5APsbS+sBER1qytjkWnZUEcQT7EEmQnjroTDsu1rvXCHrVk4/JTAYWuhA2I+KbOhgQAQD3orwoAQJUcnp9NPQ4bEmFNCwBA9YXDcq2ah+UoNwkodCXegHBTBzeMjIwsfwC9E0uQXdY4mo5v7NzUMaRckyA7cQT5EEvtxWvVmdGdBc2EshNHkA+xBNmJo845LFdNWvDQFTd1sFpYJOzft1LyK5RP07sPuieWILs84iiubtcoa64ND0PGNQmyE0eQD7HU3tTC6cZatZWS7KxFHEE+xBJkJ466d3R8Innk5GPLjx2WKz8VUOiYmzoAgPoLJwviNd6RqLQ5AAAUbXLxfOqx9ykBAOrnxJZ0J47mYTnKSwUUUsZvbV/RZOqHj6Ueu6kDAKin6e17G8nHTQejJGQAACha63o1CGtYAADqpXlYrnXtFw7L/dL+n1zz+evtdTMYElBI+ci9H2z7e5Mf+i+px27qAADqKbTbCf1VJxdvnCYIJwvCTZ4EZAAAyiBOPgkbE1pGAgDUU3xY7ke3jyYf++iHC5wR69GCh4686YtfSD0OGxJu6gAA6mt6LJ1sfFgbHgAASiJemx4bnyhoJgAA9FvzsFzTjjNzyU989pMFzoj1SEChI3EQxxsSAADUS5xsrL8qAABlENakh6IWkQ7KAQDUW7w3HRdPoDy04CHl4w8+lMyfO5/6Wii9/ptn5lJfc1MHAFBvjTLmLW14gqmLc9aBAAAUKqxJW4U2kWHtCgBAfcXvSYYqKH/2r/7PVGWUJu15iqUCCikh+eRs9PHe2b9PPcdNHQDAcDgalTJXAQUAgKLFa9KZ0Z0FzQQAgEFpHpZrFfaw431tiicBhQ1NLZxOPZ7erv0OAMAwOLElnXSsDQ8AAEUK71PG7XfCYTkAAOrPYblqkIDCuuLkk0DZdQCA4RBOFhwdP5D62pH52YJmAwDAsJtaWN1+BwCA4RAOy7V26XBYrpwkoLAuN3UAAMPt+Fi6+t1BN3YAABRkcjG9Dj0WnYIFAKC+QvJJvFftsFz5SEBhXW7qoDNLS0vLH0DvxBJkl3ccxf1VGycLFvVTpf5ckyA7cQT5EEs3xJWawxq19QQsrEccQT7EEmQnjrKJD8uFvWyH5cplc9EToLwePP1E6nHIKHNTB6uFRcLJU6vbVQHdEUuQXb/iaPrFG7vWxOTw5r/EZOrMNQmyE0eQD7G04nB0unU62nyAdsQR5EMsQXbiKLvmYbnW9yrDYbmZbTvWeRWDpAIKbcXZYjOjOwuaCQAARYpv4PRXBQBgkMLaM6xBW9lkAAAYTnEiclwpj2JJQGFNIVDjm7q4pxawYmRkZPkD6J1Yguz6EUdxG55g6uJcbuNDGbkmQXbiCPIhllavPVVqplviCPIhliA7cZSdw3LlpgUPawqlilpJPoH2wiJh/76VGAnl0/Tug+6JJciun3F0dHwieeTkY8uP3dRRZ65JkJ04gnyIpRviU63T27XfoXPiCPIhliA7cZSPkIgc9q5b14hH5meTe7bdWeCsaFIBhTW5qQMAoNWJLekqKOFkgfKWAAD021prTu13AACGW7x3fTDq7EFxJKCwips6AABi4WTBo9GacGpBGx4AAPorXnOq1AwAQNi7dliunCSgsEp8U3fvntcUNBMAAMrk+Fj6ZMHk4gWteAAA6Kuw5mx1bHyioJkAAFAm8WG5w/OzBc2EVhJQSGlsIkQ3daqfAAAQhCoorScLgsnF8wXNBgCAuos3EUL1k7AmBQCA+LBcqIIS73MzeBJQSFmrpKWbOtjY0tLS8gfQO7EE2fU7jqajGzulLakr1yTIThxBPoY5luK15szozoJmQtUNcxxBnsQSZCeO8rPWYTktw4u3uegJUC5xCXU3dbCxsEg4ecrmG2QlliC7QcRRXB2vcbLgxTWkqnnUiWsSZCeOIB/DHEsh+SSsNVuFw3LQrWGOI8iTWILsxFH+jo5PJI+cfGz5cXif8nsFzgcVUGjxpi9+IdlxZnUFFAAAaAonC+I14hH9VQEAyFnc6tH7lAAAxE5sSXfyCHvdBx7/dkGzIZCAwrI3/tkXUo/d1EHnRkZGlj+A3oklyG4QcTS9Pd2G52B0MhXqwDUJshNHkI9hjaW4/U68BoVuDGscQd7EEmQnjvK11mG5n/jsJwuaDYEWPBW0c2wsmbhjf7Jly+bkypWryRPfP5EsXs7+pv+Bx/869fjY+ETmMWEYhEXC/n0rF7dQPk3vPuieWILsBhVHod1O6K86uXijfWMojR42CCQwUxeuSZCdOIJ8DGssxckngZaP9GpY4wjyJpYgO3HUH2FPu3X9uOP0XOPjwh4JzEWQgFIho1u3Jr/48z+TvP1tb059fWnpWjLzF19N/vBPH02uX7/e09ih/U6rsKEQMsYAAGAtj25bSUAJDs/PSkABACAXUwvpNuH37nlNQTMBAKDswp5262G50IYndP74yvt+peCZDScteCoiZMT9xtT7G8kn165dT779+N8mX/n6N5Pvn3jqxd/blNzz7ruSqX/yCz2PH5cimh6TEQYAQHvHo/ViqIIyeelCm2cDAEBnwpqyNdE5UP0EAID1xHvbcfEFBkcFlIr46cmfTCYOvDy5fPmF5HenP5mceOqHy7/34z/61uT9v/BzyVvf9PrkR9/ypuQb3/6brsYOARgywVq5qQMAYD3xyYJg6uKcdSQAAJmENWWrUGVPpWYAANYTvycZ9r4PPP7tgmYz3FRAqYBNmzYlk3f/eOPzP5n5Uir5JPjqN77VqIYS3PPuu7se/47H/zr12E0dAACdODo+kXqsAgoAAFnFa8qZ0Z0FzQQAgKpoHpZr9cYvPlLQbIabBJQKeNPrXpNs3Xpz4/Ov/tdvrfmcv/zaNxq/3nH73mTfntu6G//P0iWIprdrvwMAwMZObEknLWvDAwBAFlMLpxtrylbhsBwAAGwkPiynAkoxtOCpgNe86mDj17PnzifPXbq05nNmf/hMsrR0LRkZ2ZS84o6XJ6dOP9vR2O+dfWLV1769fyLZ1ft0l51fuJh6vLS0tPz5yMhIV2N18lrjG7+o8VuFGNy8xuvLPH/jG78s44fYCTHU+rhK8ze+8csw/lpxlOf4sdmRlzU2BMJGQdOR+dnkp7e/tZTfH+Mbv9PXxrGzXiz1Orcqf3+MP5jx13tdFea/3jWp1/FbX7fea8v6/an6/Ms2fpaxOxk/65+R1/ybsXT9epJcu3Zt3fE7/Tu208/vfyevDb8/uXg+9bWHbr294z+rDPNv1c+fD1Wff7fjt762l+vjRvdJZZv/sPx862b8Ovx8a1X9+d+Ip07uk4bt51vV59/t+K2v7ffPnnavzyu+BvXzOb4m3XRTsuo5vfwZVby+xOPvujV71bsL20eTmfnZ5ZbhoQ3Pe296QkLzgElAqYDxnWONX58++Uzb51x/8S707LlzyZ7bdiWvOjSRfO2/dZbRFd/U/c2735N87Nc/3PtkW/y7hz6dXHgpCSX8EDl56sbGRPjhs39f54HeyWuNb/wix587c/bGazdtSnbvGn/p69dSzynz/I1v/LKMHxbezRhqvvapH56qzPyNb/wyjB/H0Y3nXevotb3O/xM7b0mm/uqPlx+/+vrV5MfGRpOvnXsul/HXUtbvfy/j37xlS7J3jQqGWcZ/4YUrL65Pnh3I/Psxfhnm/+Id1vJnYY13+77da8ZSr+OX+ftftvFHR7eu+rmWdfxLi4vJs2fPDWT+Wca/dedYsm10tG/j93v+Y9tvWfOalGX8+XMXkueef34g8+/H+FWff9nGv+Vl25IdY9s7Hj+8rvXN97znH94Da74Pluf8m+u7ED9nzs6vO34nc2in39//Tl773HPPJ1PfO5362h9MvDbZv3N37vMf3bo1Gb91x6rndDJ+u9eG+c+fv7HZMb5zR3LLLS/rePzW13Yy/727d3W9wbPR/DuJkbzmn+X/Z7v5rzf+RvdJnawN8pr/li2b11zbdPKcdgY5/07G73b+/V6/hZ+d3fz8zxJf4d5hrfu7Tu5xOhq/k3/fNnPIbf6b4vfv1r9P6vr+LsP82/3bZfn+D3L+/fj/0+/1T+trg43Gb/ecTsav4vxbv/833rcb6ek98DLMvx/f/9bxd9+2K/kXv/nrHb92PVs/+8kkCR8vCXvhElAGSwueCtiyZUvj18XFy+s+78yzN25Ct2zuPK/o2PhE8vl/+puNxJPgK+/7lR5nCQDVstF1teyqPn/yFd7Ez9tzz69deS/21OjLki+3bAocuPx88j/MzeY+n7oKm+t5W7xc7Z8PVZ8/+br5pfvhPF25cjX3MfuhKvNsZ+laZ0lb3Wg9KVhFVZ8/9Nv7zz6dehzWmF/uIPmkF1nisd1rW3/udfszsB8/M9vpx8+iQc6/H651mGich5FNGyc2dPKcVoOcfye6nX8nyvZ3bGdT258PS2t+fZBzyPLaLPPv9rVZ5p/XHPJ67bAJCTRraU1Savecdjo5CNLpYZGNdDK3buffqt0885o/Kx5/ac/7qTe+ubEH/r++9u0Fz2j4uPOtgAP7b2/8eu369XWfd/Wlhf7mLhJQLuzem/zNT70n+fyv/2byb//DHyQX9uztfaIAUCH9uKEdpKrPn3z142a1m5vqT+89mHr8y6cloAD5yPIGXztVeYPvhStXip5CJv2YfzhRXWVVn3/ZlC0hu9v59GP+oTLEoHSarNzNa//3Z76XehyvMfPUj/m3JoV3myDej4TydrL83dsZ5Pz7kazcj6TwdjqZf7d/x0HOvxNl+zcaZFJvuz+rH0nV3c4hy2uzzL/b1/bj32uQ88+SkNfutVVJYu5k/t1+fzr5u+f1/elkbln+fdvNsyr/vlUS9rrDnvdnfudfNfbAGbybNr3q7vWzGijcv/znv9VYxH/l699MPvW5h9s+79d+5X3JW974+uTbj/9t8u8/+dmOxg79tD720ZWWOx9/8KFk/tz5dV7RufMvlfxsapZRCropYdfpa41v/KLGD5plxcJi4ZlTZ5KrS+nM6DLP3/jGL8v4IX5aS/SFWLr8wgu5jb/e6/oxfqevHdb5Gz/f8Zu/v1YcxdekTsfv9P9YMHH5+eS7P/h66mv37L8zmdm2o6P5bzR+r6+twvjrvW5Yfz6UYf5x6ePTZ862jaVe51bW73/Zxu9lbZ7nz7dexu/0OXUfP/Q2v+Pl+5a/3npNqsL8jV+/8ft9fenX+M31XTiXdu3ateVS5VX7/m/02n+weCH5k9lvpb72ule+M3lyc+ebzmX6/9mP61e/x6/z9bGT+6Qyz9/42cbv9udzv+O3lz+jLOOH32u2/w3We8+hl/E3es5G4/fj/rrT15Z1/DLcXw/z+Gu9rtf3wLv5M3p5zkav6/f4Yb86T6173/fd/0ByNqe9bzrj6EUFXLkaTg11kEV+042L/gaFUtYVkk8uojGUAAAgAElEQVQGEYTxD628X2t84w9y/HBBbb4m/BoW3euNUbb5G9/4ZRo/9DRtWu/NoCxzyPJa4xu/rOO3/n4cR3nNbb3nhI2BmdEdyeTiheWvTV2cW05AKfr7U+bxO31dWedf5/Fbv95pLHUzfrfPGdbxs4zd6eur/P0p8/jhrYlOrkllnb/xjV+m8VtjqR/j9/raPMf/4LmTqcfTY3uS7960OTwxl/F7fU6vr+339cv1sfvxu7lPKuP8jT+48cXXxt+f5nN6uU9yf238YR1/vffu8hi/09eWdfw896bzTmahexJQKuCZuTPJrTt2JBuVYdr80u9fqXiZXqiacEENJ5CAbMQSZFdkHB0dn0geOfnY8uPJSxfWeTaUm2sSZCeOIB/DEktTC+m/48yojQPyMyxxBP0mliA7ccQw0FiqApqZcFtvvnnd5+3bs7vx63OXFvs+JwAAaHViy9ZUifRDVy9LQgEAYENx8kkQKqAAAADVIwGlAubOPNv4dc9tt7V9zk033dSokhKcmH16IPMCVoQ2PM0PoHdiCbIrKo5C8km8UXBkfnagc4A8uSZBduII8lH3WJpamEs9lnxCP9Q9jmBQxBJkJ46oOy14KuD7P3iq8eve3bclt2zbljx36dKq5xx6xYFk06abGp//8JlTA50fDLuwSNi/b+XNkVA+LWuvUBhGYgmyKzqOjo/tTY7MP7X8eHLxQqMKysy2HQObA+Sh6FiCOhBHkI9hiKWwZmx1bHyioJlQV8MQRzAIYgmyE0cMAxVQKuA7f/+95LnnLzUSTO5654+s+ZyffMeNrz/9w1PJqdPPDnJ6AADQEKqgzIymk00mF88XNBsAAMoubr8T1pKtbR0BAIBqkYBSAdevX0/+7C+/1vj8Z++ZTN78htelfv+n7n5n8va3vbnx+R8/+qWBzw8AAJqmx/amHsebCgAA0HQ4atkYryUBAIBq0YKnIj7/xb9IXvvqVyavPjSR3PuBX0y+++RsMn/+XLJ/377kjttv3Jh95evfTP76O39X8EwBABhmcbudQ1cva8MDAMAqIVE5rBVbTY/tafNsAACgClRAqYhQBeUTx38v+eKX/ypZWrrWSER5x9ve0kg+uXz5heThL8wkn/rcw0VPEwCAIbdWG56pi3MFzQYAgLKKWzVKPgEAgOpTAaVCrly9mnzu4c83PoByWVpaKnoKUAtiCbIrQxwdHZ9IHjn52PLjUAEFqqYMsQRVJ44gH3WNpbhV4/R27Xfon7rGEQyaWILsxBF1JwEFIKOwWDh56vTGTwTWJZYgu7LEUWi3E6qgTC7eSDwJpdXDBoNTrVRFWWIJqkwcQT7qGktx8kmgZSP9Utc4gkETS5CdOGIYaMEDAADk7tFoA2FqQRseAABuiNeGEpUBAKAeJKAA5GBkZGT5A+idWILsyhJHx8fSJdRDNRSteKiSssQSVJk4gnzULZZCdbxmpbymY+MTBc2GYVG3OIKiiCXIThxRd1rwAGQUFgn7962c1Anl0/Twg+6JJciuTHH05OatqTY8wdTFOaXVqYQyxRJUlTiCfNQxlg7Pz6Yeh+onYe0I/VLHOIIiiCXIThwxDFRAAQAA+mI6roKiAgoAwNCL14QzozsLmgkAAJA3CSgAAEBfxNVOGuXWJaEAAAytqYXTjTVhq1ABBQAAqAcJKAAAQF+EUurxhsKRqOQ6AADDY3LxfOqx5BMAAKgXCSgAAEDfTG9Pt+E5GJ14BQBgeIQKKK3itSIAAFBtElAAAIC+CW14ZkZXWvGEkuvxxgMAAPUXrwFDtby4ZSMAAFBtElAAAIC+mh5Ln2w9rA0PAMDQideAx8YnCpoJAADQLxJQAACAvopPtoYqKJOXLhQ0GwAABi2s/Q5FrRhVPwEAgPqRgAIAAPRVo7z6aHqDYeriXEGzAQBg0OK13/TYnsYaEQAAqBcJKAAAQN8djUqsq4ACADA84rXfzOjOgmYCAAD00+aiJ0C5jN+68c3f2XPnBzATAADq5MSW9AnXZhsepdcBAOptauH0qvY7oQIKAAB0a9cGe9md7HXTXxJQSPnIvR/c8Dn33f+AJBSILC0tFT0FqAWxBNmVNY5CifWw0RA2IJqOzM8m92y7s8BZQXtljSWoEnEE+ah6LE0trG6/A4NW9TiCshBLkJ046l1IPvnYRz9c9DTYgAQUgIzCYuHkqdMbPxFYl1iC7MoeR8fGJ1IJKAdVQaGkyh5LUAXiCPJRh1iaXEy33zkWtWaEfqtDHEEZiCXIThwxDDYVPQEAAGA4hCooM6MrySaNNjyLKusBANRVa/JxENaCYU0IAADUkwoopHz8wYeS+Q3a62i/A6uNjIwsf658GvROLEF2ZY+j6bG9qVOwYVPCKVjKqOyxBFUgjiAfVY6lw/OzqcdhLQhFqHIcQZmIJchOHGVz3/0PbPgcbXqKJQGFlJB8IsEEuhMWC/v3rfQvDuXTLBqge2IJsqtCHMXtdg5pw0MJVSGWoOzEEeSjyrEU1nhhrdfKmo8iVDmOoEzEEmQnjrLpZA971607BzAT1qMFDwAAMDBxG55g6uJcQbMBAKBf4jXe9Nge7XcAAKDmJKAAAAADdTRquRNOxwIAUC+h1WKr6e3a7wAAQN1JQAEAAAbqxJZ0FZRQmj3eoAAAoLrWWttpvwMAAPUnAQUAABioUHr90WgDYmpBGx4AgLqI13ah/Q4AAFB/ElAAcrC0tLT8AfROLEF2VYmj42PpEuyTixe04qFUqhJLUGbiCPJRxVgKa7tWx6IWjDBoVYwjKCOxBNmJI+puc9ETAKi6sEg4eUrbAMhKLEF2VYqjUAUltOFp3ZyYXDyvNDulUKVYgrISR5CPKsbS4fnZ1OOw5gtrPyhKFeMIykgsQXbiiGGgAgoAAFCI6agKytSCG3AAgKqL13Txmg8AAKgvCSgAORgZGVn+AHonliC7KsVRXO3k0NXL2vBQGlWKJSgrcQT5qFIsheSTsKZrNT22p6DZwIoqxRGUmViC7MQRdacFD0BGYZGwf9/KmymhfJrefdA9sQTZVS2OQin2sCHRekr2yPxscs+2OwucFVQvlqCMxBHko2qxFFoqtpJ8QhlULY6grMQSZCeOGAYqoAAAAIWZ3p4uyX4wOjELAEB1rGq/s137HQAAGCYSUAAAgMKENjwzoyuteELJ9njjAgCA8ltrDRe3XAQAAOpNAgoAAFCoR6ONiamFuYJmAgBAr+I13L17XlPQTAAAgKJIQAEAAAp1fCxdmn1y8UIyeelCQbMBAKBbYe0W1nCtVD8BAIDhIwEFAAAo1JObt6ba8ARTF1VBAQCoinjtNj22p7HGAwAAhosEFAAAoHBHxydSj1VAAQCojnjtNjO6s6CZAAAARZKAAgAAFO7ElvQJ2UNXL0tCAQCogKmF0421W6tQAQUAABg+ElAAAIDChRLt8UbFkfnZgmYDAECnphZWt98BAACGkwQUAACgFI5FbXgORidpAQAon8nFdNW6eE0HAAAMDwkoAABAKYQqKDOjO5Yfh1Luh1VBAQAorXitFtZyYU0HAAAMJwkoADlYWlpa/gB6J5Ygu6rH0fTY3tTjqYXTBc2EYVf1WIIyEEeQjzLHUrxWi9dyUBZljiOoErEE2Ykj6m5z0RMAqLqwSDh5yuYYZCWWILs6xNHMth2px6EKyuSlC6u+Dv1Uh1iCookjyEeZYykknxyKWiZOj+0paDbQXpnjCKpELEF24ohhoAIKAABQGnEbnmDq4lxBswEAoJ3JxfOpx5JPAAAAFVBIGb9154bPOXvu/IbPgWEzMjKy/LmyadA7sQTZ1SGOjo5PJI+cfGz5caiAAoNWh1iCookjyEdZY2lV+53t2u9QXmWNI6gasQTZiaNsdm2wl93JXjf9JQGFlI/c+8ENn3Pf/Q9IQoEWYbGwf9/KKZ9QPs2iAbonliC7usTRiS1bG5VQmiXdteFh0OoSS1AkcQT5KGssxckngbUaZVXWOIKqEUuQnTjKJiSffOyjHy56GmxACx4AAKBUQvJJXML9yPxsQbMBACB2OFqb3bvnNQXNBAAAKBMJKAAAQOkcH0uXcJ9cvKAVDwBACYQ1WbNSXZPqJwAAQKAFDykff/ChZH6D9jra7wAA0G+hCsrM6I5G4knT1MU5mxsAAAULa7JWoXJdWLsBAEC/3Xf/Axs+R5ueYklAISUkn0gwAQCgDKbH9qYSUFRAAQAo3tTC6dTjmdGdBc0EAIBh0ske9q5brU2LJgEFIAdLS0tFTwFqQSxBdnWKo7jaSSj1HpJQVEFhEOoUS1AUcQT5KFMsxcknQaiAAmVXpjiCKhNLkJ04ou4koABkFBYLJ0+tfgMG6I5YguzqFkehlHvY0Gjd6DgyP5vcs+3OAmfFMKhbLEERxBHko2yxNLWwuv0OlF3Z4giqSixBduKIYbCp6AkAAAC0M719b+rxwauXG5VQAAAYvNb2iMGx8YmCZgIAAJSRBBSAHIyMjCx/AL0TS5Bd3eIotNuZGV1puROST341OnkL/VC3WIIiiCPIR1li6cHTT6QehzVaqFgHVVCWOIKqE0uQnTii7rTgAcgoLBL271spORvKp+nhB90TS5BdXeNoemxv6rRtaMnjtC39VNdYgkESR5CPMsXS5KV09ZOwRoMqKFMcQZWJJchOHDEMVEABAABKLVRBaRWqoMQbIAAA9E9IAI7bIE6P7WnzbAAAYFhJQAEAAEotlHZvbcMTTF3UhgcAYFAmF8+nHks+AQAA1iIBBQAAKL2jUcsdFVAAAAYnVEBpNb1d+x0AAGA1CSgAAEDpndiSroISSsDHGyEAAOQvXnM1qtNFLRIBAAACCSgAAEDphY2OR6ONjqkFbXgAAPrt8Pxs6vGxqDIdAABAkwQUAACgEo6PpUu9Ty5e0IoHAKCPwlorVJ5rpfoJAADQjgQUAACgEhrl3kejKigXVUEBAOiXeK01PbansSYDAABYiwQUAACgMo5GJd9VQAEA6J+phdOpx9Pb97Z5JgAAgAQUAACgQk5sSZ+4DSXhJaEAAOQvTj4JtN8BAADWIwEFAACojFDyPZR+b3Vkfrag2QAA1NfUwur2OwAAAOuRgAKQg6WlpeUPoHdiCbIbhjg6FrXhOagKCn0wDLEE/SaOIB9FxFKjytxien0Vr8GgSlyTIB9iCbITR9Td5qInAFB1YZFw8tTqsrRAd8QSZDcscRSqoMyM7ljeFLmxQXJeSXhyMyyxBP0kjiAfRcXS4ajCXKh+EtZgUEWuSZAPsQTZiSOGgQooAABA5UyP7U09nlpw8w4AkJe4utzM6M6CZgIAAFSJBBSAHIyMjCx/AL0TS5DdsMRRXO3kkDY85GxYYgn6SRxBPgYdSyGxN6ytWoUKKFBlrkmQD7EE2Ykj6k4LHoCMwiJh/76VN2JC+TS9+6B7YgmyG6Y4itvwBEfmZ5N7tt1Z4Kyoi2GKJegXcQT5KCKWQmvDVpJPqDrXJMiHWILsxBHDQAUUAACgko6OT6QeH4xO6gIA0L24teH09r1tngkAAJCmAgop47du3M/17LnzGz4HAAD6LbThaa2CEkrFhw0Tp3QBAHoTJ5+EtVbc+hAAAIqya4O97E72uukvCSikfOTeD274nPvuf0ASCgAApfDotnQbnsPzsxJQAAB6FNZSrabHVD8BAKAcQvLJxz764aKnwQa04AEAACrreLQpEqqgTF660ObZAAC0E6qfHIpaGqp+AgAAdEMCCkAOlpaWlj+A3oklyG7Y4ujJzVsbpeFbTV2cK2g21MmwxRL0gziCfAwqliYX0xWPQ1W5sNaCOnBNgnyIJchOHFF3N2161d3Xi54ExYlLFX38wYeS+Q3a62i/AwBAmYSKJ4+cfGz5cdgoefUrfqzAGQEAVM/S9/4y9fie/XeqgAIAQGmEfe1OtO5933f/A/a2B2xz0ROgXELyiSAEAKBKTmxJn8xttuGxYQIA0JnQfidmLQUAQJl0sofdaZIK/aMFD0AORkZGlj+A3oklyG4Y4yhUPDk6fiD1tSPzswXNhroYxliCvIkjyMcgYmlqId3CMF5bQdW5JkE+xBJkJ46oOxVQADIKi4T9+/YsPz556rTefdADsQTZDXMcHR/bmxyZf2r58eTiBVVQ6NkwxxLkRRxBPgYRS43qcS+unVqFtRXUhWsS5EMsQXbiiGGgAgoAAFB5oQrKzGg62WRyUWtJAICNHI4qx02P7WmsrQAAALolAQUAAKiF6eik7tTC6YJmAgBQHaFqXKuZ0Z0FzQQAAKg6CSgAAEAtxO12GuXkow0VAABWhITdsGZqFSqgAAAA9EICCgAAUAuhVHy8YXIkKikPAMCKqYW51GPJJwAAQBYSUAAAgNqY3p5uw3MwOtELAMCKycV0tbh4LQUAANANCSgAAEBthDY8M6MrrXhCSfnDqqAAAKwS2u+0CmuouKUhAABANySgAAAAtTI9lj65G2+uAACQrErSjddQAAAA3ZKAAgAA1Ep8cjdUQZm8dKHNswEAhk9I0D0UtSqcHttT0GwAAIC6kIACAADUypObt6ba8ARTF+cKmg0AQPlMLp5PPZZ8AgAA5EECCgAAUDtHxydSj1VAAQBYEbconN6u/Q4AAJCdBBSAHCwtLS1/AL0TS5CdOLrhxJatjUooTaHEfLzRAusRS5CdOIJ85B1La62J4haGUDeuSZAPsQTZiSPqbnPREwCourBIOHnKhhZkJZYgO3G0IiSfhFLyR+afWv7a1MKc8vJ0RCxBduII8tGPWAprolZHxw/kOj6UjWsS5EMsQXbiiGGgAgoAAFBLx8fSpeQnFy9oxQMADLWwFgprolbxmgkAAKBXElAAcjAyMrL8AfROLEF24mhFqIIyM5ouJz91ca7NsyFNLEF24gjykWcsxWuhUB2utW0h1JVrEuRDLEF24oi604Knj3aOjSUTd+xPtmzZnFy5cjV54vsnksXLlzOPu+e2Xcm+Pbsb4167fi155tTp5NTpZ3OYMdCLsEjYv2+lnH8on6Z3H3RPLEF24mi16bG9qVO+KqDQCbEE2YkjyEfesRSvhWZGd/Y8FlSFaxLkQyxBduKIYSABpQ9Gt25NfvHnfyZ5+9venPr60tK1ZOYvvpr84Z8+mly/fr3rcV/5igPJ+37+v0vuuH11Wcynn5lLPvP//pfkyR883fO8AQCgbma2pSugHLp6ubHxEn8dAKDuphZON9ZCrUIFFAAAgLxowZOzkLn2G1PvbySfXLt2Pfn243+bfOXr30y+f+KpF39vU3LPu+9Kpv7JL3Q97htf9+rkI/d+qJF88sILV5JvPvadxrjh11BdJXz9I7/2oeQNr3llH/5WAABQTaGkfLyxcmR+tqDZAAAUZ2phdfsdAACAPKmAkrOfnvzJZOLAy5PLl19Ifnf6k8mJp364/Hs//qNvTd7/Cz+XvPVNr09+9C1vSr7x7b/paMybt2xJPvC+9yabNt3UqHDyfz/06eS5S5eWf3/H2C3J/zL1geT2vbuTX3nxeffd/0By5erV3P9uAABQRcfGJxonfpsOXr3cOP0bklMAAIZFa1vCIKyRAAAA8qQCSo42bdqUTN79443P/2TmS6nkk+Cr3/hWo2pJcM+77+543Lfd+Ybklpdta1RUmf7U76eST4ILC88lx1/8ejC2/Zbkzje8LstfAwAAaiUkmsyMrrTcCcknvxqdAAYAqLPDUQW4sDaSjAsAAORNAkqO3vS61yRbt97c+Pyr//Vbaz7nL7/2jcavoWXOvj23dTTu619qq/P9HzyVnF9YWPM5z5w+06i6Ehw8sL+reQPZLS0tLX8AvRNLkJ04Wtv02N7U49aKKLAWsQTZiSPIRx6xFK994rUR1J1rEuRDLEF24oi604InR6951cHGr2fPnV9VpaRp9ofPvPgD5VoyMrIpecUdL09OnX52w3H/vz//SvKNbz+ePL+4uO7zbrrppsavYfxejd+6s+fXxs4vXEw9bv1BOjIy0tVYnbzW+MYvcvyTp06nXhuPUfb5G9/4ZRl/7szZtr9Xhfkb3/hlGD+Ooyxzq9P350vbx5OkZd8lVEF5z5XnkkdbKqNkGb/q3x/jr9Zc3zWf082fUYb5G7/646/3uirMP2h3Tep1/PgN2qr9+1Z9/mUbP8vYnYyf9c/Ic/7NWNpo/HZ/xw+de6ax9mn1H269PYlH6Of3v5PXdvpvtNH4nfwZZZt/t/8/qz7/bsdvfW2v18f17pPKNv9h+vnW6fjD/PMhfn2R82++D976vI3+vGH7+Vb1+Xc7futr+/2zp93r84qvQf58br0mVXH+6z0vy//PXTntUee5101vJKDkaHznWOPXp08+0/Y5169fT86eO5fsuW1X8qpDE8nX/tu3Nxz36ZOnGh/reeUrDiQ337yl8fmTs093Meu0j9z7wZ5fG/t3D306ufBSEkpzYRKEHz779+3peJxOXmt84xvf+MY3vvGNb3zjr/ecy/tuT7589vvJXefPLD/nn14+l/ztwVcXOv+bt2xJ9q5RGTHL+C+8cCWZO/PsQObfj/GrPn/j5zv+6OjWZPeu8VzHv7S4mDx79txA5p9l/Ft3jiXbRkf7Nn6/579j+y3JLbe8LNfx589dSJ57/vmBzL8f41d9/mUbP7Sr3jG2vePxw+ta33zPe/7hPbDm+2D9mH8nc2s3h//+/A9Sz/tPe1+x6vX9/v538trnnns+mT9/Yd05dDJ+R9eXrVuT8VvXTkTeaPx2r22d//jOHWv+DGynk7976xz27t7V9QbPRvPvJEbymn+Wf992888yfidrg7zmv2XL5jXXNp08pwzz72T8buff7/XbmbPzXf38zxJfI5s2rXl/18k9Tkfjd/Lv22YORc2/6/u7DPNv929Xlfn34/vf7/VP62uDjcZv95xOxq/i/Fu//+F1a/3/rMr8+/H9bx1/9227kn/xm7/e8WspNy14crRly40EkMXFy+s+78yz8zeevzm//J9//I/e0/h14eJzyd/83RO5jQt0JlxYGx+bus9wBlaEGGp+9NtG1+uyq/r8yVd4E78przh67vm1K/pV2b95xRtTj1uTUYoSNtfztni52j8fyjL/5fVdF28+k7+bX7rPztOVK1dzH7MfqjLPdpauXct9bReqyVZZ1edPcZZjqcdr0i/NpRNQPr3vYB7Tyl34uTEoWeKx3Wtb59/t36Uqf/d2Bjn/Xq13TbqWoaJ4L/PI4zmtBjn/TvTjPZ2y/R3b2dT258PSml8f5ByyvLZ1/s33wDv9d+72755l/nnNIa/XDpuQQLOW1q4N7Z7TTicdH7J0hWjVydy6nX+r9PdhJY6uVeAaCt1y55ujA/tvb/x67fr1dZ939aUfJptzSkD55ff+bDJx4OWNz3//4T/1wwoGrJnVuX/v7mT3bbd6UxF6FGInxFDzo9+x1I8b2kGq+vzJV/MmNs84ynJTXVZf3rm78dF04PLzyS+d+sE6r2BYhdhprO9eWuNZ3xWnHz+L8nqDst9euHKl6ClkEjYj817bhRPVVVb1+ZdN2RKyu51Pp89fWd+Ntz052xQqQ8TWWuu0rod6lSVZud1rW5Oq+63f8+/271KVv3s7g5x/L8nKG90n9SMpvJ1O5t/t33GQ8+9EPxLKs/wdB5nU2+7P6kdSdbdzyPLa5vwb74O/9B54p+u7bv/u/fj3yvL97/a1WRLy2r22Kvejncy/2+9PJ3/3vL4/ncwty79vc57xNck9AnV006ZX3b1+tgQd+5f//Lcai+2vfP2byac+93Db5/3ar7wvecsbX598+/G/Tf79Jz+b6c9878/8w+Qfvuuuxudf/PJfJZ97+PNdvT700/rYRz+8/PjjDz6UzJ87n2lOTedfKvnZ1CyjFHR7YqOT1xrf+EWNHzTLioXFwzOnziRXl9KZ0WWev/GNX5bxm5t9TSGWLr/wQm7jr/e6fozf6WuHdf7Gz3f85u+vFUfxNanT8Tv9P9ZOmb4/rc/5nTNPJkfmn1r++pe2jyf37L8zt/E7Ff/b5Tl+1X8+lGH+cenj02fOto2lXudW1u9/2cbvZW0+rD/fyjb+5hdfd8fL9y1/vfWaVIX5G79+4/f7+tKv8Zvru3DeLRw6a5Yq73T8v/v+15JDV1c2g//n21+fTI+tXRq9yv++ZRu/H9evfo9f5+tjJ/dJZZ6/8bON3+3P537Hby9/RlnGD793Ixnyxkb6eu859DL+Rs/ZaPx+3F93+tqyjl+G++thHn+t1/X6Hng3f0Yvz9nodf0eP+xX56l17/u++x9Izua0901npFV1YNOmTcnBiTva/v6J2acbN4BXrobTSR1ke9904+K8QaGUDb3/H/9c8uM/9tbG51/7xre6Tj5ZS0g+GUQQxj+08n6t8Y0/yPFbL6jhNGVYdK83Rtnmb3zjl2n81hPJ670ZlGUOWV5rfOOXdfzW34/jKK+5Vfn70/qc42N7Uwko77o43/iY2ba6j3wv43er09fV5ftf1fE7jaVex6/692dQP9/6MX7WP8P47V1POrsmlXX+xjd+mcZfq3JTJ68Na5zW5JPgkZtvsT4cwPj9vn65PnY/fjf3SWWcv/EHN7746mT8G/HUy32S+2vjD+v46713l8f4nb62rOPnuTeddzIL3ZOA0oEtm0eSf/Y/fqjt7/8f9/1fyeUXriXPzJ1Jbt2xI9mo3NPml37/So/ldEM5zV97//uS1776UOPxo3/+1eQP/vgLPY0FAADD5MnNW5OZ0R3J5OKF5a9NXZxbNwEFAKCKwhqnVah8EtZCAAAA/VKNxmEV8cILNxJKtt5887rP27fnRp/V5y4tdv1n7BwbS37r16eWk09+/48+L/kEAAC6cHR8IvV48tKFNs8EAKiuqYXTqcczo06DAgAA/aUCSgeuXF1Kfnf6k+v+fjB35tnGr3tuu63tc2+66aZGlZQgtO7pxv69e5Lf+LUPJNtveVly+fILyfSnPpt854nvdzUGABUlAQkAACAASURBVAAMuxNb0id/Q2n6kISiCgoAUBdx8kkQKqAAAAD0kwSUDly7di35u+8+ueHzvv+DG73k9+6+Lbll27bkuUuXVj3n0CsOJJs23dT4/IfPnOp4Drt3jS8nnyxcfC75xP/zqeTpk52/HgAAuCGUng8bMK0bM0fmZ5N7tt1Z4KwAAPIztbC6/Q4AAEC/acGTo+/8/feS556/1EgwueudP7Lmc37yHTe+/vQPTyWnTj/b0bgjIyPJ//ShX24kn1x87vnk335iWvIJAABkcCxqw3PwpSooAAB1MLmYXtfEax8AAIB+UAElR9evX0/+7C+/lvyj9/xU8rP3TCan5p5N/vo7f7f8+z919zuTt7/tzY3P//jRL616/d3v+JHkDa99VePz//iZ/5xcfuFK4/P3vOuuRlWV4Ktf/1ayb+/uxkc7585dSE7OrS6zCQAA3BCqoMyM7ljenGm04Vk8rw0PAFB5D55+IvU4rHnC2gcAAKDfJKDk7PNf/Ivkta9+ZfLqQxPJvR/4xeS7T84m8+fPJfv37UvuuH1v4zlf+fo3U4kpTS/ftzd5yxtf3/h888gfJZeTGwko77rrHcvPuefddzU+1hPG/9TnHs7rrwQAALU0PbY3dTo4tORxOhgAqLq4qltY8wAAAAyCFjw5C1VQPnH895IvfvmvkqWla41ElHe87S2N5JPLl19IHv7CTFfJIbt3jTda7wAAAPmKq50c0oYHAKi4kFAb1jStpsf2FDQbAABg2KiA0gdXrl5NPvfw5xsf3fjMH/5J46PVmbPzyUcP/+s8pwf0wdLSUtFTgFoQS5CdOOpc3IYnODI/m9yz7c4CZ0VZiCXIThxBPrqJpdBSsJXkE7jBNQnyIZYgO3FE3UlAAcgoLBZOnjpd9DSg8sQSZCeOund0fCJ55ORjy48PRieGGU5iCbITR5CPbmMpVEBpNb1d+x1wTYJ8iCXIThwxDLTgAQAAhlZowxOqoDSFkvXxxg0AQBXEa5hGtbeo5SAAAEA/SUAByMHIyMjyB9A7sQTZiaPuTY+lTwYfnp8taCaUiViC7MQR5KPTWIrXMMfGJ/o5LagU1yTIh1iC7MQRdacFD0BGYZGwf99KT+VQPk0PP+ieWILsxFFv4pPBoQrK5KULTgwPMbEE2YkjyEensRTWLoeiVoLWMnCDaxLkQyxBduKIYaACCgAAMNQa5elH0xs0UxfnCpoNAED34rXL9NiexhoHAABgkCSgAAAAQ+9oVKI+nCIGAKiKqYXTqcfT2/e2eSYAAED/SEABAACG3oktW1OnhJtteAAAyi5OPgm03wEAAIogAQUAABh6IfkklKpvdWR+tqDZAAB0bmphdfsdAACAIkhAAcjB0tLS8gfQO7EE2Ymj3h0fS5eqn1y8oArKEBNLkJ04gnxsFEthzdLqWNRaEHBNgryIJchOHFF3m4ueAEDVhUXCyVOry90C3RFLkJ04yiZUQZkZ3ZHaxJlcPK+E/RASS5CdOIJ8bBRLD55+IvU4VD9pbSsIuCZBXsQSZCeOGAYqoAAAALxkOqqCMrXgTQEAoLziam0zozsLmgkAAIAEFIBcjIyMLH8AvRNLkJ04yiaudnLo6mVteIaUWILsxBHko10shUTZsFZpFSqgAKu5JkE+xBJkJ46oOy14ADIKi4T9+1be4Anl0/Tug+6JJchOHGUXStaHjZvWyidH5meTe7bdWeCsGDSxBNmJI8jHerEUWgW2knwCa3NNgnyIJchOHDEMJKCQMn7rxmU6z547v+FzAACgqqa3700loByMThYDAJRB3CowrGEAAKDOdm2wl93JXjf9JQGFlI/c+8ENn3Pf/Q9IQgEAoLZCG56Z0R3J5OKN1juhtP3h+dnk2PhEwTMDALghTj4Ja5e4lSAAANRJSD752Ec/XPQ02MCmoicAAABQNtNj6RPE8SYPAECRQnJsq3jtAgAAUAQJKAAAAJH4BHGogjJ56UJBswEAWBHWJIeiFoGqnwAAAGWgBQ8pH3/woWR+g/Y62u8AAFB3T27emmrDE0xdnLO5AwAULqxJWk2P7WmsXQAAoO7uu/+BDZ+jTU+xJKCQEpJPJJgAAECSHB2fSB45+djyYxVQAIAyiFsDTm/XfgcAgPrrZA971607BzAT1qMFDwAAwBpObLlRBaUplLqPN3wAAAZprbWICm0AAEBZSEABAABYQyhl/2i0oTO1MNfm2QAA/bdW+x0AAICykIACAADQxvGxdEn7ycULWvEAAIU4sPh88q6L86mvHRufKGg2AAAAq0lAAQAAaCNUQWltwxPEJ48BAAbht3/weOpxqH4S1ioAAABlsbnoCQDUwdLSUtFTgFoQS5CdOMrf0fGJ5JGTjy0/VgFlOIglyE4cQT6asfQT58+kvj4zurOI6UAluSZBPsQSZCeOqDsJKAAZhcXCyVOni54GVJ5YguzEUX+c2JI+WXzo6uVGEsrMth1tXkHViSXIThxBPpqxNLVwOpm4/Hzq90IFFGBjrkmQD7EE2YkjhoEWPAAAAOsIpe3jDZ4j87MFzQYAGEZTC+kWgJJPAACAMpKAApCDkZGR5Q+gd2IJshNH/XFsfCL1+ODVy41KKNSXWILsxBHkI8TQ5GK6BeD09r0FzQaqyTUJ8iGWIDtxRN1pwQOQUVgk7N+3cvIolE/Tww+6J5YgO3HUP6EKyszojuXNn5B88qsLc6sSU6gHsQTZiSPIR4ilf5ZcSn0trEm0AoTOuSZBPsQSZCeOGAYqoAAAAHRgeix90nhqQc9eAKD/fvsHj6cex2sSAACAspCAAgAA0IH4pHGogjJ56UKbZwMAZPehc88kBy4/n/qa6icAAEBZSUABAADoQLMNT6upi3MFzQYAGAaTi+dTj6fH9jTWJAAAAGUkAQUAAKBDR8cnUo9VQAEA+ilu+Te9XfsdAACgvCSgAORgaWlp+QPonViC7MRRf4WS961VUEIbnnhjiHoQS5CdOIJs1lpjfGn7eAEzgepzTYJ8iCXIThxRd5uLngBA1YVFwslTNp4gK7EE2YmjwXh0245kcnGl8snh+dlGOXzqQyxBduIIsgtrjFZHxw/YqIAeuCZBPsQSZCeO+P/Zu/fguq77PvSLACiCD4AEJYCiRIq0RduxZceOHadWbhI2umnatOnDSdM4sRtM2JvJxJ5OW3faaTu+5JBV587NdNT7j3UzbYcdqNF1Uyetk9ZuYyeukbh2bDdybUexndC1JNKiCEgESZAiQBLk1ToUwLM3Huex9jn7PD6fGQywD/ZZWAD53WcD+7d/qx/ogAIAANCAJ0ayre9jFxRL8QAARYrnFvEco1r+HAQAAKDTKEABKMDg4ODKG9A8WYJ0ctR6zwxtySzDEx3L3aFM95MlSCdH0LzJyzOZ7SdGJ8LpLdtKmg10P69JUAxZgnRyRK+zBA9AoniSsHfPnbb7sX2alrjQOFmCdHLUPsfH9odPn316ZfvAjcXKXcqxOIXuJ0uQTo4gzeR8tjX7xw+8IezdeY8sQRO8JkExZAnSyRH9QAcUAACABk1vHc10QYnFJz83P7PBMwAA6pMvPjmzZVv4g533lDQbAACA+ilAAQAAaMLUyERmO3+xCACgGUdzS/v9iwfeWNJMAAAAGqMABQAAoAmxC0q12AXl8NVLJc0GAOgFsaA1nlNU0/0EAADoFgpQAAAAmvDM0JYwNTKeeexY7o5lAIBGHF64mNl+cte94czwtpJmAwAA0JihsidAZxnbtbPmPucvXKy5DwAA9IMTY/szS+8cXrhU6YKS744CAFCP/JJ++SX/AACgn+2ucS27nmvdtJYCFDI+cOS9Nfd59LHHFaEAAEC43QVleni0UniybPLyjAIUAKBhR3Od1OI5xmdeedtb0nwAAKCTxOKTD33w/WVPgxoswQMAAJAgf2dy7IACANAo3U8AAIBupwAFAAAgQb7bycEbi6suIAEAbCSeO8RziGpTI+MlzQYAAKA5luAh48MnnwxzNZbXsfwOAADcEZfhOT62LxybO7Py2OT8jItGAEDd4rlDNecRAACw2qOPPV5zH8v0lEsBChmx+ESBCQAANOaJkYlMAcrhhUuVpXjy3VEAAPJi55N47lDtxNj+kmYDAACdqZ5r2Lt37WzDTNiIAhSAAiwtLYUrL19d+RhojixBOjkqR+yCMj08mrl4NHl5RgFKF5MlSCdHUJ+jc6cz2/GcIp5bLJMlSCdHUAxZgnRyRK9TgAKQKJ4gnD03W/Y0oOvJEqSTo3IdH9sfPn326ZXt2AGF7iRLkE6OoH75c4apkYmVj2UJ0skRFEOWIJ0c0Q8Gyp4AAABAL3h28+0uKMtiO/3JeX9UAADWF88V4jlDtamR8ZJmAwAAkEYBCkABBgcHw+jIjspb/BhojixBOjkqT2yV/5nckjv5lvp0D1mCdHIEtU3Oz2S21yo+kSVIJ0dQDFmCdHJEr7MED0CieIKwd8+dPxAtr90HNEaWIJ0cle+JkYlwbO7Myna8ozm21Z/OFabQ2WQJ0skR1BbPEQ4vZJffOTG2P7MtS5BOjqAYsgTp5Ih+oAMKAABAQWIXlOpleKJjuqAAAGuYvLy6+0k8lwAAAOhWClAAAAAKdDx35/KBG4uVTigAANUm52cz21M7JkqaCQAAQDEUoAAAABQoLrdT3QUlFp/83PzMBs8AAPpNvvgksmQfAADQ7RSgAAAAFGxqJHsH81oXmQCA/nU0t0Tf8bF9Jc0EAACgOENlTwCgFywtLYUrL19d+RhojixBOjnqDPk7mGMXlMNXL7mzuYvIEqSTI1hbPCfIL8/3xMj6y+/IEqSTIyiGLEE6OaLXKUABSBRPEM6ec1czpJIlSCdHneOZoS1hamQ80/nk2Nzp8MjWh0qcFfWSJUgnR7C+ycvZpfniOUM8d1iLLEE6OYJiyBKkkyP6gSV4AAAAWuDE2P7M9uGFS5U7ngGA/pZfmm9qx/rdTwAAALqJAhSAAgwODobRkR1h+7ZtlY+B5sgSpJOjzhHvZJ4ezi65k7/jmc4lS5BOjmC1fPFJ5XyhxhJ9sgTp5AiKIUuQTo7odZbgAUgUTxD27hlf2dY+DZojS5BOjjrP1MhEpfPJMh1QuoMsQTo5grUdnTud2c53TMuTJUgnR1AMWYJ0ckQ/0AEFAACgRfJ3NB+8sbjqzmcAoD/Ec4B4LlCtVvcTAACAbqIABQAAoEViW/3jY/syj03OW4YHAPpR/hxgamS8cq4AAADQKxSgAAAAtNATIxOZ7bgkj6V4AKD/VC/LF03tmFhnTwAAgO6kAAUAAKCF4p3N08PZ9vqTl3VBAYB+cnTudGY7nhtYfgcAAOg1ClAAAABa7PjY/sy2DigA0F8m52cz21Mjup8AAAC9RwEKAABAiz27OdsF5eCNxVUXogCA3hRf8+Nrf7WpkfGSZgMAANA6ClAAAABaLC7Dk7/TOd+KHwDoTZPz2aX3FJ8AAAC9aqjsCdBZxnbtrLnP+QsX2zATAADoLdNbRzPb8U7ouBRP/nEAoHdUXu8XskvvncgtzQcAANRnd41r2fVc66a1FKCQ8YEj7625z6OPPa4IBQAAGhS7oMRleKovQh2bOx0e2fpQibMCAFop3/EsngvEcwIAAKAxsfjkQx98f9nToAZL8AAAALTJ8dwdzwduLFbujAYAetPk/GxmO78kHwAAQC/RAQWgAEtLS+HKy1fD4MBA5WOgObIE6eSos8Xldqq7oMTik5+bn9GKvwPJEqSTI/pdvvgkmhoZb3gcWYJ0cgTFkCVIJ0f0OgUoZHz45JNhrsbyOpbfgax4gnD23Oo/KgGNkSVIJ0fdId75XL0MT7w4pQCls8gSpJMjiK/xM5ntZotPZAnSyBEUQ5YgnRyle/Sxx2vuY5mecilAISMWnygwAQCA1oldUKrFLiiHr15a9TgA0L3ia3t1wWmk4BQAAJpXzzXs3bt2tmEmbGSg7AkA9ILBwcEwOrIjbN+2rfIx0BxZgnRy1PmeGdqy6g7oY3OnS5oN65ElSCdH9LPJy6u7n8RzgGbIEqSTIyiGLEE6OaLXKUABSBRPEPbuGa+cMIztcucyNEuWIJ0cdY/8HdDxDul4pzSdQZYgnRzR7+ISe9Wmdkw0NY4sQTo5gmLIEqSTI/qBAhQAAIA2i3dATw9n/9CQv1MaAOhO+eKTyFJ7AABAP1CAAgAAUILj+S4oOqAAQE84mlta7/jYvpJmAgAA0F4KUAAAAErw7OYtme2DNxbXvGMaAOgesaA0vqZXe2KkueV3AAAAuo0CFAAAgBLEZXjyd0Tn75gGALpLfkm9qZHxyms+AABAPxgqewIAvWBpaSlceflqGBwYqHwMNEeWIJ0cdZd4R/SxuTMr2/GO6Xjn9PTW0RJnRSRLkE6O6Ef5bmZTO9K7n8gSpJMjKIYsQTo5otcpQAFIFE8Qzp7TLh9SyRKkk6PuE++Inh4eDYcXLq08Fu+cVoBSLlmCdHJEP8oXn1Re5xNf02UJ0skRFEOWIJ0c0Q8swQMAAFCi42P7M9uxAwoA0H3yS+mdyL3GAwAA9DoFKAAFGBwcDKMjO8L2bdsqHwPNkSVIJ0fd59nNt7ugLIvL8OQvYNF+sgTp5Ih+ErufxNfwalMj44WMLUuQTo6gGLIE6eSIXqcABSBRPEHYu2e8csIwtku7fGiWLEE6OepOsT3/1MhE5rF8C3/aS5YgnRzRbybnZzLbRRafyBKkkSMohixBOjmiHyhAAQAAKNn01uwfHeId1JbiAYDucXgh+7o9tWNinT0BAAB6lwIUAACAksUuKNXL8ETHLMMDAF3h5OypzHZ8Tc8XlwIAAPQDBSgAAAAd4PjY/sz2AV1QAKAr5F+v80vrAQAA9AsFKAAAAB0g3ild3QUlLsMzeXmmxBkBALVMzs9WXrOrTY2MlzQbAACAcilAAQAA6BD5O6Z1QAGAzjY5ny0WVXwCAAD0s6GyJ9DLdo6MhP337w2bNw+F69dvhFPffjYsLC7WfmKDHnrD68KmTZvC09/803Dr1q3CxwcAANojdkGpdvDVZXjyjwMA5au8Ti9ki0VP5JbUAwAA6CcKUFpgeMuW8JM//qPhHW99c+bxpaWbYfpzXwwf/53PFFYo8vD3vi381F/5scrH/+D4L7/yNZYKGRcAAGi/Z4a2VO6cju38lx2bOx0e2fpQibMCANZy9JXX6GrxNTy+lgMAAPQrS/AUbHBwMPzS5HsqxSc3b94KX/v6N8MXnvpK+PazZ1753EB45AffFSZ/+t2FfK17do+Fv/oXfqSQsQAAgM6Qv3M63lltKR4A6DzVBaPR9PDOkmYCAADQGXRAKdifO/z9Yf+++8Li4rXwK1MfCc+eeX7lc9/3Pd8d3vPuvxS++01vCN/zljeFL3/tj5v+OnHJnb/51/9KuOuuzUVMGwAA6BDxzunp4dFMS//JyzOW4QGADpIvPoliBxQAAIB+pgNKgQYGBsLhh7+v8vEnpz+bKT6Jvvjlr1a6oUSP/ODDSV/rz//wD1QKXeYvX0kaBwAA6DzH811QdEABgI4yOT+T2VZ8AgAAoAClUG96/aGwZctdlY+/+IdfXXOfz3/py5X39987EfaM393U1zmw777wo3/2B8LlKy+Hj3/qM02NARRraWkpXJq/HK68ksv4MdAcWYJ0ctQbnt28pdIJZdnBG4tr3mlN68gSpJMjelUsDK3uVBbll9ArkixBOjmCYsgSpJMjep0leAp06LUHKu/PX7gYrly9uuY+p59/4ZWDyc0wODgQHrj/vnBu9qWGvsaWuzaH9/3UX618/O9/87+EpZvFHpjGdhW3Vu3FVw6e1aoPooODgw2NVc9zjW/8Msc/e2525blrPb/T529843fK+DMvns/s223zN77xO2H8fI6KHr9exk8b//Tgtsqd1Mfmzqw8dnTudPjVXfcWMn69+/Tz+Mvnd60av9t/PsZv/fipx/CU5xY1/nqvSc2On//jbLf9+3b7/Dtt/JSx6xl/o33i0njVnnzl9fn0lm3xyXWP38j8l7NUa271fo/raeXPv57n9vP8G/3/2e3zb3T86uc2+/q40e9JnTb/Mo9v9XyNVv7/XO/5/Xx8yD+/zPkv/x18eb96vla/Hd+6ff6Njl/93FYfe9Z7flH5aufxufo1Ka8b5r/Rfin/P3cXdI26yGvdNEcBSoHGdo5U3n/n7Avr7nPr1q1w/sKFMH737vDag/vDl/7n1xr6Gu/+iz8a7h7bFb741FfDH33jT8IbX/9g0pzzPnDkvYWN9a+f/Gilgi9aPjGJ4sFn757625LW81zjG9/4xje+8Y1vfOMbvxvHv2vz5jCxRmfEuM8Tiy9nClBiF5R3D28Kf7Dzng3Hv3bteph58aW2zL8V43f7/I1f7PjDw1vCPbvHCh3/6sJCeOn8hbbMP2X8XTtHwtbh4ZaN3+r5j+7YHrZv31bo+HMXLoUrL7/clvm3Yvxun3+njb9929YwOrKj7vHj86r/+J4y/8k//Wxm+7f2vy5sHxhe+TtYK+Zfz9zi1681h5Txi5r/es+NdwHPXbzUlvkPb9kSxnaNNjX+es+tnv/YztE1j4Hrqed7r57DxD27G77AU2v+9WSkqPmn/PuuN/+U8es5Nyhq/ps3D615blPPPp0w/3rGb3T+rT5/e/H8XEPH/5R8DQ4MrPn7XT2/49Q1fj3/vuvMoaz5N/z7XcL81/u365b5t+LnX+T5T635R7XGX2+fesbvxvlX//zj89b6/9kt82/Fz796/Hvu3h3+yd/5xbqfS2ezBE+BNm/eXHm/sLC44X4vvjR3e/+hxup/3vKmN4Tve/t3Vzqs/MdPfLK5SQItEV9YR0e2V/5APDDg0ArNGhwYDNu3batkabDFWar1et3pun3+FCv+EX9ZdY5SXpOuvLx2Rz+KFS+urycuwTM9nP3j+k+de7bmmAuL3X186JT53z6/21HJl/O78tz16u/ZRbp+/UbhY7ZCt8xzPUs3bxb2mrQsdpPtZt0+f2776+eeW/VYreLQVDFLO17JUsxTIxdFu008brRLSh7Xe271/Bv9Xrrle19PO+ffrI1ek24utfHnP1A7w/XsU62d869Ho/OvR6d9j+sZWPf4sLTm4+2cQ8pzq+cfX4caOb9r9HtPmX9Rcyjquf1mvb/lLlXlt9G/9y7Vkf169qlHPXNL+Xt19udwJ0fQi/zmW6B9e2+3w75569aG+9149YR8qIEClJEd28Pf+Cs/Vvn4V3/9N8PitetNzhIo2nJV5+iOHZUilE2byp4RdKf4R7B77t4VdmzfWslSaHGWWvELbTt1+/wp1vIvsfkcpbwmtboIjPocH9uf2X7XxRdLmkl/iVmqnN+N7Kjcwez8rjytOBYV9QfKVrt2vbt/748XI4t6TVoW76juZt0+/05TVkH233vu65ntv/+6d1TeNzqfevdfPr+L3TRqdeyInSHaJaVYeb3nVhdVt1qr59/o99It3/t62jn/ZoqVa/2etFFReNHqmX+j32M751+PVhSUp3yP7SzqXe9rtaKoutE5pDx3ef6Vv4NP3NPQ+V2j33sr/r1Sfv6NPjelIG+953ZLEXM982/051PP917Uz6eeuaX8+y7PM/+a1C3/vtCITQOvfXjjagnq9k//0d+tnGx/4amvhF/72CfW3e/nf+Ynwlve+Ibwta9/M/ybj/yHusb+pcmfCa978GD49O//QfjPn/pvK4/HJXh+4X1/o/LxPzj+yyutiuoV19P60Affv7L94ZNPhrkLFxsaYz0XX235uax6bo3erVHPc41v/LLGj5bbisWThRfOvRhu5LLYyfM3vvE7Zfzli33LYpYWr10rbPyNnteK8et9br/O3/jFjr/8+bVylH9Nqnf8ev+PraeTfj6dPP5Gz1ve59PPPx0OL1xaefyf3XNgVWHKevPa6Gt06s+nE+afb308++L5dbPU7Nw69effaeM3c27u+NYZ4w+98rz779uz8nj1a1I3zN/4vTd+Ea8v77vwQjg5eyrz2Otf885K17JWvX4tn9/F+91u3ry50qq8237+/TZ+K16/Wj1+L78+1vN7UifP3/hp4zd6fG51fpv5Gp0yfvzc7WVEbl8w3+hvDs2MX2ufWuPX8/t1yvgbPbdTx++E36/7efy1ntfs38Ab+RrN7FPrea0eP16vLlL1te9HH3u8sroI7ePWizrENmIH9t+/7uefPf2dyi+A12/Eu5PqqPbedPvFuUajlBU/9PA7K8Un33lhJnzid6fre1KTYvFJO0KYP2gV/VzjG7+d41e/oMa7KeNJ90ZjdNr8jW/8Thq/+o7kjf4YlDKHlOca3/idOn715/M5Kmpu3fzz6eTx63ne1MhEpgDlvRdeCEdH7yv0a3Tqz6dTxq83S82O3+0/n3Yd31oxfurXMP76boX6XpM6df7GN/5a+xxeyP7NbGpkPHxr01DcsZDx199v9d22nfjzMX4xY3fC+KlfoxPHb+T3pE6cv/HbN7581TP+7Tw183tS2b9fp4xf73ONb/xaz0v9G3g9XyNlnzLGL/LadNHFLDROAUodNg8Nhr/9t9637uf/8aP/PCxeuxlemHkx7BodDbXaJQ29+vnrdbTTvXf8nvDjP/LD4cb1pfDkR3+zUugCAAD0j+mt2Xb7B28shsNXL616HABorcn52cz21I6JkmYCAADQmRSgFOjatdsFJVvuumvD/faM31N5f+XqQs0xf+Tw94ehzYPh0vzl8Jf//COrPr+jan3NIz/7k5VbjL59+kz4nenPNTJ1AACgQ8W2/vEO6+qLXsfmTodHtj5U4qwAoL/ki0/i67NiUAAAgCwFKHW4fmMp/MrURzb8fDTz4kuV9+N3373uvps2bap0SYni0j21bAq3u6WMjuyovG3kja97sPL+xtKNmuMCxYptxa68fDUMDgwkt2mEfiZLkE6OelO8w7r6wtcBXVBaTpYgnRzRS47Onc5snxjbFHTm3wAAIABJREFU37avLUuQTo6gGLIE6eSIXqcApQ5x2Zs/+dYzNff79nNnKu8n7rk7bN+6NVy5enXVPgcf2BcGBjZVPn7+hXM1x/z9L34pfO0bf7Lu5/ft3RMe+cF3VT7+1d/4T+Hm0s1w8dKldfcHihdPEM6em629I7AhWYJ0ctS7YqHJ9PBoOLxw+1w/LsMzeXlGAUqLyBKkkyN6SSwCja+91WJ3snaQJUgnR1AMWYJ0ckQ/UIBSoG/86f+qVKxt37Y1vOudbwu/+3ufX7XP93/v2yrvv/P8uXBu9qWaYz7zXOySsn6nlMVriysFKF/5o6+rlAMAgB41NTKxUoASxQ4oAEDrTc7PZLbbVXwCAADQbQbKnkAvuXXrVvj9z3+p8vGPPXI4vPm7Xp/5/A89/M7wjre+ufLxb3/ms6ue//D3vi38/M/8ROVty12bWz9hoDCDg4OVZbK2b9tW+RhojixBOjnqXfluJwdfXYaH1pAlSCdH9IrqAtAoLo3XTrIE6eQIiiFLkE6O6HU6oBTsU7/3ufC6B18THjy4Pxz52Z8M33rmdJi7eCHs3bMn3H/v7V9Ov/DUV8IfrbGszn17JsJb3viGysdDg/8lLIbrbZ070Jx4grB3z527n7RPg+bIEqSTo972zNCWyh3XcRmAZcfmTodHtj5U4qx6kyxBOjmiV5ycPZXZjkvitXMJPFmCdHIExZAlSCdH9AMdUAoWu6D8yyf+Xfi9P/gfYWnpZqUQ5Xvf+pZK8cni4rXwid+dDr/2sU+UPU0AAKALnRjbn9mOd2TrggIArZN/nY1L4gEAALA2HVBa4PqNG+Fjn/hU5a0Rv/HxT1beGvH1P/lW+ODR/6uh5wAAAN0pdkGJd15XLwUweXmmrXdiA0C/iF3H4pJ31WI3MgAAANamAwoAAEAXOZ7vgqIDCgC0xOT8TGZb8QkAAMDGFKAAAAB0kWc3b6l0QlkW78yOd2gDAMWJr6/VHcei/FJ4AAAAZClAAQAA6CKx+CR/B/bRudMlzQYAelP+tTW+9lYXgAIAALCaAhQAAIAu88TIRGa7cpe2pXgAoDD57mLTwztLmgkAAED3UIACAADQZeId2NPDo5nHjumCAgCFWGtpu3z3MQAAAFZTgAIAANCFjo/tz2wfuLFY0kwAoLdMzs9kthWfAAAA1EcBCgAAQBea3jqa6YISl+E5qgsKACSJS9odXsgua3ciV/QJAADA2hSgAAAAdKmpkYnM9lpLBgAA9Zu8vLr7SVz6DgAAgNqGyp4AQC9YWloKV16+GgYHBiofA82RJUgnR/0ldkGpFrugxDu384/TOFmCdHJEN8oXc07tmFhnz/aRJUgnR1AMWYJ0ckSvU4ACkCieIJw9525jSCVLkE6O+k+8IzvemV19sezY3OnwyNaHSpxV95MlSCdHdKO1OomVXdQpS5BOjqAYsgTp5Ih+YAkeAACALnZibH9m+8CrXVAAgMYcnTud2T4yfqikmQAAAHQnBSgABRgcHAyjIzvC9m3bKh8DzZElSCdH/Sd2QZkevnN3dlyGZ/LyTIkz6g2yBOnkiG4Su5/E19BqZXc/WSZLkE6OoBiyBOnkiF5nCR6ARPEEYe+e8ZVt7dOgObIE6eSof02NTITDC3e6nuiAkkaWIJ0c0W0OL1zMbMcl7mKRZ9lkCdLJERRDliCdHNEPFKCQMbZrZ819zl+4WHMfAACgffJ3aB98dRmeTrlzGwA6XeyAUm1qx0RJMwEAANazu8a17HquddNaClDI+MCR99bc59HHHleEAgAAHSTeoR3v1K6+eHZs7nR4ZOtDJc4KALpDvvgkLm2niBMAADpLLD750AffX/Y0qGGg7AkAAACQ7sTY/sx2XJLHUjwAUNvRudOZ7bi0HQAAAI1TgAIAANADYheUeMd2tcnLMyXNBgC6Q+x+Epeuqxa7igEAANA4S/CQ8eGTT4a5GsvrWH4HVltaWgoLC4srHwPNkSVIJ0f97fjY/vDps0+vbOuA0jxZgnRyRDeYnM8Wa3Zi8YksQTo5gmLIEqSTozSPPvZ4zX0s01MuBShkxOITBSbQmHiCcPbcbO0dgQ3JEqSTI57dvKXSCWX5Tu74Pt7Z3YkX0zqZLEE6OaJbxCXrqk3t6Kzld2QJ0skRFEOWIJ0cpannGvbuXTvbMBM2YgkeAACAHhGLT/LFJkfnTpc0GwDobCdnT2W241J201tH19kbAACAWhSgABRgcHAwbN+2rfIWPwaaI0uQTo54YiR753bsgmIpnsbJEqSTIzpd/vVxaqSzup8skyVIJ0dQDFmCdHJEr7MED0CieIKwd8+dO421T4PmyBKkkyOi2AUl3sFdvaTAsbnT4ZGtD5U4q+4iS5BOjuh0cYm65SXrlnXiknWyBOnkCIohS5BOjugHOqAAAAD0mONj+zPbB24srrrIBgD9bHJ+JrPdicUnAAAA3UYBCgAAQI+Z3jpa6YKyLBaf/FzuQhsA9Ku49E51p7DoRK54EwAAgMYpQAEAAOhBUyMTme241AAAcHtpumqx+0lcwg4AAIA0ClAAAAB6UOyCUi12QYl3fANAP6u8Hua6n0ztmFhnbwAAABqhAAUAAKAHxTu54x3d1fJ3fANAvzmaey2MS9blizYBAABojgIUAACAHnVibH9mO97xrQsKAP0svyRdfsk6AAAAmqcABQAAoEfFLijxzu5qk5dnSpoNAJQr3/1krW5hAAAANE8BCgAAQA/L39mtAwoA/erY3JnMdr5TGAAAAGkUoAAAAPSw6a3ZDigHbyyuWn4AAHrdWq99up8AAAAUSwEKAABAD4vLCxwf25d5bHLeMjwA9Jf88jv510YAAADSDZU9AYBesLS0FBYWFlc+BpojS5BOjljLEyMTmWUHDi9cqizFk++Owh2yBOnkiE4Ru5/EDmDVnsgtUdfJZAnSyREUQ5YgnRzR6xSgACSKJwhnz2ljD6lkCdLJEeuJXVCmh0crhSfLJi/PKEBZhyxBOjmik+Q7f8Wld+JrYzeQJUgnR1AMWYJ0ckQ/sAQPAABAHzg+tj+zHTugAECvi91PqgswoxO510QAAACKoQAFoACDg4Mrb0DzZAnSyRHreXbz7S4oy+JSBPGiHGuTJUgnR3SCbu5+skyWIJ0cQTFkCdLJEb3OEjwAieJJwt494yvbsX2adfugcbIE6eSIjcSLbVMjE5m7wI/Ona5ciCNLliCdHNEJYrevfPeTqR0TJc2mObIE6eQIiiFLkE6O6Ac6oAAAAPSJ6a2jme3YBcVSPAD0qsnL2e4nsRNY/rUQAACA4ihAAQAA6BOxC0r1MjzRsbnTJc0GAFpnraXmjo/tL2k2AAAA/UEBCgAAQB/JX3w7oAsKAD3oaK7AUvcTAACA1lOAAgAA0EfixbfqLiiVO8RzSxQAQLfLdz+ZGpkoaSYAAAD9Y6jsCdBZxnbtrLnP+QsX2zAT6C5LS0tlTwF6gixBOjmiHvEi3OGFO11PYgeUWIgSl+jhNlmCdHJEWfLdT6KpkfESZlIMWYJ0cgTFkCVIJ0dpdte4ll3PtW5aa9PAax++VfYkKE8M6Yc++P6GnvPoY48rQgEAgC4Wi01OzpzKFKHEC3NHxg+VOCsAKMa3nnuq8lq3LL6+dXMBCgAA4Lp2t7AEDwAAQJ+JnU7ySxHELigA0O3i0jvVxSeR4hMAAID2UIACUIDBwcGVN6B5sgTp5Ih6TW8dzWzHi3Xxoh23yRKkkyPKkF9+pxeKT2QJ0skRFEOWIJ0c0euGyp4AneXDJ58MczXaEGlTBFnxJGHvnjt/0Dp7btYaftAEWYJ0ckQjYheUuCTBydlTK4/Fi3a9cKEulSxBOjmiDGt1Pzkxtr+k2RRDliCdHEExZAnSyVG6uKROLY0u00OxFKCQEYtPFJgAAEB/WK8LiiIUALrR5PxMZju+nsWCSwAAoPvVcw17966dbZgJG7EEDwAAQJ+KF+XyxSb5pQsAoBscvnopHF64lHms27ufAAAAdBsFKAAAAH0sf3EudkGJF/EAoJscyxVQ6n4CAADQfgpQAAAA+thaXVDyF/EAoJOt1f1kasdESbMBAADoXwpQAAAA+ly+C0q8iKcLCgDdYvLyTGZ7eng0TG8dLWk2AAAA/UsBCgAAQJ+LXVDixbpquqAA0C0m52cz28dzhZUAAAC0hwIUAAAAVl2s0wUFgG5wcvZUZrtSVKn7CQAAQCkUoAAAAFC5WJfvgpJf0gAAOk2++0l+WTkAAADaRwEKAAAAFau6oFzVBQWAzpUvPommRsZLmAkAAACRAhQAAAAq8l1QDt5Y1AUFgI51dO50ZvvI+KGSZgIAAEA0VPYEAHrB0tJS2VOAniBLkE6OSDU1MhEOL9zpetKvHVBkCdLJEa0Uu5/EQslqvdr9RJYgnRxBMWQJ0skRvU4BCkCieLJw9tzqtr9AY2QJ0skRRYhdUJ4Z2rJyUS++Pzl7qq/uKpclSCdHtFq++0kvF5/IEqSRIyiGLEE6OaIfWIIHAACAFbH45MTY/sxj/doFBYDOtFb3k/xrFwAAAO2nAAWgAIODgytvQPNkCdLJEUWIXVCqxYt88WJfP5ElSCdHtMrk/ExmO3Y/iQWUvUqWIJ0cQTFkCdLJEb3OEjwAieJJwt49d1r9xvZp1vCDxskSpJMjihIv4h0f2xeOzZ1ZeSwuddCryxvkyRKkkyNaJXblOryQ7cw1tWOipNm0nixBOjmCYsgSpJMj+oEOKAAAAKzyxEj2Yl4/dkEBoPMcmzud2Y7FkfnOXQAAAJRDAQoAAACrxC4o+Y4nR3MX/QCgnWIxZD91PwEAAOg2ClAAAABY04mx/ZntyoW/q5fW2RsAWitfCDk9PKr7CQAAQAdRgAIAAMCaYheUeHGvWn7pAwBol/xScFMjup8AAAB0EgUoAAVYWlpaeQOaJ0uQTo4o2pGJQ5ntuPRBP3RBkSVIJ0cU6eTsqcz2WkvF9SpZgnRyBMWQJUgnR/S6obInANDt4knC2XOztXcENiRLkE6OaIXlLiix8GRZ7ILyyNaHSpxVa8kSpJMjipbvfpJfJq5XyRKkkyMohixBOjmiH+iAAgAAwIaO5y7yHbix2BddUADoDPnik6hfup8AAAB0EwUoAAUYHBxceQOaJ0uQTo5ohemto5UuKMsO3lgMk5dnSpxR68kSpJMjinJ07nRm+/jYvpJmUg5ZgnRyBMWQJUgnR/Q6S/CQMbZrZ819zl+42IaZQPeIJwl799y58yq2T7N2HzROliCdHNFKsQvKp88+vbIdO6DEQpS4RE+vkSVIJ0cUJXY/ia831Z4YmShpNu0nS5BOjqAYsgTp5Cjd7hrXsuu51k1rKUAh4wNH3ltzn0cfe1wRCgAA9JlnN2+pdEE5vHB76Z14MTDekX5k/FDJMwOgl03OZztuxaV3erH4EQAA2FgsPvnQB99f9jSowRI8AAAA1BQv9k3l7jiPXVAAoFVi95PlwsdlJ8b2lzQbAAAAalGAAgAAQF2mt45m7jpf7oICAK2g+wkAAEB3sQQPGR8++WSYq7G8juV3AACgP8WLfvHO85Ozp1Yei3enuxsdgKLFLlv57idTOybW2RsAAOgHjz72eM19LNNTLgUoZMTiEwUmAADAemIXlGqxC0osQol3pQNAUSYvZ7ufTA+PrnoNAgAA+kc917B379rZhpmwEUvwAAAAULfYBSVfbGIZHgCKtFzcWO24blsAAAAdTwEKAAAADckvuRMvFMalEgCgCPnCRt1PAAAAuoMCFAAAABqyVheUk7OnSpoNAL0m3/1kamSipJkAAADQCAUoAAAANEwXFABaYa1l3fJFjwAAAHQmBSgAAAA0LHZBiUsiVDu2xkVDAGhEvvvJkfFDJc0EAACARilAASjA0tLSyhvQPFmCdHJEOx3PdUE5vHCpZ7qgyBKkkyMaFYtPYketarqfyBIUQY6gGLIE6eSIXjdU9gQAul08STh7brb2jsCGZAnSyRHtNr11tNIFJRaeLJu8PFN5vJvJEqSTI5qRX35H8YksQRHkCIohS5BOjugHOqAAAADQtFVdUK72ThcUANpnre4nJ3KvMQAAAHQ2BSgABRgcHFx5A5onS5BOjmi35S4oy+LFw9gFpdvJEqSTIxoxOZ997YjdT54Z2lLSbDqLLEE6OYJiyBKkkyN6nSV4ABLFk4S9e+60BY7t06zdB42TJUgnR5RlamQiswxPt3dAkSVIJ0c0otI9ayH72qH7yW2yBOnkCIohS5BOjugHOqAAAACQZK0uKCdnT5U4IwC6ybG505lt3U8AAAC6kwIUAAAAksSLhLELSrVu74ICQHus1f1kasfEOnsDAADQyRSgAAAAkCx2QakWu6BMzs+WNBsAusXk5ZnMduyolX9NAQAAoDsoQAEAACBZ7IJyZPxQ5rGjuSUVACAvX6x4fGx/STMBAAAg1VDZEwDoBUtLS2VPAXqCLEE6OaJM63VBmRoZL2lGzZMlSCdH1HJy9lRmOxYz6n6ymixBOjmCYsgSpJMjep0ClBbaOTIS9t+/N2zePBSuX78RTn372bCwuJg87qZNm8LrXnsgbN+2Ldy8dTNcuHApPHvm+QJmDDQjniycPae9PKSSJUgnR5QtXjiMxSbVd7PHLijdVoAiS5BOjqhHvvvJCd1PVpElSCdHUAxZgnRyRD9QgNICw1u2hJ/88R8N73jrmzOPLy3dDNOf+2L4+O98Jty6daupsX/o4XeGP/9nfyBs3TqceXz2pfPho7/1XytFLgAAAGWJFw+rLyjGLiiHr15yRzsAGfnik6jbChYBAADIGih7Ar1mcHAw/NLkeyrFJzdv3gpf+/o3wxee+kr49rNnXvncQHjkB98VJn/63U2N/dN/7S+Gv/ZjP1IpPjnz/Avhi099NfzhV/4oXL26EMbv3h1+8efeEw695kDB3xFQj5j95TegebIE6eSIslWWTxjOFpscmztd0myaJ0uQTo7YyNHca8OR8UMlzaTzyRKkkyMohixBOjmi1+mAUrA/d/j7w/5994XFxWvhV6Y+klka5/u+57vDe979l8J3v+kN4Xve8qbw5a/9cd3j/pl3vDX8mbe/tfLxf/j4J8Nnv/CHK5/bsX1beP/PvzfcO3FPpUjln/2L/7e4bwioKZ4k7N1z5y6t2D7NGn7QOFmCdHJEpzgycSh867mnVrYPL1zqqi4osgTp5IiNxO4nsUNWNd1P1iZLkE6OoBiyBOnkiH6gA0qBBgYGwuGHv6/y8SenP5spPom++OWvVrqhRI/84MN1j7tp06bwo3/2Byof//cv/GGm+CS6fOXl8NH/9F8rH989tisces0DTX8PAAAAqXqlCwoArZHvfqL4BAAAoDcoQCnQm15/KGzZclfl4y/+4VfX3OfzX/py5f39906EPeN31zXu6157IIztHA1LSzfDJ6f/+5r7fPvZ0+FzX3yq0h3l/NzFJmYPAABQnONj+zPby11QAOhva3U/OZF7zQAAAKA7WYKnQIdee6Dy/vyFi+HK1atr7nP6+RcqhSSDgwPhgfvvC+dmX6o57ncderDy/k+//UyYv3xl3f1+/T//dhOzzhrbtTN5jGUX5y9ntqtbSDW6rlk9zzW+8csav1rM9tAaz+/k+Rvf+J0y/lBl3cuBzHY3zd/4xu+E8dfKUZHjN8L4xo/L7cQuKLHwZNnk5Znw2R1jhYzfyvnns7NRlpqdW7f/+xq/9eNv9LxumP9Gr0nNjp9vTd1t/77dPv+ixp+cn8lsP7nr3nB6y7Yw2OD4KXOvZ/zUr1HU/JezdOtWCDdv3txw/Hq/x/W08udfz3P7ef6N/v/s9vk3On71c5t5faz1e1Knzb9fjm+NjN/Px4f88ztj/rfzVM/vSf12fOv2+Tc6fvVzW33sWe/5ReWrXcfn/GvSpk1h1T7NfI1ufH3Jj7+7oGvURV7rpjkKUAo0tnOk8v47Z19Yd59br/y2eP7ChTB+9+7w2oP7w5f+59dqjjtx9+0/0L700lzlfVyS5w0PviY8cP/eMDg0GM6cPRf++JunVgW1GR848t7kMZb96yc/Gi69WoQS5xbXMYviwad6fbNa6nmu8Y1f5vgzL56//dyBgXDP7rFXH7+Z2aeT529843fK+PHEezlDy8898/y5rpm/8Y3fCePnc3R7v5t1PbcT5t+P49+1eXOYWKMzYsr4165df+X85KW2zL/W+LELyqfPPr3y+P9+7Up4587t4czwto6e/yu/ua18FM/x7t1zz5pZanb8bvn/2QnjDw9vWXVcSx3/6sJCeOn8hbbMP2X8XTtHwtbh4ZaN3+r5j+zYvuZrUsr4cxcuhSsvv9yW+bdi/G6ffxHjv+vii5nCxOi39r8u7N15T8Pjb9+2NYyO7Kh7/vF51X98L/rnE/8Gtvx3sCLnv3x+F/Pz4vm5DcevZw7rafXPv57nXrnycpi7eKkt8x/esiWM7RpdtU8946/33Or5x27W27evf76z0XPrmf/EPbsbvsBTa/71ZKSo+af8+643/43Gr/V7Uj3nBkXNf/PmoTXPberZZz3tnH894zc6/1afv8VjZyPH/5R8xd8d1vr9rp7fceoav55/33XmUNj8B/J/v9v496SGf79LmP96/3YpP/92zr8V/39aff5T/dyo1vjr7VPP+N04/+qf/+2/2w029TfwTph/K37+1ePfc/fu8E/+zi/W/Vw6mwKUAm3evLnyfmFhccP9XnxprlKAsnmovh//3r17Ku+f+87ZcOg1D4T3vPvHV1WBXX7lJP/ffezjlUIUAKC2Wq/Xna7b50+x4h/xi3bl5bU7+lGseHG9aAuLnXN8eHbzljC9dWc4fPX2MqH7Fl8Of++5r4e///p3rPucTpo/5bvr1d+zi3T9+o3Cx2yFOM+tq+tPusbSzfqKthpRfadgN+r2+RchvgZU+/WJB8If7LynpNnQaVpx3FhPSh7Xe271/Bv9Xrrle19PO+ffCjfrLDQuwuBA7cKGevap1s7516PR+dej077H9Qyse3xIv3k4dQ4pz02Zf6PPTZl/UXMo6rn9JhbQrKW6SGm9fdZTz40g9d4sUks9c2t0/tVur46xVgeX7ji+QSP85lugfXvvrby/eevWhvvdePWEfKjOApQd225Xy++7797wC+/76bBrdDT88Tf+NHzhqa+Erzz9jcofpXZs3xb+j/f+VHjrm78r4TsAgP7Ril9o26nb50+xWvHLasov1bDsmaEt4d+OTmQei3e/Q71acSzqlj/wXbt+vewpJGnF/OMd1d2s2+efat/Cy6teAz6650DT43VaQXaj82nF/GNniHZJKVZe77mtKKpudA4pz62ef6PfS7d87+tp5/xbUazciqLw9dQz/0a/x3bOvx6d9m/UzuLj9b5WK4qqG51DynNT5t/oc1vx79XO+acU5K333G4pYq5n/o3+fOr53ov6+dQzt5R/3/Xm2S3/vtCITQOvfXjjagnq9k//0d+tnGzHwpBf+9gn1t3v53/mJ8Jb3viG8LWvfzP8m4/8h5rj/vL/+Q/D0ObbVXGx08mvTH0kPP/CnfVyd46MhF+cfE+4d+KesLh4LTz62OPhytX6fpGInVQ+9MH3r2x/+OSTYe7CxbqeW8vFV1t+LltuoxQ10sKu3uca3/hljR8ttxWLJwsvnHsx3FjKVkZ38vyNb/xOGT/mp7pFX8zS4rVrhY2/0fNaMX69z+3X+Ru/2PGXP79WjvKvSfWOX+//sfV00s+nk8ff6Hm9cnw4eGMx/O7zT1feL/tn9xyoLM9Ta+x6xt9on/XUem6+9fHsi+fXzVKzc+uG/5+dMH4z5+aOb50xflzb/P779qw8Xv2a1A3zN37x4/+rF74ZJufvtP+eHh4Nf27/dxc2fi2tfn1p1fjL53fxfrebN2+utCrvtH9f42f3acXrV6vH7+XXx3p+T+rk+Rs/bfxGj8+tzm8zX6NTxo+fW17+N9robw7NjF9rn1rjt+L363qf26njd8Lv1/08/lrPa/Zv4I18jWb2qfW8Vo+fX/kjVfW173jd/HxB176pT3/felGngYGBcGD//et+/tnT36n8Anj9Rry7p45q7023X5xrNEpZ0//3G7+VKT6JLs7Phyd+7T+Gf/i3fyFs2XJXePvbHgq///n/0fjgIVSKT9oRwvxBq+jnGt/47Ry/+gU13k0ZT7o3GqPT5m9843fS+NV3JG/0x6CUOaQ81/jG79Txqz+fz1FRc+vmn08nj1/v8zp1/vU8N3ZBOTG2P5ycvbNc6HsvvBCOjt5XyPj17pPy3Hqz1Oz43fzv2+rxU8au9/nd/PPp5PFvhfpekzp1/sYvfvzq4pMoFiKm/u7cSz+fjfdbfbdtN82/H8dv9euX18fGx2/k96ROnL/x2ze+fNUz/u08NfN7kt+vjd+v42/0t7sixq/3uZ06fpHXposuZqFxClDqsHloMPztv/W+dT//jx/952Hx2s3wwsyLleVxarVLGnr189frbEd781Y8EA2GS/OXwzdOfXvNfV6YfTGcPvN82L/vvnDw/n3h90NzBSgAAABFm946mtmO3VDihcipkfF1ngFAL6kuQoxicWL+tQEAAIDuZ2GpAl27drugZMtdd224357xeyrvr1xdqGvc2fNzlfffOXtuw/3OX7xUeT88vPHXBwAAaKd4oTFfbHJ07nRJswGg3fLdT06sswwbAAAA3U0HlDpcv7EUfmXqIxt+Ppp58aXK+/G77153302bNlW6pERx6Z56vPjS+XD/vRNh29bhuva/sXSjrv2A4qS2ZgRukyVIJ0d0qnixsfoCZOyCcvjqpY69A16WIJ0cEeWLTyIdsBojS5BOjqAYsgTp5IhepwClDjdv3gx/8q1nau737efOVN5P3HN32L51a7hy9eqqfQ4+sC8MDGyqfPz8Cxt3NFn2rWeeC2996LvCvvv2hi13bQ6L19Zeumfvntu/vJ+fK26dLKC2eLJw9tzqP6irGCSoAAAgAElEQVQBjZElSCdHdLLlLijVFyLjkgwPPvD2Eme1NlmCdHLEsnzHq+Nj+0qaSXeSJUgnR1AMWYJ0ckQ/sARPgb7xp/8rXHn5aqXA5F3vfNua+3z/995+/DvPnwvnZl+qa9yvPP2NcPPmrTA4OBB+8OF3rrnPodc8UCl8ib769T9pYvYAAACtlV9yYbkLCgC9KRYdxmN9NcvvAAAA9C4FKAW6detW+P3Pf6ny8Y89cji8+bten/n8Dz38zvCOt7658vFvf+azq57/8Pe+Lfz8z/xE5S12Olk2f/lK+L1Xx/0LP/xD4e2vjrHsvnsnwt/8qb9W+fhbz5wO337WWurQboODgytvQPNkCdLJEZ0sdkGZHs4uuXNsrjN/f5ElSCdHTM7PZLYtvdMcWYJ0cgTFkCVIJ0f0OkvwFOxTv/e58LoHXxMePLg/HPnZn6wUhMxdvBD27tkT7r93orLPF576Svijb6zuUnLfnonwlje+ofLx0OB/CYvhzlI7//lT/y3smbg7vPF1D4b3/eRfDj/yA+8K33nhXNi2bWt4w4OvrXRduTR/OfzqR3+zPd8osCKeJCwvgRXF9mnW8IPGyRKkkyO6wfGx/eHTZ59e2T68cKnSBWV66+gGz2ovWYJ0ckTsfhKP8dV0P2mcLEE6OYJiyBKkkyP6gQKUgsUuKP/yiX8X/tKP/nD439759kohSgi3f7leXLwWfveznw+/M/25hse9efNm+Ff/9t+HHzn8/eHww98X7n3l4HTvqweouDzPl7/69fCx//qpSrcUAACAThULTWIXlOqLkrELyiNbHypxVgAUba3uJ7ETFgAAAL1LAUoLXL9xI3zsE5+qvDXiNz7+ycrbRmLxSjMFLAAAAJ0i3wXlwI3FjuuCAkDz4jE93/1kasdESbMBAACgXQbKngAAAAD9ZbkLyrKDNxbD5OWZDZ4BQDfJH9Nj9xNFhgAAAL1PAQoAAABtNzWSvRM+3i0fC1EA6G6VosL52cxjup8AAAD0BwUoAAVYWlpaeQOaJ0uQTo7oFmt1QTk6d7rEGWXJEqSTo/6UP5bHY73uJ2lkCdLJERRDliCdHNHrhsqeAEC3iycJZ8/N1t4R2JAsQTo5ops8M7Sl0gXl8MKllcdiF5ROIEuQTo7616ruJyO6n6SQJUgnR1AMWYJ0ckQ/0AEFAACAUuTviF9r2QYAusdanaymRsZLmAkAAABlUIACUIDBwcGVN6B5sgTp5IhuErugHBk/lHmsU5bhkSVIJ0f9J19EmD/G0xxZgnRyBMWQJUgnR/Q6S/AAJIonCXv33LmjK7ZPs3YfNE6WIJ0c0Y3W64JS5h3zsgTp5Kj/xGN3PIZX0/0knSxBOjmCYsgSpJMj+oEOKAAAAJQmdkHJX6DslC4oANQvf+w+PravpJkAAABQFgUoAAAAlOrE2P7MdryD/vDVSyXNBoBGrdX95ImRiZJmAwAAQFkUoAAAAFCqtbqgHNMFBaBrTM7PZLbjMT0e2wEAAOgvClAAAAAoXb4LyuGFS7qgAHSBeKyOx+xq+WM6AAAA/UEBCgAAAKWLd8pPD49mHtMFBaDz5Y/Vup8AAAD0LwUoAAAAdITjuqAAdJW1up9M7ZgoaTYAAACUbajsCdBZxnbtrLnP+QsX2zATAACg30xvHa10Qam+mDl5eabyOACdJx6jq8VjuGM2AADQKrtrXMuu51o3raUAhYwPHHlvzX0efexxRSgAAEBLxC4onz779Mp2vLv+4I1FyzkAdKDJ+dnMdr6TFQAAQFFi8cmHPvj+sqdBDZbgAQAAoGMsd0FZFotPjs6dLnFGAKzl5OypzLbuJwAAAChAAQAAoKNMjUxktmMXFAA6S777Sf7YDQAAQP+xBA8ZHz75ZJirsbyO5XdgtaWlpbKnAD1BliCdHNEL4h30ccmd2P0kiu/jnfZHxg+1bQ6yBOnkqHet1ZlqamS8hJn0B1mCdHIExZAlSCdHaR597PGa+1imp1wKUMiIxScKTKAx8WTh7LnZ2jsCG5IlSCdH9IpYfHJibH9meYd2dkGRJUgnR73t2NyZzHY7CwT7jSxBOjmCYsgSpJOjNPVcw969a2cbZsJGLMEDAABAx4ldUKotd0EBoFxrHYt1PwEAACBSgAJQgMHBwTA8vCXctXlz5WOgObIE6eSIXhG7oOTvqI9dUJaX5Wk1WYJ0ctSbJuezd2zqftJ6sgTp5AiKIUuQTo7odZbgAUgUTxD27rlzt5f2adAcWYJ0ckSviV1QYiHKctFJfH907nTLL3bKEqSTo96k+0n7yRKkkyMohixBOjmiH+iAAgAAQEeKxScnxvZnHotdUOIbAO0ViwB1PwEAAGAjClAAAADoWLELyvTw6Mp25QLo5ZkSZwTQn2IHqmqxSFD3EwAAAKopQAEAAKBjxQucx3NdUOId+LqgALRPPObqfgIAAEAtClAAAADoaPkuKNGx3J34ALRO/pgbj8nx2AwAAADVFKAAFGBpaSlcXVgI165dr3wMNEeWIJ0c0avyXVAOL1xqaRcUWYJ0ctQb4rE2HnOr5Y/JtJYsQTo5gmLIEqSTI3rdUNkTAOh28QTh7LnZ2jsCG5IlSCdH9LLlLijVF0HjHfmPbH2o8K8lS5BOjnqH7iflkiVIJ0dQDFmCdHJEP9ABBQAAgK7Q7i4oAP1O9xMAAAAaoQAFoACDg4NheHhLuGvz5srHQHNkCdLJEb1suQtKtZOzp1rytWQJ0slR99P9pDPIEqSTIyiGLEE6OaLXWYIHIFE8Qdi7Z3xlW/s0aI4sQTo5oh8cmTgUvvXcUyvbB28shsn52TA1Mr7BsxojS5BOjrpfPLbqflI+WYJ0cgTFkCVIJ0f0Ax1QAAAA6BrPDG1ZVWxyNHeHPgDpJudnMtvx2Kv7CQAAABtRgAIAAEBXOZG7A3+5CwoAxVir+0n+2AsAAAB5ClAAAADoKrqgALRW/pgaj7nx2AsAAAAbUYACAABA11mrC4oiFIB0sftJPKZW0/0EAACAeihAAQAAoOvEO/GPj+3LPGYZHoB0up8AAADQLAUoAAAAdKUnRiYy2/GO/ZOzp0qaDUD3i8Unup8AAADQLAUoAAAAdKV4R/6R8UOZxw5fvbTq4ikA9Tk2dyazHTtN6X4CAABAvRSgAAAA0LWmt45mLo7G4pP88hEA1LbWsVP3EwAAABqhAAUAAICuFYtP8hdIYxeU+AZA/fLdT/IdpgAAAKAWBSgAAAB0tdgFZXp4dGU7dkGZvDxT4owAusvJ2VOrHpsaGS9hJgAAAHSzobInQGcZ27Wz5j7nL1xsw0yguywtLYVr16+HwYHBysdAc2QJ0skR/Sh2QZkamQiHF+50PZmcnw1TOyYqxSnNkCVIJ0fdoVK098oxs5ruJ51FliCdHEExZAnSyVGa3TWuZddzrZvW2jTw2odvlT0JyhND+qEPvr+h5zz62OOKUAAAgI7z6eefzhShxK4oj9z3UIkzAuh8sftJdQFKLOp78IG3lzgjAACA1VzX7g6W4AEAAKAnHB/bn9mOxSiHr15aZ28A4jEy3/3kRO5YCgAAAPVSgAJQgMHBwTA8vCXctXlz5WOgObIE6eSIfhaX24ldT6odmzvd1FiyBOnkqPPlj5HxGDo1Ml7SbFiPLEE6OYJiyBKkkyN63VDZE6CzfPjkk2GuRhsibYogK54g7N1z5w90Z8/NbrA3sB5ZgnRyBLe7oHz67NMr28tdUGJxSr1kCdLJUeeLx8bqZcuifCcpyidLkE6OoBiyBOnkKF1cUqeWRpfpoVgKUMiIxScKTAAAgG613AWl+qLqydlT4cEH3l7irAA6z1rdTxop1gMAAGineq5h7961sw0zYSOW4AEAAKCnHJk4lNk+eGMxTM67qwhgme4nAAAAtIICFAAAAHrKM0NbwtTIeOaxo7k7/QH6me4nAAAAtIICFAAAAHrOidyd/LqgANwWj4W6nwAAANAKClAACrC0tBSuLiyEa9euVz4GmiNLkE6O4LbULiiyBOnkqDNNzs9ktuOxUveTziZLkE6OoBiyBOnkiF43VPYEALpdPEE4e87dtJBKliCdHEFW7IJS3fVkuQtKvjAlT5YgnRx1prW6n0ztmChpNtRDliCdHEExZAnSyRH9QAcUAAAAelJqFxSAXpM/Bup+AgAAQJEUoAAUYHBwMAwPbwl3bd5c+RhojixBOjmCrNgFpVrsgnJy9lTN58kSpJOjzhK7n8RjYLX8MZLOJEuQTo6gGLIE6eSIXmcJHoBE8QRh7547d9ZqnwbNkSVIJ0ewWuyCcmT8UKbo5PDVS5WLsPFza5ElSCdHnWet7ifrHQfpHLIE6eQIiiFLkE6O6Ac6oAAAANDT4vIS1RdZY/GJpXiAfhKPebqfAAAA0GoKUAAAAOhpsfgkf6F1uQsKQD84Nncms318bJ/uJwAAABROAQoAAAA9L3ZBmR4eXdnWBQXoF2sd63Q/AQAAoBUUoAAAANDz4p3+UyMTmcdiF5T4BtDL1up+AgAAAK2gAAUAAIC+sFYXlGO6oAA97NPPP73qMd1PAAAAaBUFKAAAAPSF2AXleO7C6+EFXVCA3lTp8rSQPb4dGT9U0mwAAADoBwpQAAAA6Bv5LiiRLihAL8of2+Kxb2pkvKTZAAAA0A8UoAAAANBXdEEBet3k/Oyq7if5Yx8AAAAUTQEKAAAAfWWtLignZ0+VNBuA4uWPabHzSTz2AQAAQCspQAEAAKDvHJk4lNk+eGMxHLUUD9AD1iqoO6H7CQAAAG2gAAWgAEtLS+HqwkK4du165WOgObIE6eQI6vPM0JZKR4BqccmKWIgSyRKkk6P2i8uJxWNZteNj+yrHPLqXLEE6OYJiyBKkkyN63VDZEwDodvEE4ey52do7AhuSJUgnR9CY2BEgXqxdLjpZ7oJyZPyQLEEir0nlOJbr5BQLT3Q/6W6yBOnkCIohS5BOjugHOqAAAADQl9a6MBs7B8SiFIBuUzl+LWSPX7GgDgAAANpFAQpAAQYHB8Pw8JZw1+bNlY+B5sgSpJMjaExchmd6eDTz2L958ZQsQQHkqL2O5rqfxGPb9NbRdfamm8gSpJMjKIYsQTo5otdZgoeMsV07a+5z/sLFNswEukc8Qdi7Z3xlW/s0aI4sQTo5guYcmTgUvvXcUyvbB64vhv978cXw/+x5Y2VblqBxXpPaKxafLC8ntuy4pXd6gixBOjmCYsgSpJOjdLtrXMuu51o3raUAhYwPHHlvzX0efexxRSgAAEDPiEvxxE4ocfmKZT917rnw6xMHwpnhbSXODKC2WHhybO5M5rFKdyfdTwAAgB4Si08+9MH3lz0NarAEDwAAAH3vRK5TwL7Fl8Pfe+7rJc0GoH4nZ06teuzI+KESZsL/3969QMdVn4ei/1uy/ALZlm3JD/wE8zSvQEiAJjExadI0L/KAhEdCQ0jTJLervWl7zj2nWXDgcu65t6uHrrt6wslNT51ASwPNgzRpSBMCqQMkAcLTmKcdbGz8kvETW/JD8tV/y1I00kgaaW9pZmt+P9asPdozs/k80jd7z+xvvg8AAKDaKUABAACg6sUuKL1P2H5s+6vhwj07yhQRwOCWt+wNy1v3FqxTfAIAAEC5GMFDga+svDPsGmS8jvE7AADAWBTHVayaNLXgZO5/f+nxcM/C88oYFUD/bty1seDn+BoWx+8AAACMRbfcetug9zGmp7wUoFAgFp8oMIGha2trC4cOHw61NbXJdWB45BKkJ49g+JIuKE1Lw7pXn+heF0fx/OWO9X1G9ACDs08aWdfua+7T/eQmr1VjklyC9OQRZEMuQXryaPhKOYc9Y/q0UYiEgShAAUgpHiBs2dZc7jAg9+QSpCePIL1YhBK7B8QTu13i9Tvqm5LbgNLYJ428lc1rC36Or12xkxNji1yC9OQRZEMuQXryiGpQU+4AAAAAoJL07nay+MjBcEOvMRcA5dS7+CTSqQkAAIByU4ACkIHa2towadLEMKGuLrkODI9cgvTkEaQXO51cP/vkgnXJqIuWvf08AijGPmlkxNeinl2aousal+rSNIbJJUhPHkE25BKkJ48Y64zgAUgpHiDMnd3Y/bP2aTA8cgnSk0eQjZhLzy84MfyqdVe4cM+O7vWx48BJC88rY2SQH/ZJI+fGXh2ZukaHMTbJJUhPHkE25BKkJ4+oBjqgAAAAQC+bJk0Jf3by+QXrjOIByi3pxtRa2I0pdj8BAACASqAABQAAAIqIRSjfblpYsC6e/I2FKADl0LsIbtWkqWHV5KlligYAAAAKKUABAACAfvzNwtMLftYFBSiX+NrTuwDuuibdTwAAAKgcClAAAACgH7ELymfnnFqwLhmB0bK3n0cAZC8Wnty4a1PBupsa5of14yeWKSIAAADoSwEKAAAADCCOt4hjLnpa2by2TNEA1Wjl9sLXnFh4cnPDgjJFAwAAAMUpQAEAAIABxBO9N/U60Ru7EcROKAAjLXZcWt5a2HXpukajdwAAAKg8ClAAAABgELELyu31jQXrbti1MSlEARhJvTsuxY5M8TUJAAAAKo0CFAAAAChB73EXsfgkFqEAjJRihW69OzIBAABApVCAAgAAACWIo3h6j72IY3jieAyArMXCkxt3bSpYFzsx6X4CAABApVKAAgAAACWKJ37j+Iueeo/HAMjCyu19X1t6F8EBAABAJVGAApCBtra2cOjQ4eQSrwPDI5cgPXkE2egvl2IXlN7jL2KXgtgJBShknzR8sbPS8tbC7kqKT6qXXIL05BFkQy5BevKIsW58uQMYy6bV14cFJ8wNdXXjw+HDR8LaVzaE1oMHB3/gIGZMnxbmzZndvd0Nm14L+97Yn0HEwHDEA4Qt25xwgLTkEqQnjyAbg+VS7IISx2D0LDq5YdfGZH0sUAHsk9K6seM1pafYeSm+7lB95BKkJ48gG3IJ0pNHVAMFKCNg0sSJ4aPvf3c4/5wzC9a3tbWHVb94NPzwp/8ejh49OuTtTp82NVz5kfeHk5csKljf3n40PLl6Tbjn3vvCgZbWVLEDAAAwuJsbFhQUoMQuKLEIRYcCIK342tK7+0nvzksAAABQiRSgZKy2tjZ8/tpPhAXz5yWFIWtefCkpCmmaOTMsWTQ/rHj7hWHWzIbwjbu+O6Tt1h9/XPjfP/cHyTJud/XzLybdVKYef3w4/ZSTkmKXObObwv/4X3eEg4cOj9C/DuhPzP3ams6pZm3t7dqmwTDJJUhPHkE2Bsul2OkkFpusbF7bvS6eNL79+KakEwpgnzRcPV9Xotj5xOtKdZNLkJ48gmzIJUhPHjHWKUDJ2O8uvzgpPjl48FD46u3fDBs2be6+7S1vOjt84sPvC2efcWp401lnhCdXP1fydj/4nhVJ8UlLS2u47Rv/FF7bsq37ttOWLgnXX/PxcMKcpnDpOy4O9/50Vab/JmBg8WBh7uzftkLWPg2GRy5BevIIslFqLsUTwnEsRs9OBfHE8UkLzxvxGKHS2ScNT+/ik+hm3U+qmlyC9OQRZEMuQXryiGpQU+4AxpKampqw/KK3JNd/suqhguKT6NEnnwmPPPF0cn3F2y8qebvjxo0L5555RnL9gYd/VVB8Er2w9pXw2FPPJNdjkQsAAAAjL3ZB6T0WI47i6TmaB6BUy1v29nn9uKlhfvJaAwAAAHmgACVDZ5yyNEycOCG5/ujjzxS9zy8fezJZxm4lsxtnlrTdCXXjQ21t569q67YdRe/zm/Ubk+XU+uOHFDMAAADDF7ugxPEYPd2wa2OZogHy7MZerx2x8ET3EwAAAPLECJ4MLT1xUbLcuXtP2N/SUvQ+GzdvDW1t7UlBycIT5oVtza8Put1Dh4+E9vajoaZmXJgxY1rR+zTOmpEs4+ifNBqmF9/+cOzZ90bBzz1nmMUWU0NRymNt3/bLtf2eYm6PL/L4So7f9m2/UrYfc6er4LLr5zzFb/u2XwnbL5ZHWW5/KGzf9vO8/d65M1AuRf911uKCrgWxC0oco3Fd49Ix+fzY/uhsf6DH5SH+gfZJw91+79noefv9DhT/X+5YXzDOK/pMU/+vIaX8P/L2/Ax1+2m2Xcr20/4/soq/K5eOHg2hvb19wO2X+m/sz0g+/6U8tprjH+rfZ97jH+r2ez52OPvHwd4nVVr81fL6NpTtV/PrQ+/HV0b8nfk02Puk4o+thPi9Pg90v6xf37J67env8Vnl12i9PvfeJ40bF/rcZzj/jzzuX3pvf0ZG56izPNfN8ChAyVDDtPpk+dqWrf3e52jHu8Wdu3eHxpkzwomLF4THnlo96HbjY55+9oXwprNPD5dc/Nbw5DPPhTf2H+i+PSbk71zQOWM8jvlJ44vXXZ3q8T39rzu/FfYeK0KJLyJdc8zii0/P+WaDKeWxtm/75dz+9h07Ox9bUxNmzWg4tr694D6VHL/t236lbD8eeHflUNdjN23elpv4bd/2K2H7vfOo837tJT22EuKvxu1PqKsLTUU6I6bZ/qFDhzuOT14flfhHYvuVEH/Hu7Dua/EYb87sWUVzqcvBjsufjW8P//3lx7vXxVEa7zz0Rnh58dJRj38sbX/SpIl9XtfSbr+ltTW8vnP3qMSfZvvTp9WHyZMmjdj2Rzr++uOPK7pPSrP9Xbv3hv0HDoxK/COx/f7in996INz48qaC+66aNDU8eFxDRcVfads/bsrkIXUCjo/r+eF71vHHz8C6PgfLMv6u47uYPzt27hpw+6XE0J+Rfv5Leez+/QfCrj17RyX+SRMnhobpU4e1/f4e2zP+hmlTw3HHTSl5+6X823vG0DRrxpBP8AwWfyk5klX8aX6//cU/0PYHe59UyrFBVvHX1Y0vemxTyn36M5rxl7L9ocY/0sdv8bVzKK//afIrvnco9v6ulPc4JW2/lN9vPzFkFn9N78/v+n+f1OexIxx/f7+7NM//aMY/En8/I3380/Ox0WDb7+8+pWw/j/H3fP47P7erHdZn4JUQ/0g8/z23P2vmjPCf/+RzJT+WyqYAJUN1dXXJsrX14ID32/H6rqQApW586U//PT/6SWhqmpmM7vnzL3wm/Orxp8L2ju2c0JHIF55/bpg8eVJ4ZcOm8KP7f57q3wAMT9xJdl7aBz3oBoqL3+iL+RO/1VfT8YZrpHNpsP11pct7/GQrfogfZZlH+w8U7+hHtuLJ9ay1Hsz360NFxB9zqb3z2G7ChPi+bdygD/nVtFnJ5cI9nWNTYxeUv9/2UnhHkQIUSjfh2PvsLB0+fCTzbY6EGOfkvvUnudGVQ1ke2/X8pmAe9Rd/z+K1Ltc1ee2gU9fx3ZEjR7o/exjKidE8aWsfvc9T0rye9PfYnvEP9d+Sl397f0Yz/uEY7H1S+yh+lldbM3j+lnKfnkYz/lIMNf5SVNq/sT81/b4+tBVdP5oxpHlsz/jj9XicWurx3VD/7WnizyqGrB5bbWIBTTE9/076u09/Svoby+j1oZTYhhp/T53TMWr77JPy8v4UhkIBSobmz52TLNuPHh3wfkeOHZCPH0IBSux48rd/d0f47Cc/Hk5avCC8+5K3Fdy++oWXw+13fbegFScwOroqPDurV8fmh0AwGuI+rOsbfaNhJN7Qjqa8x0+2ut5sZ5lHad5UQ97FkyhD/QbPpklTwt8sPD3cvfrB7nWLDh8MH9v2avj27IUjFutYNxKvRXkpGD90+HC5Q0ilpfVg5sd28RvVeVYs/j999fnuwrUuK+YuC+vHTwzeXQ4sFmQPpQPHSBtqgXip8Xcd3/X+9moxsTPE3l4jsUdKLFYe7vPf32NjUfVYib+rQLxUefm392c04x9OsfJg75OSovA9aaIqXSnxD/XfOJrxl2IkCsrT/BtH8+Ruf/+vkSiqHmoMaR7bFX/nvigetwxeoN/7sWljSCPN8z/Ux6YpyOvvsXkpwi4l/qE+P6X827N6fkqJLc3vtyvO3vukGp+/MQaNqznxooGrJSjZ//l//GlysP3IE0+Hu793b7/3+/SVHwlnnX5qWP38i+Hr3/xuSdteumRh+OTllyUtbFtaWsNzL60NRzp29vGN5bJTTg7j62rDtubXw8p/+nZofn1nyTHH8T1f/tIXun/+yso7w67d2Ryt7un1pqOrjVI01JP0pTzW9m3f9m3f9m1/qC1SexL/8B5r+5Wx/eEUQA62/VL/xoa7/VLvM9a3P9DjqvX1Ie/x37fxmbC8dW/3z5smTgknLjwvs+2X+tixsn2vb7Y/lrd/6eH94ScbC0cpx9E7K+Yty2T7eX9+8rZ/yfv+y/az3f5I7L9Gevv2j7Y/Vrc/1Nfnkc7f4fw/bL+07Y/E++tSH1up23d8Ut7tl/q4PMQ/0tuP56uz1PPc9y233hZ2ZnTum9Lk+6sjoyRWny1acEK/t2/Y+FpSsXb4SPx2UgnV7eM6q9kGaZTSbWbD9PCZqy4PEydOCC+/siHpdHKgpbX79mn19eH6T16RjOf5oz+4MvzV334tHDw0vG9KxeKT0UjC3i9aWT/W9m1/tLcfd6rx25ldFbADbaMS47d926+U7ffOpay3n/axtm/7lbr93m/0St0nDSW2PD8/lbz9Uh9XqfGP5e0PJ5eiODZj3atPdP88/+CB8HdbXwzXNfY/TiOPz89obT/Ntkt9fJ6fn0rffjRYHlVy/CO9/b9sXt9nXc/ik7Tbz/vzY/u/1bVP6vm4PMVfjdsf6f2X/ePQt5/1Z3dj7fmx/Wy2Xerj8/z8DPd90lBi8/7a9sfi9gf67C6L7Zf62ErdfpbnprMuZmHoFKCUoG58bfjjz1zT7+3/6Za/DgcPtYet23eE6VOnhsHaPY0/dvvhEtvpXnLxW5Lik9gesXfxSbRn377w93d+K/zln34+NEybGi5+y3nhZw89UtK2gfTiwULPtuyDtcQFipNLkJ48gmykyaU4NiMWm6xsXtu9bnnL3uSyavLUTOOESmafNLAbdm0s6JYUxdE70JtcgvTkEWRDLkF68gjv4QUAACAASURBVIhqYLBUhg4d6zoyccKEAe83u3FWstzfq5CkP4sXLUiWL7y8rk/xSZfde/aGFztuT+6/cEFJ2wUAACB7sdAkjtHosvjIwYKCFKC6xYK0G3dtKlgXXzMUqQEAAJB3OqCU4PCRtvDV27854O3R9h2vJ8vGmTP7ve+4ceOSLilRHN1TilnTpyfL1taDA95vf0tLspxUV1fSdgEAAMhe7IJyU8OC8MCWNd3ruopQBhrFA1SHG3dtLPg5vmb0Hr0DAAAAeaQApQTt7e3hpXXrB73fK692fnuladbMcNzkyd0FIT0tXjg/1NSMS65v3rqtpP//9h07woL588KUyVMGvF/8f0athwYuVAEAAGBkxU4GNzXML+hycO2+5rBq0rRwe33jAI8ExrJio3cUpgEAADBWGMGToRde/k3Yf6AlKTC58IJzi97n4jd3rn9t87awrfn1krb74m/WJ8uzl50aptXXF73PjOnTwqknn5RcX19iZxUAAABGzh31TQWjeKJ48jl2QwGqT7HRO7EgzegdAAAAxgoFKBk6evRoePCXjyXX37tieTjztFMKbn/HRReE8885M7n+439/qM/jL3rzueHTV34kuUyc8NsxOg898uvQ0tIaamtrwvWfvCLMbJhe8Lj48/XXXJHc/sb+A+GXjz2V9T8NAACAIYpjNa5rKuxskIzi2b62TBEB5VRs9I7uJwAAAIwlRvBk7L6f/yKcfNKScNLiBeG6qz4a1q3fGHbt2R3mzp4dTpjTlNznkSeeDs++8FKfx86b3RTOOv3U5Pr42h+Fg+Fwcn3vvv3hH771vfDpKz+WbOM//ckfhRfXxW4rB8JxU6aEU086Mem6cvDgofD1u74bWg/6Nh0AAEAliCeYe4/iieM3YieUmxsWlDEyYDQZvQMAAEA1UICSsdgF5Wt33BXe9+53ht+54LykECWEzg8VY4HI/Q/9Mvx01S+GvN0X1r4S/uarXw8ffO+l4bSlJ4bTj43bidrbj4bVL7wcfvBv94cdO3dl9U8BAAAgA3EUzyUtewtOPl+7rzlZHwtUgLHN6B0AAACqhQKUEXD4yJHwvXvvSy5D8Z0f/iS59Gdr847wtTvuThseAAAAo6hrFM+6V5/oXtc1imfFvGVljAwYDSubC8duGb0DAADAWFVT7gAAAABgrCt2wrlrFA8wdsXik1hw1pPiEwAAAMYqBSgAAAAwCpKRG5MKR27EUTxxPAcw9sTcjjne000N843eAQAAYMxSgAKQgba2tnDo0OFkGS/A8MglSE8eQTZGKpfiKJ7YDaVLMoqn13gOGCuqfZ9UbPTOzQ0LyhQNeVbtuQRZkEeQDbkE6ckjxrrx5Q4AIO/iAcKWbc2D3xEYkFyC9OQRZGMkc6nrBHTPE9NdRSjGcjCWVPs+6YHNa4zeIRPVnkuQBXkE2ZBLkJ48ohrogAIAAACjKI7iiZee4qgOo3hgbEjyubUwn43eAQAAoBooQAHIQG1tbZhQV5cs4wUYHrkE6ckjyMZI51LsgmIUD2Ndte6TjN4ha9WaS5AleQTZkEuQnjxirDOCByCleIAwd/Zvv8GqfRoMj1yC9OQRZGM0cimekI7jOB7YsqZ7nVE8jCXVuk8yeoesVWsuQZbkEWRDLkF68ohqoAMKAAAAlEEcxxHHcvR07b5mo3ggp4zeAQAAoNopQAEAAIAyuaO+KayaVHhyOnZB6d1BAah8PTsaRTG3jd4BAACgmihAAQAAgDJJRvE0FY7niMUnN+zaWKaIgOGIo3d6u0nxCQAAAFVGAQoAAACUUSxCKTaKJ16Aymf0DgAAAHRSgAKQgba2tnDo0OFkGS/A8MglSE8eQTZGO5eKjeKJXVCM4iHPqmGfFHPU6B1GWjXkEow0eQTZkEuQnjxirBtf7gAA8i4eIGzZ5tupkJZcgvTkEWSjHLnUNYpn3atPdK+LJ7ZXbl8bVsxbNqqxQBaqZZ8Uc7Q3o3fIUrXkEowkeQTZkEuQnjyiGihAoUDD9GmD3mfn7j2jEAkAAEB1SYpQGpeGlc2/PaEdx3rETii6KUDliWOyjN4BAAAYPTMGOZddyrluRpYCFAp88bqrB73PLbfepggFeqmtrQ21NTWhrb09+VnbNBgeuQTpySPIRrly6fb6xnDtvu0FJ7XjSe5Vk6Y5qU3ujOV9UtKhqLmw+4nRO4yUsZxLMFrkEWRDLkF68mj4YvHJl7/0hXKHwSAUoACkFA8W5s5u7P5Z+zQYHrkE6ckjyEa5c6noKJ7mteGkheeNahyQRrnzaKQVG70TcxeyNtZzCUaDPIJsyCVITx5RDWrKHQAAAADwW12jeHqKRShxFA9QfsVG78ScjbkLAAAA1UwHFAp8ZeWdYdcg43WM3wEAABhZcRTP8tY9yYnuLkbxQPn1N3on5iwAAAAj65Zbbxv0Psb0lJcCFArE4hMFJgAAAOV3c8OCsLxlb3LCOzKKB8rP6B0AAIDyKOUc9ozp00YhEgZiBA8AAABUoP5G8fTuvgCMjjgGq/fonRVzlxm9AwAAAMcoQAEAAIAKFcft3NQwv2BdHMUTO6MAoyfm3I27NhWsi6N3jMQCAACA31KAAgAAABXsjvqm5ER3T7ELStdoHmBkxVx7YMuagnWx68mKecvKFBEAAABUJgUoAAAAUMGSUTxNRUbxbDeKB0ZDsVzrPR4LAAAAUIACAAAAFS8WofQexbO8dW+4YdfGMkUE1eGBzWuSXOsp5qLROwAAANCXAhQAAADIgWKjeG7ctSlcu6+5TBHB2La8ZW+f4pOYgzc3LChTRAAAAFDZFKAAAABADnSN4onLnmIXlDiSB8hOzKkHtqwpWBdzb8W8ZWWKCAAAACqfAhSADLS1tYVDhw4ny3gBhkcuQXryCLJRqbkUT4Bf2usEeDxRfv/mNf08AsqnUvOoFCu3r+2z7rrGpWWIBPKdS1Ap5BFkQy5BevKIsW58uQMAyLt4gLBlm7bnkJZcgvTkEWSj0nMp6YTSuDSsbP7tCfJYhBJ/doKcSlHpeTSQBzav6TN6Z8XcZWHV5Kn9PAJGTp5zCSqFPIJsyCVITx5RDXRAAQAAgJy5vb4x3NQwv2Ddtfuak3E8wPDFHOpdfBLzTfEJAAAADE4BCkAGamtrw4S6umQZL8DwyCVITx5BNvKQS3fUN4VVkwpPiscilOUte/t5BIyuPORRTzF3bty1qWBdzDGdhSi3vOUSVCJ5BNmQS5CePGKsM4IHIKV4gDB3dmP3z9qnwfDIJUhPHkE28pJLySiepqVh3atPdK/rGsVz6bxlye1QLnnJoy4xdx7YsqbP+phjUE55yyWoRPIIsiGXID15RDXQAQUAAAByKhaZrJi7rGBdPJF+/+a+J9KB/q3cvrbPuphbCrkAAACgdApQAAAAIMdWTZ4abmqYX7CuqxMKMLgbdm0My1sLR1fFnIq5BQAAAJROAQoAAADk3M0NC8KqSYUny6/d15ycWAf6t7xlb7hx16aCdTGXYk4BAAAAQ6MABQAAAMaA65qW9hkXEotQ4gl2oK+YGw9sKRxXlYy1mresn0cAAAAAA1GAApCBtra2cOjQ4WQZL8DwyCVITx5BNvKYS/HE+aW9Tpx3jeKJSxhtlZxHMSd6F59E1zUuLUM0MLBKziXIC3kE2ZBLkJ48YqwbX+4AAPIuHiBs2dZc7jAg9+QSpCePIBt5zqVYhBJPoMeiky7xRPv9m9eEkxaeV8bIqDaVnkcrt6/ts27F3GVh1eSpRe4N5VPpuQR5II8gG3IJ0pNHVAMdUAAAAGAMub2+MdzUML9gXVcnFCCEBzavCctbC0dTxZxRfAIAAADpKEAByEBtbW2YUFeXLOMFGB65BOnJI8hG3nPpjvqmsGpS4cn0a/c1hxt2bSxTRFSjSsyjWIjVu/gk5srNDQvKFBEMrhJzCfJGHkE25BKkJ48Y64zgAUgpHiDMnd3Y/bP2aTA8cgnSk0eQjbGQS8konqalyZiRnifbb9y1KVk62c5Iq8Q8igVYsRCrp1h8smLesjJFBIOrxFyCvJFHkA25BOnJI6qBDigAAAAwBnUVocRlT/EEfO+T8DDWLW/Z212A1SXmhuITAAAAyI4OKBRomD5t0Pvs3L1nFCIBAAAgrXiC/dJ5y8K6V5/oXrf4yMGkE0S8bdXkqQM8GsaGWHzywJY1fdZf17i0DNEAAAAwXDMGOZddyrluRpYCFAp88bqrB73PLbfepggFAAAgJ5IuD3OXFZyAj0UoK5vXJsUpvTukwFgS/9aLFZ/EnFCABQAAkB+x+OTLX/pCucNgEEbwAAAAwBgXT7T37vYQT8zfv7nviXkYS1ZuX9tnneITAAAAGBkKUAAAAKAK3F7fGG5qmF+wLukOoQiFMSr+bS9v3VuwLuaA4hMAAAAYGUbwUOArK+8MuwYZr2P8DgAAQD7d3LAgWd64a1P3uniCPo7j6d0hBfKsWPHJqklTu3MAAACA/Lnl1tsGvY8xPeWlAIUCsfhEgQkAAMDYdUd9U7ikZW/Byflr9zWH9eMnOjnPmHDDro1Fi09WzFtWpogAAABIq5Rz2DOmTxuFSBiIETwAAABQRWKhyXVNS5NlT7ErSjxxD3m2vGVvQYefKP6tKz4BAACAkacABQAAAKpMPCF/aZET8rETiiIU8ioWnzywZU2f9cZLAQAAwOhQgAIAAABVKBahnLTwvIJ1i48cVIRCLvVXfLJi7rKwavLUMkQEAAAA1UcBCkAG2trawqFDh5NlvADDI5cgPXkE2aiWXErG8fTqDtFVhBJP6EMao5VHik8Y66plnwQjSR5BNuQSpCePGOvGlzsAgLyLBwhbtjWXOwzIPbkE6ckjyEa15dLt9Y3JcmXz2u51sQgl/hyLU5zAZzhGK48UnzDWVds+CUaCPIJsyCVITx5RDXRAAQAAgCoXi1CKdUKJRSg6oVCpFJ8AAABAZVGAApCB2traMKGuLlnGCzA8cgnSk0eQjWrMpViEclPD/IJ1ilBIYyTzqL/iE117GIuqcZ8EWZNHkA25BOnJI8Y6I3gAUooHCHNnN3b/rH0aDI9cgvTkEWSjmnPp5oYFyfLGXZu61xnHw3CMZB4NVHzSNVIKxopq3idBVuQRZEMuQXryiGqgAwoAAADQLRah9NcJJS6hnOLfoOITAAAAqEwKUAAAAIAC/RWh3L95jSIUyib+7a179Yk+6+PfquITAAAAKD8FKAAAAEAfilCoJP0Vn8TCk67RUQAAAEB5KUABAAAAilKEQiUYqPgkjt4BAAAAKsP4cgcAMBa0tbUVvQ4MjVyC9OQRZEMu/VZXd4kbd23qXtdVhHLpvGVh/fiJ5QqNCpdFHik+AfskyII8gmzIJUhPHjHWKUABSCkeIGzZ1lzuMCD35BKkJ48gG3Kpr4GKUGIRwKrJU8sVGhUqizxa3rI3PLBlTZ/1qyZNVXxC1bBPgvTkEWRDLkF68ohqYAQPAAAAMKg76puKjuNZ2bw23LBrY5miYqwaqPhkxbxlZYgIAAAAGIwOKAAZqK2tLfhZ2zQYHrkE6ckjyIZc6iuO2olFKFHvTijX7uv8BldXpxSIhptH8e8pFjb1ZuwO1co+CdKTR5ANuQTpySPGOgUoACnFg4W5sxu7f9Y+DYZHLkF68giyIZf6F4tQ+hvH0/WzIhSi4eZR7KbT82+rS+y+42+LamSfBOnJI8iGXIL05BHVQAEKAAAAMCTFilB6/qxQgOGIXU+6uun0FLuexO4nAAAAQGVTgAIAAAAMWSwy2TB+Up9RKbEIJXZEMSqFoXhg85qwvHVvn/Ur5i4LqyZPLUNEAAAAwFDVlDsAAAAAIJ9iV4qTFp6XjObpKXaxWPfqE2WKijyJxUrFik/i35TiEwAAAMgXBSgAAADAsMVCgUvnLetThBILC2IRSlxCMfFvY+X2tUWLT2IHHcUnAAAAkC8KUAAAAIBUBipCuX/zGkUo9NFVoFSs+CR21VF8AgAAAPkzvtwBUFkapk8b9D47d+8ZhUgAAADIk64ilN4dLbqKUOK4npsbFpQxQirF8pa94YEta/qsXzVpaljR8TcEAAAAxcwY5Fx2Kee6GVkKUCjwxeuuHvQ+t9x6myIUAAAA+khGpzQtDZ/atz3cuGtT9/pYhHLtvubkuiKU6nbDro0FfxtdFJ8AAAAwkFh88uUvfaHcYTAIBSgAAABAZmIRyh31Tcn13kUo8ee4vK5xabnCo4we2Lymz8idKHbH8TcBAAAA+VdT7gAAAACAsSUWocROJzc1zO9zW+yEsu7VJ5JCFKrD/NYDycidYsUn8W9E8QkAAACMDTqgUOArK+8MuwYZr2P8DgAAAKWIRSixG8r9m9cUFJzE63Fd7HxhJM/YduGeHeHu1Q/2WZ+Ma2pcGlZNnlqGqAAAAMijW269bdD7GNNTXgpQKBCLTxSYwNC1tbWVOwQYE+QSpCePIBtyKTux0ODSecuKFqF0jehRhDI2/cn658KXNr3YZ33X30RcAoOzT4L05BFkQy5BevJo+Eo5hz1j+rRRiISBKEABSCkeLGzZ1lzuMCD35BKkJ48gG3Ipe10FB5/at7276KRL/DmO5VGQMHbE4qKVm9cWHbmzatLUsKLjdw2Uxj4J0pNHkA25BOnJI6pBTbkDAAAAAMa+WFwSO53c1DC/z21dI3lu2LWxDJGRpVhMtO7VJ4oWn8TfveITAAAAGLt0QAHIwKyZM7qv73h9ZxkjgXyTS5CePIJsyKWRE4tQ7qhvMpJnjIm/v1hAFAtQets7qylcVtcYVk2eWobIIP/skyA9eQTZkEuQnjxirFOAApBSnCf3n//kc90/33LrbSXNoQMKySVITx5BNuTSyCtlJM/t9Y0KUXJiecve8MCWNUVv23T6meE7f/l/hdUdeRTkEQyZfRKkJ48gG3IJ0pNHVAMFKAAAAMCo6xrJE/UuQtENJR/i76lYEVGXX33kyvBIxwUAAACoDjXlDgAAAACoXrHA5KSF5yUFKb3FwoZ1rz6RjHahssSuJ/F3U6z4JP4uP3bGxYpPAAAAoMooQAEAAADKqmskz00N8/vc1tUNZWXz2uQ65RV/B7EgqL+RO/F3GAuKVk2aOsqRAQAAAOWmAAUAAAAou66RPP11Q7l2X3O4f/Ma3VDKKD73A3U9WTF3mZFJAAAAUMUUoAAAAAAVo5RuKLEIIo6AYXQMNG4n6u56MlnXEwAAAKhmClAAAACAitKzG0qxUS6xECWOgDGWZ2TF5zY+x/G5LvY863oCAAAA9DS+3AEAAAAAFBMLHK5rWho+tW970e4bcSxP7M5xe31juKO+qejoHoYuFpv095xH8XmOz7nCEwAAAKAnBSgAAABAxerqhhILTIoVRXSN5YnFKIoi0hms8CSK43Y8xwAAAEAxClDIjRnTp3Vf37l7TxkjGZg4s5WXOPMiL8+nOLOVlzjzJC/PqTizlZc48yIvz6c4s5WXOPMkL89pFnH2LERZuX1tWN66t+D2LApRqun57KmUwpOkG03j0rBqct+RSHlXrb/3kSLO6pWX51Sc2cpLnHmRl+dTnNnKS5x5kpfnVJzZykuceZGX5zMvcVYTBSjkQnzx+PKXvtD98y233laRLyLizFZe4syLvDyf4sxWXuLMk7w8p+LMVl7izIu8PJ/izFZe4syTvDynWccZCyFWzFuWFJrcsGtjUjzRU+9ClFJH81Tj81lq4clY7ixTjb/3kSTO6pWX51Sc2cpLnHmRl+dTnNnKS5x5kpfnVJzZykuceZGX57NYnJSfAhQAAAAgd2JRROzGEQsoYrHJQIUo8X63H980Jrt3DEd8bmLxTnxu+jPWC08AAACA7ClAyblF8+eFxlkzwuNPrwlHjx4tdzgAAAAwanqO5emvk0cstli8rzkptqjmooqubifFinV6qubnCAAAAEhHAUqO1R9/XPjM1ZeH44+bEp5c/Xxoa2srd0gAAAAw6noXovRXZFGNXVFKGbMTKTwBAAAA0lKAklNTJk8Kn73miqT4BAAAACgsRFnesjdcu297WN66t8/9endFiUUoP5h0chkiHhmldjuJFJ4AAAAAWVGAkkPTp00Nf3jNFWHO7MZyhwIAAAAVJxZVrK9vTAorrk0KTYoXokTdxSjPNYe9f3p92HT6WeH5d6wY5YjTK7XTSZeuYp34HAEAAABkQQFKzrz1/HPCZe95V5g4aUK5QwEAAICKd/uxQpRSuoJM3bE9nPHg/cnl/PETw4akO0hTd5eUSjK1eXs4vSPObz/3i36La3rT7QQAAAAYSQpQcqKmpib8+eev6+56smnz1vDok8+Ej7zv3WWODAAAACpfV8ePeEnG87zRWYzSn6QzSselq7hj/bGClPV1E8OqSdNGtSgliaMj5kVHWsOHWzaFs6/54JAef1PD/I7YJ+l2AgAAAIwoBSg5MW7cuKT45ODBQ+G+nz8cfvbQI2HZqdnPp26YPi3zbWahd1ziTEec2RJntsSZrbzEGeUlVnFmS5zZEme2xJmtvMQZ5SVWcQ7f6o4Y/jwsCH975GC4pGVvWN66J3xg49oBH/PbgpRQULjSuzCla120oa5zuXdWU9Ftxo4rXRYd7tx+LDKJLkkKTg72261lIPH/Fzu3RDc3zO9eP2PIWxq+Svy9FyPObIkze3mJVZzZEme2xJktcWYrL3FGeYlVnNkSZ7bEma28xFltxtWceNHRcgfB4GIHlN9d/jvhwV89Fg60dH4YdeZpp4Trrvpocv0vbvqr0NbWNuTtzuhIxC9/6QuZxgoAAAB5E0fazH9+dTjh+WeTETx5E4tOnnvHpeG1088Mm04/q9zhAAAAQNndcuttYefuPeUOo6rogJIT7e3t4cc/e7DcYQAAAMCYtLexKTzXeGlSxHHf5/6k4gtSYsFJLDSJcT//9kuTJQAAAEA5KUABAAAA6KW/gpT6HZ3L+HPPETojGsuspiSeWHCy71inEwAAAIBKowCFpPUQAAAAUKLJ80NYOD9MndJZgLK8ZW/nsrWzre/iwweT5aIjncvFx5a9rR8/sfv6ho7r6+smdq9bNalzdvXquQt6PGBX5+XXL2b4jwEAAICxyfid0acApYxqamrCogUn9Hv7ho2vJaN3RpKkAwAAgOHZeaxYZH19Y7K8/dgyU963AwAAADmhAKWM6sbXhj/+zDX93v6fbvnrcPDQyBagAAAAAAAAAACkVVPuAAAAAAAAAAAAyDcdUMro8JG28NXbvzng7QAAAAAAAAAAlU4BShm1t7eHl9atL3cYAAAAAAAAAACpGMEDAAAAAAAAAEAqClAAAAAAAAAAAEhFAQoAAAAAAAAAAKkoQAEAAAAAAAAAIJVxNSdedLTcQQAAAAAAAAAAkF86oAAAAAAAAAAAkIoCFAAAAAAAAAAAUlGAAgAAAAAAAABAKgpQAAAAAAAAAABIRQEKAAAAAAAAAACpKEABAAAAAAAAACCV8eUOgPKaVl8fFpwwN9TVjQ+HDx8Ja1/ZEFoPHix3WJBri+bPC42zZoTHn14Tjh49Wu5wIDcaZ84IsxtnJfuk9qPtYeu25rCt+fVyhwW5M7epMTQ1zQw142qS47oX174S2tvbyx0W5NqyU08O48aNC2tefNnxHZSgpqYmyZnBtLW1jUI0kG8xl04+cVE4bsqU5H3S7t17w4ZNm8sdFlS8UvdFXeIxnvdNMLAZ06eFeXNmd59P2rDptbDvjf3lDgtyp+dnd/sPHAgv/2aDzxoYUxSgVKlJEyeGj77/3eH8c84sWN/W1h5W/eLR8MOf/rsXOxiG+uOPC5+5+vJw/HFTwpOrn/eBKpRgycL54SPvf084YU5Tn9te27o9fOdf/y2sf/W1MkQG+bJg3txwxWW/3yeXDrYeCj996Bfh/p//skyRQb5d9OZzw+UffG9y/S9u+ivHd1CCT17+oXDOstMGvd+XbvhvoxAN5Nc7LrogvOeSt4XJkycVrG9+fWf41vf/LfkiGVDctR+/LJx1+qkl3//5l9aFv/vHfx7BiCC/pk+bGq78yPvDyUsWFaxvbz8anly9Jtxz733hQEtrmaKD/Jg3pyl84rL3hfnz5hSs33+gJTzw0C/Dzx56pEyRQbZqxzUs+C/lDoLRVVtbG/63T18VTjvlpOQA4dkXXgrrN74WDh86EmY0TAtLFs0Pc2c3hqeefb7coUKuTJk8KXzuU58Is2Y2JD/ft+phhVwwiNM79kWf+9SVYVr98eHQocMd+6SXk29PvL5zd5jZML3jDW59ePM5Z4WNr20OOzrWAcUtWbQgfKHj+C7mTHzTuvq5F8PGzVuS47tZsxrCKScuTroMPdOxHijdrBkN4borP5a8h4oc30FpPvCeFWHypEmD3u/HP3toFKKBfPr4Zb8f3vWOi5NvmW/avDW88PJvwtbtzaFh2tQwbWp9OO/sZeGVVzeFnbv3lDtUqEhvOuv0pMtqqZqbXw9PrH5uBCOCfIpfuPyzz1+XnDOK55Pi5wpJ55N9+0PTrBnJCfVTTz4pPPH0s8kXnIHili5ZGL7w6atDw/SpSS49/+La8JuOY7mYS0kenbQkWTo3y1igA0oV+t3lF4cF8+eFgwcPha/e/s2Ctp1vedPZ4RMffl84+4xTOw7SzwhPOuiGksQq8D+85oowp+NAHCjNhLq6cNVHPhBqasYlHU7+/s5vhf0tLd23T60/LvzRtVeFOU2zwpUd97vl1tvC4SNHyhgxVKbYVvqqj7y/++REPL7r+c2jru4N8STFU8++kBQfA4OLufXJj30wTJhQV+5QIFdiwVZszx794CcPhNe2bCtzRJA/bz3/nPDW885Jrn/3hz8JDz3yePdtseNqPHkR3yfFIpX/+jf/s1xhQkWLRY4PP/rEgPf5nbe+OZx12snJ5+Q//OmqUYoM8uWD71mRFKG0tLSG277xTwXHdqctXRKuv+bjSSfWS99xcbhXHkFREyfUhWs+9qHks7s39h8I/98dES4DIgAAEsNJREFUdxXk0uKFJ4TPXn1F0rnrnW97q04o5F5NuQNgdMXZl8svekty/SerHuozM/bRJ58JjzzxdHJ9xdsvGvX4II/iB0P/8YufVXwCQxTbsh83ZXJS8X373fcUFJ9Ee/ftD3d0rI/iG91lp51SjjCh4p15+ilJx6Dozu98v0/b21/++qnwyoZNyfU3n3tmn8cDxb3nnW9LCvfNNIehOXnJwmQZj/FW/eKx8NK69f1egL5iAeS7L3lbcv3hRx4vKD6J4kmLb/3g35Lr8Rhw6bGcAwpt3rp9wH1QTUeuxeKT6K5/+WHYsr25zBFD5Yn7pHPPPCO5/sDDv+pTWPzC2lfCY089k1yPX24GinvL+eeEqfXHJ9e/ftd3++RS/HLm93700+T6ey55e6gbr38E+aYApcqcccrSMHHihOT6o48/U/Q+v3zsyWQZq1ZnN84ctdggb2JB13/44vXh4x/6/TBx0oTkW+fxm0lAaU5duiRZxrbRe/btK3qfrc07km8iRYvmzx212CBP4gi4DRtfC69t3ha2Nb9e9D47du5MlvGbssDgFs2fl5z8iyf5fnjfv5c7HMiVGQ2dI0m373g9tLdrww5DdfKJi5IxO3GMwU9WPVz0Pq9s2Bh+8egTyWcQO3cZwQNDddzkyeGqj34wuf7Yk8+Ep599ocwRQWWaUDc+1NZ2nkbcum1H0fv8Zv3GZNl1ch3oa+nizoLhjZs2J8dxxfz62Bir2IX1tFNOGs3wIHNKqKrM0o43sVGcD9v7m+ZdNm7emrzIxQOLhSfM6/dEBlS7WAEeu57Ek+P3/fzhpC3aslNPLndYkBs/e/iR8OTq58OB1tYB7xdzLTJHFop75PGnk8tA4ges0Y4dO0cjJMi1pDXu5R9Krv/zv/wotLW3lTkiyJclC09Ilq9t2VrmSCCfTlvaecLh5VfWD9iF69v/+uPRCgnGnMt+/13JOKtYbPz9f3ug3OFAxTp0+EjS1S6Oz54xY1rR+zTOmpEsu75ABvQ1b87sZBm/bNmfo0ePJrfH5gCnnrg4rH7uxdEKDzKnAKXKNEyrT5YDfRAUX+R27t4dGmfOCCcuXhAee2r1aIUHuRJzJc6TffBXj/UZdwAMLrYa7N1usLclC+cnVd/R+o2vjUZYMObEtuxnHGst/czzL5U5Gqh8H/79dycjDR594pnw7AsvhdN98wiGZHZjZ7eteOwW90FvOe/scNyUKeFoW3vYd+BAkluxAx5QXNPMzi5Cr7++K1nGgvxTT1oSFp4wN9SOrw2bOt5DPffi2tDWpkAShiN2ujv/nM7RpP/6k5/1+yVNoPPz79gh6E1nnx4uufit4clnnksKt7rMmD4t/M4F5yXXH32yeMd9IH7RpXMyRXtHTg2ovfP2448/bqRDghGlAKXK1NV1nsRrbT044P12dLzJjQUo5oxB/2I76R//7MFyhwFj2mW/d2myjN/8e+6ltWWOBvIjnvCbOGFiOPP0k8MF53bOYY6tpX0gBAM764xTk5PlsWPkPfcarQhDFU+Ud327b8XbL0rGiPT21vPOCb9+enW46557jeiBIubO7cyhV1/bkhzTfeLD709O8PUUT/7d9b0fJoUowNB86PfelSy3bmv2/ghKcM+PfhKammYmXRn+/AufCb96/Kmw/fVd4YTZjeHC888NkydPCq9s2BR+dP/Pyx0qVKyNHcd18cst9VOm9Huf+F6qq5jfuVnyzl9wlZk/d06yHKzK7sixD4HGe5EDoEwu/8B7w4L585Lr99z7UycooETxDesfXXtV0iK3y+rnXwzf/oE27TCQ+uOPC1d88L3J9X/89r+Eg4cOlzkiyJ/4mUPX/icWnzy95oWOy4vh0OFDyc/xG7JxjOmbzzkr1Iyr6ci175c5Yqg8xx87MTF/3pzwsQ/8XqitrQ3PvfBy0kFo0sSJ4YxTliajQ66/+vJw+z/fk3wzHSjNkkULwuJjo+J+vOqhMkcD+RCLHv/27+4In/3kx8NJixeEd1/ytoLbV3fso26/67s+t4MBvHqsAOW0juO4+OX/5tf7jsh+8zlnhvF1tcn18bW1ox0iZEp1QZWJJyRKcrT92P1HMBgA6McH3v3OcNEF5ybXf/6rX4ennn2uzBFBfkyoG5+MDTl48GCYNCmepDg5nHX6qeHLX/pC+Mbd94RXNmwsd4hQka756AfDcVMmhwce/FVY/6qxbzAcM2ZMC+3H2kZ/467vJvujnn7x2JPhU1dcFs5Zdlo47+xl4ddPrQ4vrH2lHKFCxRoXOj+Me/uFb05O+n319m+GzVu3d98+rb4+fO7aT4Q5TbPCJz70vrB23QYjRKBEv7v84mS5fcfriregRLEb1ycvvywp2G9paU06FB9pa0uKIpfFzxtOOzn8xRevDyv/6dtFT6oDIfzq10+FFW+7MNTVjU+O4/7uH+4O25pf77596ZJF4bL3vquMEUK2FKBUmcNH4rf4Jg9+x3E1yWKwcWQAkLVPXPa+ZPxBFEeGfO/e+8ocEeRL7NoQT/p1iS3b//BTHw9Ns2aG66/6WPh//sfXwt59+8sYIVSed1x0QTj5pMXhta3bw733ryp3OJBb8WTe08/+30nL6MNHjvS5/ejRo+Gue/41nH7ySWHChLpwwbnnKECBAfzTd75fUHwS7dm3L9xx9z3hP/zxZ8PEiRPCeecuCw/+8tdlihDyY2bD9HDa0hOT6w898niZo4F8iHnzmasuT/Y3L7+yIel0cqCltfv2WBR5/SevSMbz/NEfXBn+6m+/ppMkFBGP3+7+/o/CNR/9QPI53V988bNh3YZXwxv7DoQZDVPDogUnhL373ggvP/diOPuMU5MiL8izmnIHwOjaun1HsqytHfhXP/7Y7YcPO1gAYHTEb058/toru4tP/v3hR8M37/lhmaOC/Nu5e0/4+je/k1yPs5kvvuC8MkcElWVO46zw/ne9Mxw53Bbu/Na/aB0NGShWfNIlnpR4/uV1yfUli08YrZAgN9qPdSWOJyH6K9Da2rwjbNy0Obm++IT5oxYb5Nmbzz0rWba1tYdfP/VsmaOBfLjk4rckxSf7D7T0KT6J4kn1v7/zW0lexXGLF7/F5w3QnyeefrYjX76dHOPFsaUnL1kU3nT26UnxSXx/dOtXV4bW1oPJfQd6PwV5oANKlTl0rPp04oQJA95vduOsZLm/1wEFAIyE+I2Jz3/6yqRDQ3TPj+7zLT7IUGzruWnz1jB/3pwwd87scocDFeVdyy9O5izHD4E+8J4VfW4/fspvO0hed9VHQzgawisbN4WfrvrFaIYJY0rrwc4PVidPnFTmSKDyNO/clXyT/LUt2wa83849e8OC+fPCpEkDf8YHdDrz1JOT5XMvvdy9HwIGtnjRgmT5wsvr+hSfdNndsT96seP2M047OSxeGO//yChGCPmy5sWXw3N/vTacdvKJ4fgpU8LRjv9e27wtbNnenNw+efLEZNnS6tws+aYApcrE+ZZR48yZ/d5n3LhxYfrUqcn1DRvNPgdgZM1tagyf//RV4fjjpoSDBw+F2+/+rlbsMASxJW5T48xw4EBL2HDsm7DF7Hujc+zO+BpNEKGncccag06tPz65DCSODYmOtPk2EhQTR+/Mnd0YDh8+0v0hajFdXVkP+GAV+tjx+s6kAGXK5NIKtOyTYHBT648LJ8zrLMR/+rmXyhwN5Mes6dOTZVdXhv7sb2lJlpPq6kY8Jsi7OJb0+ZfWFb3tlBOXJMt1618dzZAgcwpQqswrr25KlvEb5sdNntx9YNDT4oXzk/ZP0eatA3/bAgDSmDWjobv4JJ4c/9o/3D3oN/2AQh95/7uTk+JxHvP//Po/9Xu/uXMak6VvUUChBx99LKx+of8TEfPnzg4r3n5hcv0fv/OD0N7WHvbs3Tta4UGuXP/JK5JW0uvWbwxfWfmP/d5vwbx5yXL9Bl96gd7iCYdzlp0W5s+bGyZOqEvGVhUTi72inbv2jGZ4kEsnLlrUfX3tb3zhBUq1fceOpNvWlMlTBrxfPNcUtR7SXQiKWXjC3PDW884N+1sOhHt/uqrofZZ2vI+KI6+ita8oQCHffP2xyrzw8m+SeX2xwOTCC84tep+L39y5PrZ9iu3aAWAk1NbWhuuvuTwpPnlj/4Hw/37tdsUnMAwbXu08eRdP+M05NkaxtzNPO6W7w90La38zarFBHqzvyKGnnn2u38u6Db/94OfpZ59P1nUV9gOF1h/LjZMWLxhwnzS7sbMr62NPPT1qsUFePL3mhdDefjTpFPT2iy4oep+lSxZ2jy995nndHGAw8b1SFEcu7t23v8zRQH68+Jv1yfLsZacm47OLmTF9Wjj1WKfI9TrqQ1FTO/LnogvODSvedlHSlauYd1/ytmQZv2AWR1tBnilAqTKxtdODv3wsuf7eFcuTD356ekfHG9vzzzkzuf7jf39o1OMDoHpc+rYLuz80ffSJZ8Lsplnh9FNO6vcSR/UAfT386BNJgXH0qY9/uM+HQqctXRKu/PD7kutbtzWHx59eM+oxAlAdHn708WSkYvQHV34kTJ82teD2uE+6+iMfSK6/vG69sYtQROwM+fNjn9393jvfEc479jldl3lzmsInL78suR67Db2yYeOoxwh509BwbNz8JifHYSgeeuTXoaWlNSmKjJ3u4gjgnuLP119zRXJ7/HLZLx97qkyRQmV77qW1yTFebA7w8Q+9Lxld2qWmpiZc/oH3JgXGsQj5+/92fxkjhWyMqznxoqPlDoLRNW7cuPCFT1+dfCMpim9Wd+3ZHebOnp3MmI0eeeLpcPf37i1nmJBLsajruqs+mlz/i5v+KrS1tZU5IqhcN//HP0m6n5TKvgn6F0/offrKj4W6uvEd+572sObFl8Phw4dD08wZSbvcaOfuPeFv/+4fwp59+8ocLeRLLIL87DVXJNcd38Hglp16csc+6aPJh6txn/Tcy+vCoYMHk9GLixackNwnFkR+ZeWdRccCA50nIj5z9ceSMYtRzJnXtm4LU6ZMDqeedGKSX7GTw9989RuO7aAE/+0v/ywZa+BzBRi6np83xJPjL66LXfYPhOOmTOneJ8UC5K/94z8rioQBnHHq0nD91Zcn13fv3RteWd9ZFLn0xIWh/vjOrih33fPD8OiTz5QtRshK7biGBf+l3EEw+p5a/VzHQffEMH/unDBzxvQwb87sMLXjBS4eKPxk1UPhBz9+oNwhQi7Fbg5vOuuM5Pp9qx5Oug4BfcUTEJe+46IhPSaO51nzwssjFBHk246du5P8mDe7KcxomBZmN85Kvh07bWp9cvLvoUcfD//4rX9JvpEEDE3jzBnh/LOXJdcd38Hgml/fGZ5/aV0ygifZJ3W8R4r7pNgN5fDhI8k3ae/8zvdDy8GD5Q4VKlbc1zzxzJrQ1t6efGYXcynmUdwnxd3QU6tfCF+/6zth7xtvlDtUyIX3Xro8+VLmI48/HTa+tqXc4UCuxM8bnn3+pTBzZkOyH4qXuG/q2ic9++La8I27vhs2bzVWGwYS3ydt2PhaWHDC3DCzoSHMnd2YXCZOmBA2bd4abr/7nuQLZTAW6IBS5eI3Kk45cXGora0NB1pbk3nNPlAFAMiv+K2J+Ga2ZlxNaD14MKxb/6rjOwDKIna7i198iZ85HDx0MOnAap8EQ7do/ryOfDou6cK1fuNryTEeAIy2iRPqwpKFC5Jju7hPip83HD5ypNxhQe7EAq74ZeajHf9t3ro97N6zt9whQaYUoAAAAAAAAAAAkEpNuQMAAAAAAAAAACDfFKAAAAAAAAAAAJCKAhQAAAAAAAAAAFJRgAIAAAAAAAAAQCoKUAAAAAAAAAAASEUBCgAAAAAAAAAAqShAAQAAAAAAAAAgFQUoAAAAAAAAAACkogAFAAAAAAAAAIBUFKAAAAAAAAAAAJCKAhQAAAAAAAAAAFJRgAIAAAAAAAAAQCoKUAAAAAAAAAAASEUBCgAAAAAAAAAAqShAAQAAAAAAAAAgFQUoAAAAAAAAAACkogAFAAAAAAAAAIBUFKAAAAAAAAAAAJCKAhQAAAAAAAAAAFJRgAIAAAAAAAAAQCoKUAAAAAAAAAAASEUBCgAAAAAAAAAAqShAAQAAAAAAAAAgFQUoAAAAAAAAAACkogAFAAAAAAAAAIBUFKAAAAAAAAAAAJCKAhQAAAAAAAAAAFJRgAIAAAAAAAAAQCoKUAAAAAAAAAAASEUBCgAAAAAAAAAAqShAAQAAAAAAAAAgFQUoAAAAAAAAAACkogAFAAAAAAAAAIBUFKAAAAAAAAAAAJCKAhQAAAAAAAAAAFJRgAIAAAAAAAAAQCoKUAAAAAAAAAAASEUBCgAAAAAAAAAAqShAAQAAAAAAAAAgFQUoAAAAAAAAAACkogAFAAAAAAAAAIBUFKAAAAAAAAAAAJCKAhQAAAAAAAAAAFL5/wHl/kc9mrmo1QAAAABJRU5ErkJggg==;movable=0;resizable=0;rotatable=0;deletable=0;editable=0;locked=1;connectable=0;imageBorder=none;shadow=0;imageBackground=none;" parent="1" vertex="1">
          <mxGeometry width="2208" height="1248" as="geometry" />
        </mxCell>
        <mxCell id="WYTIspNSHNain-M4p9hz-3" value="" style="endArrow=classic;startArrow=classic;html=1;rounded=0;strokeWidth=6;" parent="1" edge="1">
          <mxGeometry width="50" height="50" relative="1" as="geometry">
            <mxPoint x="130" y="610" as="sourcePoint" />
            <mxPoint x="1450" y="610" as="targetPoint" />
          </mxGeometry>
        </mxCell>
        <mxCell id="WYTIspNSHNain-M4p9hz-4" value="&lt;span style=&quot;font-size: 48px;&quot;&gt;`T`&lt;/span&gt;" style="text;html=1;align=center;verticalAlign=middle;whiteSpace=wrap;rounded=0;" parent="1" vertex="1">
          <mxGeometry x="1350" y="520" width="100" height="34" as="geometry" />
        </mxCell>
        <mxCell id="WYTIspNSHNain-M4p9hz-5" value="" style="endArrow=classic;startArrow=classic;html=1;rounded=0;strokeWidth=4;" parent="1" edge="1">
          <mxGeometry width="50" height="50" relative="1" as="geometry">
            <mxPoint x="130" y="582" as="sourcePoint" />
            <mxPoint x="790" y="582" as="targetPoint" />
          </mxGeometry>
        </mxCell>
        <mxCell id="WYTIspNSHNain-M4p9hz-6" value="" style="endArrow=none;dashed=1;html=1;rounded=0;strokeWidth=4;" parent="1" edge="1">
          <mxGeometry width="50" height="50" relative="1" as="geometry">
            <mxPoint x="790" y="1160" as="sourcePoint" />
            <mxPoint x="790" y="50" as="targetPoint" />
          </mxGeometry>
        </mxCell>
        <mxCell id="WYTIspNSHNain-M4p9hz-7" value="&lt;font style=&quot;font-size: 48px;&quot;&gt;`\frac{T}{2}`&lt;/font&gt;" style="text;html=1;align=center;verticalAlign=middle;whiteSpace=wrap;rounded=0;" parent="1" vertex="1">
          <mxGeometry x="670" y="490" width="60" height="30" as="geometry" />
        </mxCell>
        <mxCell id="WYTIspNSHNain-M4p9hz-12" value="" style="endArrow=none;dashed=1;html=1;rounded=0;strokeWidth=4;" parent="1" edge="1">
          <mxGeometry width="50" height="50" relative="1" as="geometry">
            <mxPoint x="1450" y="1160" as="sourcePoint" />
            <mxPoint x="1450" y="50" as="targetPoint" />
          </mxGeometry>
        </mxCell>
        <mxCell id="WYTIspNSHNain-M4p9hz-14" value="" style="ellipse;whiteSpace=wrap;html=1;aspect=fixed;fillColor=#a20025;strokeWidth=5;fontColor=#ffffff;strokeColor=#6F0000;" parent="1" vertex="1">
          <mxGeometry x="120" y="600" width="20" height="20" as="geometry" />
        </mxCell>
        <mxCell id="WYTIspNSHNain-M4p9hz-15" value="" style="ellipse;whiteSpace=wrap;html=1;aspect=fixed;fillColor=#a20025;strokeWidth=5;fontColor=#ffffff;strokeColor=#6F0000;" parent="1" vertex="1">
          <mxGeometry x="750" y="520" width="20" height="20" as="geometry" />
        </mxCell>
        <mxCell id="WYTIspNSHNain-M4p9hz-16" value="" style="ellipse;whiteSpace=wrap;html=1;aspect=fixed;fillColor=#a20025;strokeWidth=5;fontColor=#ffffff;strokeColor=#6F0000;" parent="1" vertex="1">
          <mxGeometry x="1380" y="760" width="20" height="20" as="geometry" />
        </mxCell>
        <mxCell id="WYTIspNSHNain-M4p9hz-17" value="" style="endArrow=classic;startArrow=classic;html=1;rounded=0;strokeWidth=4;" parent="1" edge="1">
          <mxGeometry width="50" height="50" relative="1" as="geometry">
            <mxPoint x="130" y="1166" as="sourcePoint" />
            <mxPoint x="760" y="1166" as="targetPoint" />
          </mxGeometry>
        </mxCell>
        <mxCell id="WYTIspNSHNain-M4p9hz-18" value="" style="endArrow=classic;startArrow=classic;html=1;rounded=0;strokeWidth=4;" parent="1" edge="1">
          <mxGeometry width="50" height="50" relative="1" as="geometry">
            <mxPoint x="760" y="1166" as="sourcePoint" />
            <mxPoint x="1390" y="1166" as="targetPoint" />
          </mxGeometry>
        </mxCell>
        <mxCell id="WYTIspNSHNain-M4p9hz-19" value="" style="endArrow=none;dashed=1;html=1;rounded=0;strokeWidth=4;fillColor=#d80073;strokeColor=#A50040;" parent="1" edge="1">
          <mxGeometry width="50" height="50" relative="1" as="geometry">
            <mxPoint x="758.33" y="1160" as="sourcePoint" />
            <mxPoint x="758" y="530" as="targetPoint" />
          </mxGeometry>
        </mxCell>
        <mxCell id="WYTIspNSHNain-M4p9hz-20" value="" style="endArrow=none;dashed=1;html=1;rounded=0;strokeWidth=4;fillColor=#d80073;strokeColor=#A50040;" parent="1" edge="1">
          <mxGeometry width="50" height="50" relative="1" as="geometry">
            <mxPoint x="1388.9" y="1169" as="sourcePoint" />
            <mxPoint x="1389" y="770" as="targetPoint" />
          </mxGeometry>
        </mxCell>
        <mxCell id="WYTIspNSHNain-M4p9hz-21" value="&lt;font style=&quot;font-size: 48px;&quot;&gt;`T_s &amp;lt; \frac{T}{2}`&lt;/font&gt;" style="text;html=1;align=center;verticalAlign=middle;whiteSpace=wrap;rounded=0;" parent="1" vertex="1">
          <mxGeometry x="630" y="1070" width="60" height="30" as="geometry" />
        </mxCell>
      </root>
    </mxGraphModel>
  </diagram>
</mxfile>
